<svg width="35" height="35" viewBox="0 0 35 35" fill="none" xmlns="http://www.w3.org/2000/svg">
<rect width="35" height="35" rx="3" fill="white"/>
<path fill-rule="evenodd" clip-rule="evenodd" d="M10.0542 20.2811C11.3074 23.4605 14.324 25.5143 17.7411 25.5143C22.2947 25.5143 26 21.8122 26 17.2625C26 12.7128 22.2947 9.01074 17.7411 9.01074C14.324 9.01074 11.3074 11.0646 10.0542 14.2439C9.9401 14.5319 10.0828 14.8591 10.3718 14.9731C10.6601 15.0856 10.9875 14.9453 11.1024 14.6549C12.1843 11.9101 14.7903 10.1359 17.7411 10.1359C21.6737 10.1359 24.8738 13.3333 24.8738 17.2625C24.8738 21.1918 21.6737 24.3892 17.7411 24.3892C14.7903 24.3892 12.1843 22.615 11.1024 19.8701C10.9883 19.5798 10.6601 19.4395 10.3718 19.552C10.0828 19.666 9.9401 19.9931 10.0542 20.2811ZM17.5453 21C17.4056 21 17.266 20.9463 17.1597 20.8379C16.9468 20.6222 16.9468 20.2722 17.1597 20.0562L19.1896 18H10.5C10.2239 18 10 17.7762 10 17.5C10 17.2239 10.2239 17 10.5 17H19.1897L17.1597 14.9436C16.9468 14.7278 16.9468 14.3777 17.1597 14.1619C17.3729 13.9461 17.7184 13.9461 17.9315 14.1619L20.8402 17.1088C21.0533 17.3247 21.0533 17.6745 20.8402 17.8904L17.9315 20.8371C17.8245 20.9463 17.6849 21 17.5453 21Z" fill="#6B717F"/>
<path d="M10.0542 20.2811L10.2868 20.1895L10.2867 20.189L10.0542 20.2811ZM10.0542 14.2439L10.2867 14.3361L10.2868 14.3356L10.0542 14.2439ZM10.3718 14.9731L10.2801 15.2056L10.2809 15.206L10.3718 14.9731ZM11.1024 14.6549L11.3349 14.7469L11.335 14.7466L11.1024 14.6549ZM11.1024 19.8701L10.8697 19.9616L10.8698 19.9618L11.1024 19.8701ZM10.3718 19.552L10.2809 19.3191L10.2801 19.3194L10.3718 19.552ZM17.1597 20.8379L17.3382 20.6629L17.3376 20.6623L17.1597 20.8379ZM17.1597 20.0562L16.9818 19.8806L16.9817 19.8807L17.1597 20.0562ZM19.1896 18L19.3675 18.1757L19.7877 17.75H19.1896V18ZM19.1897 17V17.25H19.7878L19.3676 16.8244L19.1897 17ZM17.1597 14.9436L16.9817 15.1192L16.9818 15.1193L17.1597 14.9436ZM17.1597 14.1619L16.9818 13.9862L16.9818 13.9863L17.1597 14.1619ZM17.9315 14.1619L18.1094 13.9863L18.1094 13.9863L17.9315 14.1619ZM20.8402 17.1088L20.6622 17.2844L20.6623 17.2845L20.8402 17.1088ZM20.8402 17.8904L20.6623 17.7148V17.7148L20.8402 17.8904ZM17.9315 20.8371L17.7535 20.6615L17.7529 20.6622L17.9315 20.8371ZM17.7411 25.2643C14.4267 25.2643 11.5024 23.2733 10.2868 20.1895L9.82166 20.3728C11.1125 23.6477 14.2213 25.7643 17.7411 25.7643V25.2643ZM25.75 17.2625C25.75 21.674 22.1569 25.2643 17.7411 25.2643V25.7643C22.4326 25.7643 26.25 21.9505 26.25 17.2625H25.75ZM17.7411 9.26074C22.1569 9.26074 25.75 12.8511 25.75 17.2625H26.25C26.25 12.5745 22.4326 8.76074 17.7411 8.76074V9.26074ZM10.2868 14.3356C11.5024 11.2518 14.4267 9.26074 17.7411 9.26074V8.76074C14.2213 8.76074 11.1125 10.8774 9.82166 14.1523L10.2868 14.3356ZM10.4635 14.7405C10.3022 14.6769 10.2238 14.4946 10.2867 14.3361L9.82184 14.1518C9.6564 14.5692 9.86334 15.0412 10.2801 15.2056L10.4635 14.7405ZM10.8699 14.5629C10.806 14.7245 10.6237 14.803 10.4627 14.7402L10.2809 15.206C10.6965 15.3682 11.169 15.1661 11.3349 14.7469L10.8699 14.5629ZM17.7411 9.88586C14.6876 9.88586 11.9894 11.7229 10.8698 14.5633L11.335 14.7466C12.3793 12.0973 14.893 10.3859 17.7411 10.3859V9.88586ZM25.1238 17.2625C25.1238 13.195 21.8116 9.88586 17.7411 9.88586V10.3859C21.5359 10.3859 24.6238 13.4715 24.6238 17.2625H25.1238ZM17.7411 24.6392C21.8116 24.6392 25.1238 21.33 25.1238 17.2625H24.6238C24.6238 21.0535 21.5359 24.1392 17.7411 24.1392V24.6392ZM10.8698 19.9618C11.9894 22.8022 14.6876 24.6392 17.7411 24.6392V24.1392C14.893 24.1392 12.3793 22.4278 11.335 19.7785L10.8698 19.9618ZM10.4627 19.7849C10.6241 19.7219 10.8066 19.801 10.8697 19.9616L11.3351 19.7787C11.17 19.3585 10.6961 19.157 10.2809 19.3191L10.4627 19.7849ZM10.2867 20.189C10.2238 20.0304 10.3022 19.8482 10.4635 19.7846L10.2801 19.3194C9.86334 19.4838 9.65641 19.9558 9.82183 20.3732L10.2867 20.189ZM16.9812 21.013C17.1364 21.1712 17.3412 21.25 17.5453 21.25V20.75C17.4699 20.75 17.3955 20.7213 17.3382 20.6629L16.9812 21.013ZM16.9817 19.8807C16.6728 20.194 16.6727 20.7004 16.9818 21.0136L17.3376 20.6623C17.2209 20.544 17.2207 20.3505 17.3377 20.2317L16.9817 19.8807ZM19.0117 17.8244L16.9818 19.8806L17.3376 20.2319L19.3675 18.1757L19.0117 17.8244ZM10.5 18.25H19.1896V17.75H10.5V18.25ZM9.75 17.5C9.75 17.9142 10.0858 18.25 10.5 18.25V17.75C10.3619 17.75 10.25 17.6381 10.25 17.5H9.75ZM10.5 16.75C10.0858 16.75 9.75 17.0858 9.75 17.5H10.25C10.25 17.362 10.3619 17.25 10.5 17.25V16.75ZM19.1897 16.75H10.5V17.25H19.1897V16.75ZM16.9818 15.1193L19.0118 17.1757L19.3676 16.8244L17.3376 14.768L16.9818 15.1193ZM16.9818 13.9863C16.6727 14.2994 16.6728 14.806 16.9817 15.1192L17.3377 14.7681C17.2207 14.6495 17.2208 14.4559 17.3376 14.3375L16.9818 13.9863ZM18.1094 13.9863C17.7984 13.6713 17.2929 13.6713 16.9818 13.9862L17.3376 14.3376C17.4529 14.2208 17.6384 14.2209 17.7536 14.3376L18.1094 13.9863ZM21.0181 16.9332L18.1094 13.9863L17.7535 14.3375L20.6622 17.2844L21.0181 16.9332ZM21.0181 18.066C21.3273 17.7528 21.3273 17.2464 21.0181 16.9332L20.6623 17.2845C20.7792 17.4029 20.7793 17.5962 20.6623 17.7148L21.0181 18.066ZM18.1094 21.0127L21.0181 18.066L20.6623 17.7148L17.7535 20.6615L18.1094 21.0127ZM17.5453 21.25C17.7496 21.25 17.9543 21.171 18.1101 21.0121L17.7529 20.6622C17.6947 20.7215 17.6203 20.75 17.5453 20.75V21.25Z" fill="#6B717F"/>
</svg>
