<svg width="158" height="860" viewBox="0 0 158 860" fill="none" xmlns="http://www.w3.org/2000/svg">
<path fill-rule="evenodd" clip-rule="evenodd" d="M-35.0548 859.839C-174.779 840.735 -291 716.715 -387 797C-483 877.285 -582.047 758.726 -719.382 735.041C-757.385 728.487 -797.318 725.167 -834.038 716.715C-870.755 708.265 -888.594 695.744 -899 674.791C-909.24 654.166 -897.344 616.16 -874.237 598.895C-851.129 581.628 -833.95 581.136 -807.92 565.15C-716.893 509.248 -686.726 425.965 -731.953 355.431C-761.769 308.932 -733.95 283.208 -714.475 215C-695 146.792 -657.612 48.225 -573.391 15.7553C-489.172 -16.7143 -503.734 28.7511 -403.339 15.7553C-299.342 2.29272 -187.787 -9.36813 -87.678 11.0394C-8.88425 27.1022 53.9362 62.0438 92.9044 102.645C131.875 143.247 148.671 189.235 153.995 234.955C184.057 493.166 -9.16785 570.923 36.9999 828.43L-35.0548 859.839Z" fill="#F4F6FD"/>
</svg>
