<svg xmlns="http://www.w3.org/2000/svg" width="32" height="32" viewBox="0 0 32 32">
    <g fill="none" fill-rule="evenodd">
        <g fill="#DDF2D6">
            <path d="M18.24 8.003c1.515 0 2.755 1.229 2.755 2.793v9.411c0 1.536-1.24 2.793-2.755 2.793H6.754C5.24 23 4 21.743 4 20.207v-9.411C4 9.26 5.24 8.003 6.754 8.003zm8.67 1.063c1.1-.251 2.088.587 2.088 1.62v8.63c0 .307-.084.586-.226.837-.48.81-1.495 1.09-2.314.615l-4.43-2.514v-6.479l4.402-2.513c.141-.084.31-.168.48-.196z"/>
        </g>
    </g>
</svg>
