<svg width="16" height="16" viewBox="0 0 16 16" fill="none" xmlns="http://www.w3.org/2000/svg">
<path fill-rule="evenodd" clip-rule="evenodd" d="M9.15051 5.35902H6.84949C6.38442 5.35902 6.00765 4.96185 6.00765 4.47232C6.00765 3.98246 6.38442 3.58562 6.84949 3.58562H9.15051C9.61558 3.58562 9.99235 3.98246 9.99235 4.47232C9.99235 4.96185 9.61558 5.35902 9.15051 5.35902ZM9.15051 8.90581H6.84949C6.38442 8.90581 6.00765 8.50865 6.00765 8.01911C6.00765 7.52926 6.38442 7.13241 6.84949 7.13241H9.15051C9.61558 7.13241 9.99235 7.52926 9.99235 8.01911C9.99235 8.50865 9.61558 8.90581 9.15051 8.90581ZM12.6582 0.0388184H3.34184C2.87677 0.0388184 2.5 0.435666 2.5 0.925518V15.1133C2.5 15.6032 2.87677 16 3.34184 16H5.44643V12.4526C5.44643 11.9628 5.8232 11.5659 6.28827 11.5659H9.71173C10.1768 11.5659 10.5536 11.9628 10.5536 12.4526V16H13.5V0.925518C13.5 0.435666 13.1232 0.0388184 12.6582 0.0388184Z" fill="#DADFE4"/>
</svg>
