<svg width="24" height="24" viewBox="0 0 24 24" fill="none" xmlns="http://www.w3.org/2000/svg">
    <path fill-rule="evenodd" clip-rule="evenodd" d="M22.3448 0.103255C22.1512 0.0423067 21.9496 0 21.7365 0H2.26354C2.05044 0 1.84888 0.0423067 1.65517 0.103255L12.0461 8.27586L22.3448 0.103255ZM12.4685 9.75583C12.3435 9.85166 12.1952 9.89921 12.0469 9.89921C11.8986 9.89921 11.7502 9.85166 11.6253 9.75583L0.333375 0.872137C0.124875 1.20521 0 1.59772 0 2.02122V13.5756C0 14.7604 0.946219 15.7241 2.10938 15.7241H11.9398C13.0278 13.1993 15.4992 11.4271 18.375 11.4271C20.6244 11.4271 22.6081 12.5284 23.8961 14.2078C23.9574 14.0066 24 13.7971 24 13.5756V2.02122C24 1.59772 23.8751 1.20521 23.6666 0.872137L12.4685 9.75583ZM19.443 20.8913L21.6145 18.7198C21.8992 18.4358 21.8948 17.9735 21.6145 17.694L19.443 15.5225C19.1601 15.2396 18.7019 15.2396 18.419 15.5225C18.1362 15.8053 18.1362 16.2636 18.419 16.5464L19.3553 17.4828H15.3103C14.9101 17.4828 14.5862 17.8066 14.5862 18.2069C14.5862 18.6072 14.9101 18.931 15.3103 18.931H19.3553L18.419 19.8673C18.1362 20.1502 18.1362 20.6085 18.419 20.8913C18.7019 21.1742 19.1601 21.1742 19.443 20.8913ZM12.4138 18.2069C12.4138 15.0074 15.0074 12.4138 18.2069 12.4138C21.4064 12.4138 24 15.0074 24 18.2069C24 21.4064 21.4064 24 18.2069 24C15.0074 24 12.4138 21.4064 12.4138 18.2069Z" fill="#B3B3B3"/>
</svg>