<svg xmlns="http://www.w3.org/2000/svg" width="32" height="32" viewBox="0 0 32 32">
    <g fill="none" fill-rule="evenodd">
        <g fill="#DDF2D6">
            <path d="M25.32 16.17v-1.811c0-2.5-.97-4.85-2.73-6.618C20.83 5.973 18.49 5 16 5s-4.83.973-6.59 2.741C7.65 9.51 6.68 11.86 6.68 14.36v1.81c-.935.053-1.68.834-1.68 1.786v2.803c0 .987.8 1.79 1.782 1.79h1.03c.074 1.067.961 1.914 2.043 1.914 1.129 0 2.047-.923 2.047-2.057V16.31c0-1.134-.918-2.057-2.047-2.057-.208 0-.408.032-.597.09.01-3.726 3.03-6.753 6.742-6.753s6.732 3.027 6.742 6.752c-.19-.057-.39-.089-.597-.089-1.129 0-2.048.923-2.048 2.057v6.096c0 1.134.92 2.057 2.048 2.057 1.082 0 1.97-.847 2.043-1.914h1.03c.983 0 1.782-.803 1.782-1.79v-2.803c0-.952-.745-1.733-1.68-1.786"/>
        </g>
    </g>
</svg>
