<svg width="12" height="11" viewBox="0 0 12 11" fill="none" xmlns="http://www.w3.org/2000/svg">
<path fill-rule="evenodd" clip-rule="evenodd" d="M8 1.6H10.625C11.385 1.6 12 2.22513 12 2.99765V4.16154L6.12 6.15376C6.07997 6.16903 6.04003 6.17412 6 6.17412C5.95997 6.17412 5.92003 6.16903 5.88 6.15376L0 4.16154V2.99765C0 2.22513 0.615 1.6 1.375 1.6H4V1.06667C4 0.4784 4.4485 0 5 0H7C7.5515 0 8 0.4784 8 1.06667V1.6ZM5 1.6V1.06667H7V1.6H5ZM6.35498 6.87542C6.26501 6.91103 6.13501 6.93647 6.00001 6.93647C5.86501 6.93647 5.73501 6.91103 5.61501 6.86538L1.25e-05 4.96458V8.84236C1.25e-05 9.61487 0.615013 10.24 1.37501 10.24H10.625C11.385 10.24 12 9.61487 12 8.84236V4.96458L6.35498 6.87542Z" fill="#DADFE4"/>
</svg>
