<svg width="1265" height="4006" viewBox="0 0 1265 4006" fill="none" xmlns="http://www.w3.org/2000/svg">
<path opacity="0.723121" d="M489 4000C487.417 4027.72 464.583 3929 463 3901C461.417 3873 515.5 3803.42 604.5 3719C693.5 3634.58 664 3513.5 672.485 3513.5C680.97 3513.5 961.5 3360 1003 3268.5C1044.5 3177 1052 3041 1044 2956.7C1036 2872.39 905.288 2769 830.515 2716C755.742 2663 587 2429.12 558.5 2381.86C530 2334.59 517.5 2254.83 522 2158.95C526.5 2063.07 636.812 2019 664 2014C691.188 2009 830.515 2014 905.288 2019C980.061 2024 1100 1971 1100 1971C1100 1971 1173 1932.16 1207.08 1886.51C1241.16 1840.87 1264 1779.06 1264 1756.42C1264 1733.78 1261.79 1695.43 1235 1630.15C1208.2 1564.88 1012.4 1548.46 978 1540.84C943.602 1533.21 637.206 1514.66 556 1484.68C474.794 1454.69 106.31 1442.03 66.0001 1401C25.6902 1359.97 -19.2251 1237.47 11.989 1198.59C43.203 1159.72 276.25 1122.8 312.625 1104.62C349 1086.43 517.401 1086 568.5 1036C619.599 986 727.561 698.922 727.281 676.461C727 654 899.647 489 899.647 396.5C899.647 304 1032.47 266.538 1059.78 182.812C1087.09 99.0865 1044.3 26.7246 1017.39 18.5352C990.481 10.3457 942.479 -5.79883 871.182 4.9707" stroke="#E1E6F3" stroke-width="2" stroke-linecap="round" stroke-dasharray="10 10"/>
</svg>
