<svg width="16" height="16" viewBox="0 0 16 16" fill="none" xmlns="http://www.w3.org/2000/svg">
<path fill-rule="evenodd" clip-rule="evenodd" d="M10.6027 6.65378H5.39727V5.37698C5.39727 3.97042 6.56579 2.80724 7.99994 2.80724C9.43406 2.80724 10.6027 3.97042 10.6027 5.37698V6.65378ZM8.88433 10.8187V12.7536C8.88433 12.9752 8.69467 13.1626 8.46797 13.1626H7.53203C7.30533 13.1626 7.11567 12.9752 7.11567 12.7536V10.8187C6.89588 10.6069 6.7678 10.3142 6.7678 9.99045C6.7678 9.37686 7.25266 8.84949 7.86928 8.82519C7.9346 8.82252 8.0654 8.82252 8.13072 8.82519C8.74738 8.84949 9.23221 9.37686 9.23221 9.99045C9.23221 10.3142 9.10415 10.6069 8.88433 10.8187ZM12.7197 6.65378H12.4407V5.37698C12.4407 3.01566 10.5251 1.04297 8.13072 1.00084C8.0654 0.999721 7.9346 0.999721 7.86928 1.00084C5.47482 1.04297 3.55926 3.01566 3.55926 5.37698V6.65378H3.28029C2.8506 6.65378 2.5 7.0876 2.5 7.62339V14.027C2.5 14.5621 2.8506 15 3.28029 15H12.7197C13.1494 15 13.5 14.5621 13.5 14.027V7.62339C13.5 7.0876 13.1494 6.65378 12.7197 6.65378Z" fill="#DADFE4"/>
</svg>
