<svg width="16" height="16" viewBox="0 0 16 16" fill="none" xmlns="http://www.w3.org/2000/svg">
<path fill-rule="evenodd" clip-rule="evenodd" d="M5.14257 6.94809C5.51716 8.51809 7.53995 10.4618 9.03833 10.8356C9.71257 10.9852 10.4617 10.6114 10.6865 9.93851C10.9862 8.96663 12.2598 8.66759 13.009 9.41516L15.1067 11.5085C15.6311 12.0318 15.6311 12.9289 15.1067 13.527L13.6832 14.9475C12.1849 16.4427 8.21424 14.7979 4.69309 11.2842C1.17192 7.77043 -0.401329 3.80812 1.02211 2.31294L2.44555 0.892493C2.96998 0.369169 3.86897 0.369169 4.46834 0.892493L6.56604 2.98576C7.31522 3.73339 7.01555 5.00432 6.04162 5.30336C5.36732 5.52761 4.91782 6.27525 5.14257 6.94809Z" fill="#DADFE4"/>
</svg>
