<svg xmlns="http://www.w3.org/2000/svg" width="16" height="16" viewBox="0 0 16 16">
    <defs>
        <filter id="zeseb6qgca">
            <feColorMatrix in="SourceGraphic" values="0 0 0 0 1.000000 0 0 0 0 1.000000 0 0 0 0 1.000000 0 0 0 1.000000 0"/>
        </filter>
    </defs>
    <g fill="none" fill-rule="evenodd">
        <g filter="url(#zeseb6qgca)">
            <path fill="#FFF" d="M15.958 5.668c-.105-.317-.393-.542-.731-.572l-4.619-.41L8.783.506C8.648.197 8.34 0 8 0s-.648.198-.782.505L5.393 4.686l-4.62.41c-.338.03-.625.255-.731.572-.105.317-.008.664.248.884L3.78 9.547l-1.03 4.436c-.074.326.055.663.332.859.148.105.323.158.498.158.15 0 .302-.04.436-.118L8 12.552l3.982 2.33c.292.17.66.155.935-.04.277-.196.406-.533.331-.86l-1.03-4.435 3.492-2.995c.256-.22.353-.567.248-.884"/>
        </g>
    </g>
</svg>
