<svg width="48" height="41" viewBox="0 0 48 41" fill="none" xmlns="http://www.w3.org/2000/svg">
<path fill-rule="evenodd" clip-rule="evenodd" d="M20.6279 5.10812C21.1753 6.22583 20.6679 7.60539 19.4567 8.08947C16.6047 9.24492 14.4949 10.7354 13.0889 12.5627C11.3698 14.8358 10.4311 17.8554 10.353 21.6195H17.6976C18.9874 21.6195 20.0423 22.6258 20.0423 23.8558V38.5045C20.0423 39.7349 18.9874 40.7418 17.6976 40.7418H2.34467C1.05488 40.7418 0 39.7349 0 38.5045V27.0608C0 21.5081 0.547465 17.1472 1.5623 13.9404C2.57909 10.774 4.45444 7.90357 7.2284 5.4049C9.49444 3.28082 12.3465 1.5304 15.666 0.187184C16.8391 -0.296896 18.167 0.187184 18.7144 1.26809L20.6279 5.10812ZM47.7782 5.10735C48.3312 6.23319 47.8186 7.62277 46.5964 8.11037C43.7182 9.27422 41.5891 10.7755 40.1702 12.6161C38.4355 14.9058 37.4887 17.9473 37.4094 21.7387H44.8616C46.1632 21.7387 47.2277 22.7524 47.2277 23.9913V38.7464C47.2277 39.9858 46.1632 41 44.8616 41H29.3662C28.0646 41 27.0001 39.9858 27.0001 38.7464V27.2196C27.0001 21.5881 27.5141 17.1955 28.5382 14.0423C29.5643 10.8511 31.4953 7.95973 34.2946 5.40629C36.6203 3.30573 39.4601 1.54024 42.771 0.189141C43.9553 -0.298457 45.2948 0.189141 45.8473 1.27791L47.7782 5.10735Z" fill="#F4F6FD"/>
</svg>
