<svg width="226" height="171" viewBox="0 0 226 171" fill="none" xmlns="http://www.w3.org/2000/svg">
<mask id="mask0" mask-type="alpha" maskUnits="userSpaceOnUse" x="7" y="47" width="47" height="80">
<path fill-rule="evenodd" clip-rule="evenodd" d="M7 47.5586H53.485V126.661H7V47.5586Z" fill="white"/>
</mask>
<g mask="url(#mask0)">
<path opacity="0.1516" fill-rule="evenodd" clip-rule="evenodd" d="M42.4309 126.661C42.4309 126.661 52.755 120.824 53.4438 112.484C54.1326 104.145 46.0104 102.477 42.4309 99.558C38.8515 96.6394 38.7139 93.998 38.5763 89.1334C38.4387 84.2688 36.9242 79.1263 31.5557 74.2618C26.1872 69.3965 25.6361 67.5902 26.3249 61.0575C27.0129 54.5249 22.6078 46.3241 17.101 47.7143C11.595 49.1038 11.1821 57.8603 12.2837 63.4203C13.3847 68.9797 12.0078 74.9565 9.39238 79.1263C6.77695 83.2955 5.67534 90.6625 9.39238 95.3882C13.1094 100.114 15.5872 104.284 13.7975 109.287C12.0078 114.291 6.50171 116.237 12.8342 126.661H42.4309Z" fill="#CDD3E3"/>
</g>
<path fill-rule="evenodd" clip-rule="evenodd" d="M160.757 125.876H177.33C177.33 125.876 178.871 112.127 178.614 100.971C178.358 89.8165 177.715 72.1752 170.778 72.6943C163.84 73.2134 155.875 91.2435 160.757 125.876Z" fill="#F5F5F5"/>
<path fill-rule="evenodd" clip-rule="evenodd" d="M169.551 125.876C169.551 125.876 185.68 89.5562 198.655 96.6908C211.631 103.825 184.73 126.057 184.73 126.057L169.551 125.876Z" fill="#F0F0F0"/>
<path fill-rule="evenodd" clip-rule="evenodd" d="M167.616 126.058C167.616 126.058 168.673 114.241 164.27 102.15C159.867 90.0592 154.408 82.8445 148.245 85.1552C142.081 87.4672 142.609 103.194 150.886 125.876L167.616 126.058Z" fill="#E7E7E7"/>
<path opacity="0.277832" fill-rule="evenodd" clip-rule="evenodd" d="M177.329 125.876C177.329 125.876 184.345 114.774 188.22 104.284C192.094 93.7933 192.974 85.97 189.452 84.014C185.931 82.058 169.377 100.18 167.616 126.058L177.329 125.876Z" fill="#CDD3E3"/>
<path fill-rule="evenodd" clip-rule="evenodd" d="M155.906 125.876C155.906 125.876 146.836 90.4418 131.339 95.7627C115.841 101.084 143.623 126.058 143.623 126.058H156.697" fill="#F0F0F0"/>
<path fill-rule="evenodd" clip-rule="evenodd" d="M184.828 116.208C184.828 116.208 186.712 104.56 201.465 90.0809C216.218 75.602 220.663 64.8701 218.03 50.2817C218.03 50.2817 231.489 69.3593 222.78 92.8198C214.07 116.28 200.563 124.134 189.47 127.223C178.376 130.312 184.828 116.208 184.828 116.208Z" fill="#ECECEC"/>
<path opacity="0.277832" fill-rule="evenodd" clip-rule="evenodd" d="M184.828 116.208C184.828 116.208 186.712 104.56 201.465 90.0809C216.218 75.602 220.663 64.8701 218.03 50.2817C218.03 50.2817 231.489 69.3593 222.78 92.8198C214.07 116.28 200.563 124.134 189.47 127.223C178.376 130.312 184.828 116.208 184.828 116.208Z" fill="#CDD3E3"/>
<path opacity="0.38072" d="M185.014 127.393C188.003 119.521 192.559 114.894 197.667 110.2C199.539 108.481 201.488 106.753 203.461 104.852C204.808 103.558 206.166 102.183 207.518 100.676L207.522 100.672C208.926 99.1097 210.324 97.4089 211.702 95.507V95.503C213.08 93.6085 214.434 91.5122 215.745 89.1614L215.749 89.1574C216.001 88.7078 216.253 88.2475 216.501 87.7752C216.825 87.1667 217.13 86.5608 217.416 85.9589C225.006 70.1045 220.944 56.6317 218.751 51.4077C218.121 49.9047 217.644 49.083 217.644 49.083" stroke="#F4F6FD" stroke-width="2"/>
<path opacity="0.38072" d="M212.654 76.9517C212.654 76.9517 216.717 80.2664 217.415 85.962" stroke="#F4F6FD" stroke-width="2"/>
<path opacity="0.38072" d="M211.702 95.5068V95.5035C211.563 92.0865 208.573 87.105 206.826 84.4717" stroke="#F4F6FD" stroke-width="2"/>
<path opacity="0.38072" d="M198.577 93.0522C199.947 95.2374 202.797 100.218 203.461 104.852" stroke="#F4F6FD" stroke-width="2"/>
<path opacity="0.38072" d="M197.667 110.2C197.667 110.2 206.168 108.868 213.006 111.13" stroke="#F4F6FD" stroke-width="2"/>
<path opacity="0.38072" d="M220.573 98.221C214.8 97.555 207.722 100.588 207.521 100.672L207.519 100.675" stroke="#F4F6FD" stroke-width="2"/>
<path opacity="0.38072" d="M224.937 85.0352C220.253 85.8355 215.906 89.0427 215.749 89.1569L215.745 89.1609" stroke="#F4F6FD" stroke-width="2"/>
<path fill-rule="evenodd" clip-rule="evenodd" d="M105.965 67.4272C104.199 66.9452 104.163 64.6772 104.163 64.6772L105.859 65.0178C105.859 65.0178 105.697 66.1332 105.965 67.4272Z" fill="black"/>
<g filter="url(#filter0_d)">
<path fill-rule="evenodd" clip-rule="evenodd" d="M187.889 24.9568V120.279C187.889 123.216 185.495 125.604 182.547 125.604H38.0363C35.0898 125.604 32.6992 123.216 32.6992 120.279V24.9568C32.6992 22.0197 35.0898 19.6328 38.0363 19.6328H182.547C185.495 19.6328 187.889 22.0197 187.889 24.9568Z" fill="white"/>
</g>
<path fill-rule="evenodd" clip-rule="evenodd" d="M83.456 88.0498C83.456 88.0498 74.6026 101.197 71.8498 103.813C71.8498 103.813 57.0179 105.152 50.9133 100.972L49.3684 104.753C49.3684 104.753 63.4528 112.698 73 110.751C82.5465 108.803 89.603 90.4427 89.603 90.4427L83.456 88.0498Z" fill="#FCB9A3"/>
<path fill-rule="evenodd" clip-rule="evenodd" d="M126.461 80.2241C126.461 80.2241 134.919 82.535 140.191 82.9747C140.191 82.9747 144.139 73.7668 144.829 65.4014L147.831 65.5693C147.831 65.5693 150.593 81.8573 143.356 88.4613C138.351 93.0289 121.662 84.5629 121.662 84.5629L126.461 80.2241Z" fill="#FCB9A3"/>
<path fill-rule="evenodd" clip-rule="evenodd" d="M102.655 44.2789C102.655 44.2789 91.1974 43.176 90.01 54.8191C88.8227 66.4628 93.4162 75.9424 93.4162 75.9424C93.4162 75.9424 100.349 90.0054 108.754 88.0502C117.159 86.0951 124.283 81.5586 122.799 73.9647C121.314 66.3715 118.545 66.6664 118.644 56.115C118.742 45.5636 108.789 39.4469 102.655 44.2789Z" fill="#30090A"/>
<path fill-rule="evenodd" clip-rule="evenodd" d="M115.166 60.9705C113.968 66.8109 111.294 69.137 105.86 68.6914C105.86 68.6914 105.697 69.8075 105.965 71.1008C106.286 72.6407 107.21 74.4325 109.749 74.8676C114.42 75.6637 111.85 81.6191 111.85 81.6191L107.221 83.8976L101.109 80.3879L96.5002 75.4488L98.1293 75.4594C98.1293 75.4594 101.272 70.7186 98.1035 62.7412C98.1035 62.7412 95.8176 61.526 95.681 58.8699C95.5437 56.2145 98.2872 56.0671 99.3226 57.0576C99.3226 57.0576 104.036 55.0092 103.332 47.0894C103.332 47.0894 107.988 50.562 113.942 49.551C113.942 49.551 116.364 55.1249 115.166 60.9705Z" fill="#FCB9A3"/>
<path fill-rule="evenodd" clip-rule="evenodd" d="M129.322 79.9603L124.144 91.358L121.383 90.3603C121.383 90.3603 121.662 111.058 119.408 121.688H92.3826L90.8284 93.4468L89.4149 96.3937L79.4338 90.8245C79.4338 90.8245 82.1873 79.5814 86.483 77.5912C88.534 76.6398 92.9066 75.9177 97.4013 75.4483C102.335 74.9339 107.423 74.7263 109.75 74.8664C109.75 74.8664 110.171 74.8526 110.922 74.8757C113.842 74.9703 121.75 75.6374 129.322 79.9603Z" fill="#002F9C"/>
<path fill-rule="evenodd" clip-rule="evenodd" d="M144.829 66.6257C144.829 66.6257 143.322 64.705 142.82 61.762C142.707 61.0975 142.671 60.4469 142.683 59.8378C142.729 57.5592 144.815 56.0968 147.093 56.0164C148.003 55.9843 148.792 56.644 148.92 57.5459L149.362 60.6386C149.362 60.6386 149.916 63.9307 147.83 66.7937L144.829 66.6257Z" fill="#FCB9A3"/>
<path fill-rule="evenodd" clip-rule="evenodd" d="M51.5491 101.332L48.1216 96.0123C46.1642 95.3323 44.0028 96.1752 43.0224 98.0007L42.3096 99.3282L44.4667 102.276C44.4667 102.276 47.7522 104.836 49.8098 104.902L51.5491 101.332Z" fill="#FCB9A3"/>
<path fill-rule="evenodd" clip-rule="evenodd" d="M108.194 74.8237C108.149 81.9527 106.405 88.5898 106.405 88.5898C102.422 84.7595 98.474 77.777 97.4014 75.4483C102.335 74.9339 107.423 73.5013 109.75 73.6414C109.75 73.6414 112.514 75.4258 113.265 75.4483L108.194 74.8237Z" fill="#FCB9A3"/>
<path fill-rule="evenodd" clip-rule="evenodd" d="M96.7666 113.878C96.608 116.724 98.4388 125.493 98.4388 125.493L122.232 125.428L120.386 115.229L96.7666 113.878Z" fill="#1A1820"/>
<path fill-rule="evenodd" clip-rule="evenodd" d="M91.934 113.539C90.7771 116.711 89.7344 125.493 89.7344 125.493L112.09 125.483L113.43 114.832L91.934 113.539Z" fill="#28262D"/>
<mask id="mask1" mask-type="alpha" maskUnits="userSpaceOnUse" x="32" y="19" width="156" height="12">
<path fill-rule="evenodd" clip-rule="evenodd" d="M32.7 19.6313H187.89V30.8178H32.7V19.6313Z" fill="white"/>
</mask>
<g mask="url(#mask1)">
<path fill-rule="evenodd" clip-rule="evenodd" d="M187.89 24.9581V30.8177H32.7V24.9581C32.7 22.0178 35.0892 19.6309 38.0384 19.6309H182.547C185.497 19.6309 187.89 22.0178 187.89 24.9581Z" fill="#DFE8F3"/>
</g>
<path fill-rule="evenodd" clip-rule="evenodd" d="M76.7112 45.1637V61.7241C76.7112 64.0951 74.7862 66.0139 72.4128 66.0139H57.0562C53.6607 67.1783 54.2922 70.9068 54.923 72.9241C51.5739 70.2773 52.0747 66.0139 52.0747 66.0139H29.9999C27.6213 66.0139 25.6963 64.0951 25.6963 61.7241V45.1637C25.6963 42.7933 27.6213 40.8745 29.9999 40.8745H72.4128C74.7862 40.8745 76.7112 42.7933 76.7112 45.1637Z" fill="#F4F6FD"/>
<path fill-rule="evenodd" clip-rule="evenodd" d="M29.4065 47.1564H72.7381V44.8667H29.4065V47.1564Z" fill="#DFE8F3"/>
<path fill-rule="evenodd" clip-rule="evenodd" d="M29.4065 51.3581H72.7381V49.0684H29.4065V51.3581Z" fill="#DFE8F3"/>
<path fill-rule="evenodd" clip-rule="evenodd" d="M29.4065 55.5602H72.7381V53.2705H29.4065V55.5602Z" fill="#DFE8F3"/>
<path fill-rule="evenodd" clip-rule="evenodd" d="M106.385 71.1011V89.2649L120.145 80.1826L106.385 71.1011Z" fill="#FAFAFA"/>
<defs>
<filter id="filter0_d" x="0.699219" y="0.632812" width="219.19" height="169.971" filterUnits="userSpaceOnUse" color-interpolation-filters="sRGB">
<feFlood flood-opacity="0" result="BackgroundImageFix"/>
<feColorMatrix in="SourceAlpha" type="matrix" values="0 0 0 0 0 0 0 0 0 0 0 0 0 0 0 0 0 0 127 0"/>
<feOffset dy="13"/>
<feGaussianBlur stdDeviation="16"/>
<feColorMatrix type="matrix" values="0 0 0 0 0.884025 0 0 0 0 0.898978 0 0 0 0 0.951313 0 0 0 1 0"/>
<feBlend mode="normal" in2="BackgroundImageFix" result="effect1_dropShadow"/>
<feBlend mode="normal" in="SourceGraphic" in2="effect1_dropShadow" result="shape"/>
</filter>
</defs>
</svg>
