<svg width="184" height="193" viewBox="0 0 184 193" fill="none" xmlns="http://www.w3.org/2000/svg">
<mask id="mask0" mask-type="alpha" maskUnits="userSpaceOnUse" x="102" y="61" width="53" height="73">
<path fill-rule="evenodd" clip-rule="evenodd" d="M127.298 62.1493C120.032 65.0916 117.51 73.4305 114.07 85.4289C108.629 104.405 111.751 111.287 105.709 121.77C104.896 123.181 104.012 124.491 103.082 125.706C100.084 129.62 103.788 135.09 108.545 133.775C112.238 132.755 115.417 131.656 118.046 130.644C125.847 127.641 143.645 120.543 151.751 105.326C152.48 103.958 156.989 95.4948 153.919 91.8028C152.406 89.9822 149.994 90.4582 148.473 88.1341C146.984 85.8601 148.066 83.5297 148.372 80.0165C148.747 75.7058 147.978 69.3344 144.772 65.609C142.177 62.5933 137.739 61.0254 133.378 61.0254C131.259 61.0254 129.159 61.3954 127.298 62.1493Z" fill="white"/>
</mask>
<g mask="url(#mask0)">
<path opacity="0.277832" fill-rule="evenodd" clip-rule="evenodd" d="M127.298 62.1493C120.032 65.0916 117.51 73.4305 114.07 85.4289C108.629 104.405 111.751 111.287 105.709 121.77C104.896 123.181 104.012 124.491 103.082 125.706C100.084 129.62 103.788 135.09 108.545 133.775C112.238 132.755 115.417 131.656 118.046 130.644C125.847 127.641 143.645 120.543 151.751 105.326C152.48 103.958 156.989 95.4948 153.919 91.8028C152.406 89.9822 149.994 90.4582 148.473 88.1341C146.984 85.8601 148.066 83.5297 148.372 80.0165C148.747 75.7058 147.978 69.3344 144.772 65.609C142.177 62.5933 137.739 61.0254 133.378 61.0254C131.259 61.0254 129.159 61.3954 127.298 62.1493Z" fill="#CDD3E3"/>
</g>
<path fill-rule="evenodd" clip-rule="evenodd" d="M83.0795 137.956L83.0332 137.549C90.7007 136.704 97.5238 135.108 103.313 132.807C111.846 129.416 117.871 124.573 121.22 118.413C123.844 113.587 124.783 108.133 126.082 100.585C127.12 94.5599 127.304 90.1965 127.466 86.3468C127.678 81.3115 127.846 77.3343 129.842 72.0062C131.868 66.5999 135.166 61.5511 139.646 56.9998L139.944 57.2849C135.505 61.795 132.238 66.7957 130.232 72.148C128.258 77.4157 128.092 81.3645 127.881 86.3638C127.718 90.2257 127.534 94.6028 126.492 100.654C125.235 107.955 124.242 113.721 121.586 118.606C118.19 124.853 112.094 129.759 103.469 133.187C97.6444 135.502 90.7845 137.106 83.0795 137.956Z" fill="white"/>
<path fill-rule="evenodd" clip-rule="evenodd" d="M127.009 96.4264L126.824 96.284C126.788 96.2568 123.251 93.503 120.318 88.4491C117.611 83.7847 114.874 76.1468 117.206 66.2485L117.611 66.3411C115.31 76.1101 118.009 83.645 120.679 88.2458C123.193 92.5779 126.145 95.1874 126.898 95.814C132.957 85.9797 140.516 80.7626 145.807 78.1146C151.585 75.2225 155.992 74.6825 156.036 74.6774L156.084 75.0842C156.041 75.0891 151.693 75.6244 145.977 78.4885C140.704 81.1309 133.154 86.3534 127.13 96.2282L127.009 96.4264Z" fill="white"/>
<path fill-rule="evenodd" clip-rule="evenodd" d="M123.704 112.619L123.653 112.479C123.628 112.413 121.165 105.762 117.371 99.5711C113.601 93.4203 102.228 88.7316 102.113 88.685L102.272 88.3064C102.388 88.3536 113.886 93.0932 117.726 99.3593C121.235 105.085 123.612 111.2 123.99 112.199C137.36 111.571 158.037 86.3545 158.245 86.099L158.569 86.3551C158.517 86.4196 153.245 92.8724 146.376 99.2966C137.131 107.943 129.553 112.424 123.855 112.614L123.704 112.619Z" fill="white"/>
<mask id="mask1" mask-type="alpha" maskUnits="userSpaceOnUse" x="99" y="100" width="62" height="43">
<path fill-rule="evenodd" clip-rule="evenodd" d="M131.694 109.96C124.428 116.331 123.983 118.658 118.67 123.155C114.726 126.493 108.539 130.656 99.001 133.677C105.721 137.57 114.843 141.58 125.23 142.593C127.88 142.852 144.255 144.45 146.132 137.726C146.793 135.358 145.097 133.957 145.926 130.776C146.907 127.006 149.916 126.559 153.708 123.325C155.97 121.396 162.591 115.749 160.59 109.391C159.395 105.591 155.174 101.71 150.972 100.453C149.987 100.158 149.034 100.017 148.094 100.017C143.153 100.017 138.581 103.921 131.694 109.96Z" fill="white"/>
</mask>
<g mask="url(#mask1)">
<path fill-rule="evenodd" clip-rule="evenodd" d="M102.455 133.767C98.2531 133.767 94.1353 133.183 90.1158 132.012C82.3224 129.743 75.1787 125.448 68.8828 119.248L69.1796 118.954C75.4252 125.104 82.5091 129.364 90.2345 131.613C100.525 134.61 111.482 133.727 122.802 128.989C134.595 124.054 143.828 116.172 149.496 110.429C153.416 106.458 156.192 101.167 157.747 94.7048L158.156 94.8012C156.583 101.338 153.771 106.694 149.797 110.72C144.102 116.49 134.824 124.41 122.966 129.372C115.971 132.3 109.109 133.767 102.455 133.767Z" fill="white"/>
</g>
<mask id="mask2" mask-type="alpha" maskUnits="userSpaceOnUse" x="99" y="100" width="62" height="43">
<path fill-rule="evenodd" clip-rule="evenodd" d="M131.694 109.96C124.428 116.331 123.983 118.658 118.67 123.155C114.726 126.493 108.539 130.656 99.001 133.677C105.721 137.57 114.843 141.58 125.23 142.593C127.88 142.852 144.255 144.45 146.132 137.726C146.793 135.358 145.097 133.957 145.926 130.776C146.907 127.006 149.916 126.559 153.708 123.325C155.97 121.396 162.591 115.749 160.59 109.391C159.395 105.591 155.174 101.71 150.972 100.453C149.987 100.158 149.034 100.017 148.094 100.017C143.153 100.017 138.581 103.921 131.694 109.96Z" fill="white"/>
</mask>
<g mask="url(#mask2)">
<path fill-rule="evenodd" clip-rule="evenodd" d="M137.081 121.336L137.051 121.151C137.029 121.015 134.971 107.454 143.683 98.762L143.982 99.0548C135.973 107.045 137.229 119.253 137.441 120.901C157.051 119.845 163.023 109.278 164.39 106.056C164.428 105.966 164.453 105.91 164.465 105.891L164.827 106.102L164.646 105.997L164.829 106.098C164.82 106.116 164.803 106.157 164.778 106.217C163.383 109.506 157.277 120.317 137.27 121.326L137.081 121.336Z" fill="white"/>
</g>
<path opacity="0.429385" fill-rule="evenodd" clip-rule="evenodd" d="M118.67 123.155C114.726 126.493 108.539 130.656 99.001 133.677C105.721 137.57 114.843 141.58 125.23 142.593C127.88 142.852 144.255 144.45 146.132 137.726C146.793 135.358 145.097 133.957 145.926 130.776C146.907 127.006 149.916 126.559 153.708 123.325C155.97 121.396 162.591 115.749 160.59 109.391C159.395 105.591 155.174 101.71 150.972 100.453C149.987 100.158 149.034 100.017 148.094 100.017C143.153 100.017 138.581 103.921 131.694 109.96C124.428 116.331 123.983 118.658 118.67 123.155Z" fill="white"/>
<mask id="mask3" mask-type="alpha" maskUnits="userSpaceOnUse" x="99" y="100" width="62" height="43">
<path fill-rule="evenodd" clip-rule="evenodd" d="M118.67 123.155C114.726 126.493 108.539 130.656 99.001 133.677C105.721 137.57 114.843 141.58 125.23 142.593C127.88 142.852 144.255 144.45 146.132 137.726C146.793 135.358 145.097 133.957 145.926 130.776C146.907 127.006 149.916 126.559 153.708 123.325C155.97 121.396 162.591 115.749 160.59 109.391C159.395 105.591 155.174 101.71 150.972 100.453C149.987 100.158 149.034 100.017 148.094 100.017C143.153 100.017 138.581 103.921 131.694 109.96C124.428 116.331 123.983 118.658 118.67 123.155Z" fill="white"/>
</mask>
<g mask="url(#mask3)">
<path fill-rule="evenodd" clip-rule="evenodd" d="M142.492 136.959C142.469 136.959 142.446 136.959 142.423 136.959C138.014 136.945 131.057 135.599 122.951 129.261L122.862 129.192L122.871 129.081C122.88 128.977 123.8 118.582 131.143 107.926L138.54 97.1915L138.888 97.4257L131.491 108.16C124.617 118.134 123.42 127.868 123.301 129.005C127.727 132.448 134.61 136.52 142.424 136.543C142.446 136.543 142.469 136.543 142.491 136.543C147.14 136.543 149.938 135.086 149.966 135.071L150.165 135.438C150.047 135.5 147.244 136.959 142.492 136.959Z" fill="white"/>
</g>
<mask id="mask4" mask-type="alpha" maskUnits="userSpaceOnUse" x="31" y="25" width="92" height="125">
<path fill-rule="evenodd" clip-rule="evenodd" d="M31 31.2809V144.01C31 147.393 33.813 149.956 37.3734 149.962H37.3977C37.582 149.962 37.7674 149.955 37.9555 149.941L117.018 143.971C120.33 143.721 123 140.854 123 137.566V33.6147C123 30.3267 120.33 27.5789 117.018 27.4768L37.9555 25.0392C37.8773 25.0367 37.799 25.0355 37.7215 25.0355C33.9976 25.0353 31 27.7879 31 31.2809Z" fill="white"/>
</mask>
<g mask="url(#mask4)">
<path fill-rule="evenodd" clip-rule="evenodd" d="M31 31.2809V144.01C31 147.393 33.813 149.956 37.3734 149.962H37.3977C37.582 149.962 37.7674 149.955 37.9555 149.941L117.018 143.971C120.33 143.721 123 140.854 123 137.566V33.6147C123 30.3267 120.33 27.5789 117.018 27.4768L37.9555 25.0392C37.8773 25.0367 37.799 25.0355 37.7215 25.0355C33.9976 25.0353 31 27.7879 31 31.2809Z" fill="#DFE8F3"/>
</g>
<g filter="url(#filter0_d)">
<path fill-rule="evenodd" clip-rule="evenodd" d="M33 144.565V30.6042C33 28.5503 34.8198 26.9376 37.057 27.0019L118.502 29.3429C120.437 29.3984 122 30.9843 122 32.8852V138.355C122 140.256 120.437 141.911 118.502 142.052L37.057 147.988C34.8198 148.151 33 146.619 33 144.565Z" fill="white"/>
</g>
<mask id="mask5" mask-type="alpha" maskUnits="userSpaceOnUse" x="31" y="25" width="92" height="13">
<path fill-rule="evenodd" clip-rule="evenodd" d="M31 31.3215V35.9827L123 37.9686V33.6703C123 30.3611 120.33 27.5955 117.018 27.4928L37.9555 25.0394C37.8774 25.037 37.7991 25.0358 37.7216 25.0358C33.9977 25.0355 31 27.8059 31 31.3215Z" fill="white"/>
</mask>
<g mask="url(#mask5)">
<path fill-rule="evenodd" clip-rule="evenodd" d="M31 31.3215V35.9827L123 37.9686V33.6703C123 30.3611 120.33 27.5955 117.018 27.4928L37.9555 25.0394C37.8774 25.037 37.7991 25.0358 37.7216 25.0358C33.9977 25.0355 31 27.8059 31 31.3215Z" fill="#DFE8F3"/>
</g>
<path fill-rule="evenodd" clip-rule="evenodd" d="M43.5222 31.3731C43.5222 32.62 42.5251 33.6047 41.2928 33.5724C40.0578 33.54 39.0547 32.4989 39.0547 31.2472C39.0547 29.9954 40.0578 29.011 41.2928 29.0481C42.5251 29.0852 43.5222 30.1262 43.5222 31.3731Z" fill="white"/>
<path fill-rule="evenodd" clip-rule="evenodd" d="M51.2858 31.5918C51.2858 32.8304 50.302 33.8087 49.0861 33.7768C47.8676 33.7448 46.8779 32.711 46.8779 31.4676C46.8779 30.2242 47.8676 29.2462 49.0861 29.2829C50.302 29.3195 51.2858 30.3532 51.2858 31.5918Z" fill="white"/>
<path fill-rule="evenodd" clip-rule="evenodd" d="M58.9451 31.8077C58.9451 33.0381 57.9743 34.01 56.7745 33.9785C55.5722 33.947 54.5957 32.9202 54.5957 31.6851C54.5957 30.4501 55.5722 29.4783 56.7745 29.5145C57.9743 29.5507 58.9451 30.5773 58.9451 31.8077Z" fill="white"/>
<path fill-rule="evenodd" clip-rule="evenodd" d="M79.0679 65.0398C66.897 65.7566 57 75.9753 57 87.8619C57 99.7483 66.897 108.742 79.0679 107.952C91.1974 107.164 101 96.9514 101 85.138C101 73.7644 91.915 64.9994 80.4139 65C79.9691 65 79.5195 65.0132 79.0679 65.0398Z" fill="#CA0010"/>
<path fill-rule="evenodd" clip-rule="evenodd" d="M88.5519 97.985C87.9177 98.0592 87.2805 97.8586 86.7923 97.364L69.8342 80.1843C68.7219 79.0573 68.7219 77.1476 69.8342 75.9357C70.9379 74.7333 72.7088 74.6864 73.7901 75.8143L90.2882 93.0268C91.2373 94.017 91.2373 95.7744 90.2882 96.9662C89.8111 97.5653 89.1829 97.9113 88.5519 97.985Z" fill="white"/>
<path fill-rule="evenodd" clip-rule="evenodd" d="M71.8262 99.9823C71.1086 100.065 70.3872 99.8599 69.8342 99.3459C68.7219 98.3121 68.7219 96.4339 69.8342 95.1675L86.7923 75.8617C87.767 74.752 89.332 74.7112 90.2882 75.7562C91.2373 76.7935 91.2373 78.5218 90.2882 79.6306L73.7901 98.9033C73.2505 99.5336 72.5402 99.9002 71.8262 99.9823Z" fill="white"/>
<defs>
<filter id="filter0_d" x="1" y="8" width="153" height="185" filterUnits="userSpaceOnUse" color-interpolation-filters="sRGB">
<feFlood flood-opacity="0" result="BackgroundImageFix"/>
<feColorMatrix in="SourceAlpha" type="matrix" values="0 0 0 0 0 0 0 0 0 0 0 0 0 0 0 0 0 0 127 0"/>
<feOffset dy="13"/>
<feGaussianBlur stdDeviation="16"/>
<feColorMatrix type="matrix" values="0 0 0 0 0.884025 0 0 0 0 0.898978 0 0 0 0 0.951313 0 0 0 1 0"/>
<feBlend mode="normal" in2="BackgroundImageFix" result="effect1_dropShadow"/>
<feBlend mode="normal" in="SourceGraphic" in2="effect1_dropShadow" result="shape"/>
</filter>
</defs>
</svg>
