<svg width="16" height="16" viewBox="0 0 16 16" fill="none" xmlns="http://www.w3.org/2000/svg">
<path fill-rule="evenodd" clip-rule="evenodd" d="M6.13387 9.90521C3.94806 9.90568 2.17577 8.16945 2.17433 6.02664C2.17385 3.88312 3.94482 2.14548 6.13111 2.14513C8.31451 2.14431 10.086 3.87724 10.0902 6.01782C10.0939 8.16122 8.32387 9.90156 6.13663 9.90521H6.13387ZM11.1466 9.49439C13.1061 6.78205 12.4508 3.02666 9.6842 1.10643C6.91807 -0.813442 3.08742 -0.171445 1.12901 2.54089C-0.829875 5.25312 -0.175033 9.00816 2.59194 10.9281C4.56642 12.2986 7.17679 12.4043 9.25951 11.1984L13.7844 15.6079C14.2732 16.1125 15.0861 16.1327 15.6003 15.6533C16.1145 15.1749 16.1352 14.3781 15.6471 13.8734C15.6317 13.8579 15.6167 13.8432 15.6003 13.828L11.1466 9.49439Z" fill="#DADFE4"/>
</svg>
