<svg xmlns="http://www.w3.org/2000/svg" xmlns:xlink="http://www.w3.org/1999/xlink" width="42" height="99" viewBox="0 0 42 99">
    <defs>
        <path id="nwdsqjjrla" d="M0 0.047L48 0.047 48 36 0 36z"/>
        <path id="lmmirggn2c" d="M42.387 6L52 6 52 34 42.387 34z"/>
    </defs>
    <g fill="none" fill-rule="evenodd">
        <g>
            <g transform="rotate(-90 49.5 49) translate(49.5 .5)">
                <mask id="6haqf7198b" fill="#fff">
                    <use xlink:href="#nwdsqjjrla"/>
                </mask>
                <path fill="#FFE6E8" d="M34.416 10.53H22.804L19.02 6.755c-2.161-2.159-5.587-2.345-7.971-.447l-8.601 6.87c-.282.228-.448.57-.448.932v14.313c0 .483.292.919.74 1.103l.415.17C6.959 31.224 10.993 32 15.142 32h4.778c1.976 0 3.584-1.605 3.584-3.578 0-.464-.088-.91-.251-1.319 1.521-.413 2.64-1.805 2.64-3.452 0-.464-.088-.91-.25-1.318.675-.184 1.272-.56 1.725-1.068.57-.633.915-1.47.915-2.385 0-.418-.072-.82-.205-1.193h6.338c1.976 0 3.584-1.605 3.584-3.578 0-1.973-1.608-3.578-3.584-3.578" mask="url(#6haqf7198b)"/>
            </g>
            <g transform="rotate(-90 49.5 49) translate(.5 1.5)">
                <path fill="#002E9D" d="M8.473 39C3.683 39 0 33.304 0 32.444V7.556C0 6.696 2.296 0 7.086 0c25.12 4.951 37.679 8.284 37.679 10v20.271c0 1.716-12.098 4.626-36.292 8.729z"/>
                <mask id="tvst7eaubd" fill="#fff">
                    <use xlink:href="#lmmirggn2c"/>
                </mask>
                <path fill="#1146C6" d="M47.193 34H43.99c-.886 0-1.602-.696-1.602-1.556V7.556c0-.86.716-1.556 1.602-1.556h3.204C49.843 6 52 8.093 52 10.667v18.666C52 31.907 49.844 34 47.193 34" mask="url(#tvst7eaubd)"/>
            </g>
        </g>
    </g>
</svg>
