<svg width="16" height="16" viewBox="0 0 16 16" fill="none" xmlns="http://www.w3.org/2000/svg">
<path fill-rule="evenodd" clip-rule="evenodd" d="M10.4746 6.97461C9.79434 7.65519 8.96155 8 7.99999 8C7.0385 8 6.20589 7.65505 5.52548 6.97475C4.8449 6.29429 4.49999 5.46165 4.49999 4.49988C4.49999 3.53835 4.84489 2.70575 5.52534 2.02528C6.20564 1.34495 7.03821 1 7.99999 1C8.96145 1 9.79402 1.34495 10.4745 2.02528C11.155 2.70586 11.5 3.53849 11.5 4.49988C11.5 5.46165 11.155 6.29429 10.4746 6.97461ZM13.845 11.0206C13.9028 11.3241 13.942 11.6116 13.9615 11.8751C13.9807 12.1326 13.9904 12.4014 13.9905 12.674C13.9905 13.3803 13.752 13.9519 13.2816 14.3732C12.817 14.7891 12.2027 15 11.4553 15H4.53509C3.78782 15 3.17323 14.789 2.70874 14.3732C2.23846 13.9516 2 13.38 2 12.6741C2 12.4029 2.00958 12.1342 2.02863 11.8755C2.04811 11.6113 2.08726 11.3237 2.14512 11.0206C2.20337 10.7148 2.27849 10.4257 2.36842 10.1615C2.46133 9.88815 2.58772 9.61845 2.74365 9.35994C2.90554 9.0918 3.09593 8.85836 3.30944 8.66605C3.53302 8.4647 3.80656 8.30298 4.12267 8.1852C4.43761 8.06785 4.7867 8.00825 5.16049 8.00825C5.30712 8.00825 5.44909 8.06501 5.72284 8.23281C5.89404 8.33778 6.0914 8.45747 6.30944 8.58866C6.49751 8.70152 6.7526 8.80727 7.0673 8.90286C7.37498 8.99651 7.68695 9.04395 7.99491 9.04395C8.30284 9.04395 8.61498 8.99651 8.92228 8.90286C9.23733 8.80714 9.49232 8.70138 9.68063 8.58852C9.90074 8.45605 10.0981 8.33636 10.2667 8.23294C10.5407 8.06501 10.6826 8.00838 10.8293 8.00838C11.2028 8.00838 11.5521 8.06785 11.8673 8.1852C12.1835 8.30311 12.4569 8.46484 12.6803 8.66592C12.8939 8.85809 13.0843 9.09167 13.2462 9.35994C13.4024 9.61845 13.5288 9.88825 13.6216 10.1613C13.7116 10.4256 13.7867 10.7148 13.845 11.0206Z" fill="#DADFE4"/>
</svg>
