<svg width="96" height="82" viewBox="0 0 96 82" fill="none" xmlns="http://www.w3.org/2000/svg">
<path id="Combined Shape" fill-rule="evenodd" clip-rule="evenodd" d="M41.2555 10.2162C42.3504 12.4517 41.3356 15.2108 38.9132 16.1789C33.2091 18.4898 28.9895 21.4707 26.1775 25.1253C22.7393 29.6717 20.862 35.7108 20.7058 43.2389H35.395C37.9746 43.2389 40.0844 45.2517 40.0844 47.7117V77.009C40.0844 79.4699 37.9746 81.4836 35.395 81.4836H4.6891C2.10952 81.4836 -0.000244141 79.4699 -0.000244141 77.009V54.1216C-0.000244141 43.0162 1.09469 34.2944 3.12436 27.8807C5.15794 21.5481 8.90864 15.8071 14.4565 10.8098C18.9886 6.56164 24.6928 3.0608 31.3318 0.374368C33.6779 -0.593791 36.3337 0.374368 37.4286 2.53619L41.2555 10.2162ZM95.5562 10.2147C96.6621 12.4664 95.637 15.2455 93.1925 16.2207C87.4362 18.5484 83.178 21.551 80.3402 25.2322C76.8707 29.8115 74.9772 35.8945 74.8185 43.4774H89.7229C92.3261 43.4774 94.4552 45.5048 94.4552 47.9826V77.4929C94.4552 79.9717 92.3261 82 89.7229 82H58.7322C56.129 82 54 79.9717 54 77.4929V54.4392C54 43.1761 55.028 34.3909 57.0763 28.0845C59.1284 21.7021 62.9903 15.9195 68.589 10.8126C73.2404 6.61146 78.9199 3.08048 85.5417 0.378281C87.9103 -0.596914 90.5893 0.378281 91.6943 2.55581L95.5562 10.2147Z" fill="#F4F6FD"/>
</svg>
