<svg width="640" height="7338" viewBox="0 0 640 7338" fill="none" xmlns="http://www.w3.org/2000/svg">
<path id="Path 3" opacity="0.723121" d="M326.254 7335.77C346.726 7185.5 337.549 7026.23 341.038 7026.23C345.339 7026.23 487.554 6719.23 508.592 6536.23C529.631 6353.23 533.433 6081.23 529.377 5912.62C525.322 5744.02 459.057 5537.23 421.151 5431.23C383.245 5325.23 297.701 4857.48 283.253 4762.95C268.805 4668.42 262.468 4508.89 264.749 4317.12C267.031 4125.36 322.953 4037.23 336.736 4027.23C350.519 4017.23 421.151 4027.23 459.057 4037.23C496.963 4047.23 557.766 3941.23 557.766 3941.23C557.766 3941.23 594.774 3863.54 612.05 3772.26C629.327 3680.98 640.906 3557.34 640.906 3512.07C640.906 3466.8 639.785 3390.09 626.203 3259.54C612.62 3128.99 513.357 3096.16 495.919 3080.91C478.48 3065.66 323.153 3028.56 281.986 2968.59C240.818 2908.61 54.0154 2883.29 33.5803 2801.23C13.1452 2719.17 -9.6246 2474.17 6.19937 2396.42C22.0233 2318.67 140.166 2244.84 158.607 2208.47C177.047 2172.09 262.418 2171.23 288.323 2071.23C314.227 1971.23 368.959 1397.07 368.816 1352.15C368.674 1307.23 456.197 977.231 456.197 792.231C456.197 607.231 523.532 532.308 537.377 364.856C551.221 197.404 529.532 52.6802 515.889 36.3013C502.246 19.9224 477.911 -12.3667 441.767 9.17236" stroke="#E1E6F3" stroke-width="2" stroke-linecap="round" stroke-dasharray="10 10"/>
</svg>
