<svg width="321" height="421" viewBox="0 0 321 421" fill="none" xmlns="http://www.w3.org/2000/svg">
<path fill-rule="evenodd" clip-rule="evenodd" d="M208 407.898L196.215 408L193 381.102L204.786 381L208 407.898Z" fill="#FCB9A3"/>
<path fill-rule="evenodd" clip-rule="evenodd" d="M193 381.102L194.6 395L206 394.898L204.4 381L193 381.102Z" fill="#F0AE98"/>
<path fill-rule="evenodd" clip-rule="evenodd" d="M304 378.977L293.722 385L277 363.022L287.278 357L304 378.977Z" fill="#FCB9A3"/>
<path fill-rule="evenodd" clip-rule="evenodd" d="M277.137 363.213L285.656 374.558L295.819 368.525L287.301 357.178L277.137 363.213Z" fill="#F0AE98"/>
<mask id="mask0_0_2162" style="mask-type:luminance" maskUnits="userSpaceOnUse" x="171" y="406" width="43" height="15">
<path fill-rule="evenodd" clip-rule="evenodd" d="M171.034 406.796H213.202V420.54H171.034V406.796Z" fill="white"/>
</mask>
<g mask="url(#mask0_0_2162)">
<path fill-rule="evenodd" clip-rule="evenodd" d="M197.434 406.592L207.176 406.507C207.54 406.504 207.875 406.752 207.981 407.104L210.335 414.948C210.58 415.761 210.014 416.539 209.171 416.532C205.652 416.503 200.559 416.343 196.142 416.382C190.978 416.427 188.674 416.745 182.618 416.798C178.956 416.829 177.663 413.169 179.171 412.823C186.035 411.249 189.585 411.037 195.337 407.299C195.962 406.893 196.664 406.598 197.434 406.592Z" fill="#CA0010"/>
</g>
<path fill-rule="evenodd" clip-rule="evenodd" d="M213.178 81.9472C211.62 90.9196 209.657 99.5347 207.272 108.234C206.081 112.57 204.765 116.891 203.323 121.199C202.571 123.355 201.862 125.514 201.01 127.661C200.602 128.735 200.196 129.808 199.74 130.884L199.074 132.498L198.741 133.303L198.561 133.73L198.312 134.279C196.955 137.177 195.561 139.201 194.105 141.199C192.658 143.164 191.183 144.983 189.691 146.753C186.705 150.274 183.588 153.538 180.443 156.738C174.114 163.112 167.535 169.034 160.593 174.7L154.307 168.44C159.672 161.607 165.09 154.721 170.318 147.897C172.934 144.485 175.464 141.032 177.843 137.614C179.022 135.907 180.152 134.193 181.15 132.519C182.126 130.872 183.06 129.154 183.441 128.023C183.518 127.849 183.725 127.18 183.87 126.738L184.347 125.266C184.675 124.294 184.968 123.288 185.261 122.285C185.86 120.293 186.426 118.254 186.996 116.229C188.08 112.137 189.104 108.003 190.096 103.843C192.018 95.5363 193.871 87.0202 195.556 78.7526L213.178 81.9472Z" fill="#FCB9A3"/>
<path fill-rule="evenodd" clip-rule="evenodd" d="M217.344 83.5853C216.632 97.067 210.102 115.992 210.102 115.992L191.766 109.069L184.217 106.222C184.217 106.222 185.277 93.7873 190.524 80.1382C196.064 65.7633 209.041 62.2604 215.683 72.8391C217.176 75.2256 217.581 79.1054 217.344 83.5853Z" fill="#F29F2F"/>
<path fill-rule="evenodd" clip-rule="evenodd" d="M217.344 83.5853C216.632 97.067 210.102 115.992 210.102 115.992L191.766 109.069C192.715 104.924 194.082 100.054 196.022 95.0294C200.613 83.055 210.381 78.6309 217.344 83.5853Z" fill="#E69324"/>
<path fill-rule="evenodd" clip-rule="evenodd" d="M157.306 167.2L144.849 169.232L144.754 181.449C144.754 181.449 156.705 179.767 161.375 174.044L157.306 167.2Z" fill="#FCB9A3"/>
<path fill-rule="evenodd" clip-rule="evenodd" d="M138.779 172.962C135.409 175.033 133.41 178.754 133.544 182.707L133.599 184.339L147.138 181.449L144.849 169.232L138.779 172.962Z" fill="#FCB9A3"/>
<path fill-rule="evenodd" clip-rule="evenodd" d="M204.247 169.232C204.247 169.232 186.513 233.814 181.809 269.956C176.917 307.549 188.446 388.172 188.446 388.172L209.779 387.72C209.779 387.72 211.35 305.533 218.356 268.566C225.996 228.265 240.56 168.459 240.56 168.459L204.247 169.232Z" fill="#1F1F1F"/>
<path fill-rule="evenodd" clip-rule="evenodd" d="M294.555 383.628L303.311 378.364C303.638 378.168 304.073 378.218 304.355 378.487L310.639 384.469C311.29 385.089 311.191 386.108 310.426 386.549C307.232 388.396 302.547 390.96 298.577 393.346C293.935 396.136 292.023 397.655 286.579 400.927C283.288 402.906 280.179 400.218 281.359 399.096C286.726 393.991 289.82 391.905 293.036 385.396C293.386 384.689 293.864 384.044 294.555 383.628Z" fill="#CA0010"/>
<path fill-rule="evenodd" clip-rule="evenodd" d="M226.305 168.762C226.305 168.762 226.33 232.207 227.967 268.617C229.668 306.49 276.967 371.671 276.967 371.671L295.178 360.549C295.178 360.549 263.229 298.531 263.719 260.909C264.253 219.893 267.425 167.886 267.425 167.886L226.305 168.762Z" fill="#1A1820"/>
<path fill-rule="evenodd" clip-rule="evenodd" d="M202.772 67.1085C202.772 67.1085 189.591 103.079 204.247 169.233C223.283 168.826 258.162 168.084 267.424 167.886C267.653 158.178 260.552 110.991 268.933 65.089C268.933 65.089 258.057 63.1463 247.727 62.8686C239.646 62.6523 227.954 62.6439 220.871 63.4422C211.533 64.4959 202.772 67.1085 202.772 67.1085Z" fill="#F29F2F"/>
<path fill-rule="evenodd" clip-rule="evenodd" d="M244.422 32.6816C242.912 41.3595 241.558 57.2318 247.727 62.8687C247.727 62.8687 245.552 71.7309 229.495 72.0281C216.673 72.2654 220.87 63.4423 220.87 63.4423C230.458 60.9358 230.057 53.7902 228.235 47.1108L244.422 32.6816Z" fill="#FCB9A3"/>
<path fill-rule="evenodd" clip-rule="evenodd" d="M237.823 38.5692L228.242 47.1034C228.678 48.6847 229.026 50.2896 229.172 51.8541C232.842 51.2428 237.813 47.0937 238.121 43.2306C238.275 41.3046 238.155 39.4583 237.823 38.5692Z" fill="#F0AE98"/>
<path fill-rule="evenodd" clip-rule="evenodd" d="M254.836 87.9532L265.379 95.5412C264.91 103.629 264.776 111.479 264.851 118.852C258.381 112.347 254.771 100.384 254.836 87.9532Z" fill="#E69324"/>
<path fill-rule="evenodd" clip-rule="evenodd" d="M245.423 58.568C245.423 58.568 242.394 65.8405 228.251 72.0399C228.251 72.0399 235.602 74.6385 238.187 82.2362C238.187 82.2362 248.484 72.506 251.223 62.7437L245.423 58.568Z" fill="#FFB95B"/>
<path fill-rule="evenodd" clip-rule="evenodd" d="M217.695 79.6003C217.695 79.6003 222.018 73.3201 228.253 72.0389C226.062 69.3649 223.804 63.4168 225.897 60.606C225.897 60.606 222.435 61.5243 220.586 62.6171C220.586 62.6171 212.095 67.7111 217.695 79.6003Z" fill="#FFB95B"/>
<path fill-rule="evenodd" clip-rule="evenodd" d="M216.451 7.87426C210.685 10.3389 207.832 25.8595 215.337 29.2383C222.842 32.6171 227.371 3.20732 216.451 7.87426Z" fill="#002F9C"/>
<path fill-rule="evenodd" clip-rule="evenodd" d="M245.172 19.6538C244.704 31.3714 245.023 38.2532 239.242 44.3855C230.546 53.6105 215.989 48.5584 212.948 36.9371C210.21 26.477 211.438 9.07086 222.791 4.17086C233.978 -0.657966 245.641 7.93623 245.172 19.6538Z" fill="#FCB9A3"/>
<path fill-rule="evenodd" clip-rule="evenodd" d="M270.953 73.3969C273.599 77.1874 275.917 80.9109 278.297 84.7251C280.672 88.5128 282.885 92.4038 285.08 96.3157C289.417 104.172 293.47 112.237 296.913 120.806C297.359 121.86 297.751 122.971 298.157 124.062L298.762 125.703L299.069 126.548L299.438 127.689C300.353 130.761 300.635 133.978 300.382 136.973C299.895 143.017 297.656 148.06 295.066 152.379C292.43 156.7 289.327 160.405 285.987 163.734C284.331 165.413 282.573 166.959 280.781 168.447C278.967 169.953 277.212 171.313 275.124 172.702L269.45 165.883C270.692 164.429 272.103 162.761 273.362 161.15C274.64 159.516 275.836 157.829 277.001 156.16C279.296 152.796 281.327 149.343 282.788 145.92C284.235 142.511 285.071 139.111 284.932 136.367C284.859 134.991 284.592 133.795 284.147 132.704L283.026 130.219C282.602 129.287 282.204 128.355 281.729 127.421C278.137 119.95 273.973 112.524 269.604 105.19C265.273 97.8718 260.664 90.4862 256.119 83.43L270.953 73.3969Z" fill="#FCB9A3"/>
<path fill-rule="evenodd" clip-rule="evenodd" d="M268.932 65.0897C279.97 67.4874 295.853 101.536 295.853 101.536L266.288 115.988C266.288 115.988 258.252 104.079 253.298 90.3447C248.109 75.9532 257.109 62.5218 268.932 65.0897Z" fill="#F29F2F"/>
<g filter="url(#filter0_d_0_2162)">
<path fill-rule="evenodd" clip-rule="evenodd" d="M258.421 152.665L288.172 240.445C290.594 247.588 286.731 255.411 279.589 257.833L79.8558 325.549C72.7141 327.971 64.8914 324.108 62.4704 316.965L32.7189 229.185C32.1398 227.477 31.9165 225.717 32.0267 224.014C32.3393 218.599 35.8697 213.639 41.302 211.797L241.036 144.08C246.457 142.242 252.285 144.03 255.823 148.129C256.949 149.424 257.838 150.944 258.421 152.665Z" fill="white"/>
</g>
<path fill-rule="evenodd" clip-rule="evenodd" d="M255.822 148.129L173.201 221.999C164.813 229.497 153.734 233.254 142.516 232.403L32.0273 224.014C32.3399 218.6 35.8689 213.639 41.3012 211.797L241.035 144.08C246.456 142.242 252.286 144.031 255.822 148.129Z" fill="#E8ECF6"/>
<path fill-rule="evenodd" clip-rule="evenodd" d="M272.439 164.137L259.741 164.219L267.564 177.053C267.564 177.053 276.615 174.853 277.443 170.313L272.439 164.137Z" fill="#FCB9A3"/>
<path fill-rule="evenodd" clip-rule="evenodd" d="M257.955 165.912C254.402 169.276 253.807 174.717 256.547 178.77C257.8 180.624 260.269 181.201 262.214 180.095L267.563 177.053C267.563 177.053 268.467 171.239 266.211 167.538C263.956 163.837 259.742 164.22 259.742 164.22L257.955 165.912Z" fill="#FCB9A3"/>
<mask id="mask1_0_2162" style="mask-type:luminance" maskUnits="userSpaceOnUse" x="211" y="-1" width="43" height="37">
<path fill-rule="evenodd" clip-rule="evenodd" d="M211.361 -0.00189209H253.724V35.3025H211.361V-0.00189209Z" fill="white"/>
</mask>
<g mask="url(#mask1_0_2162)">
<path fill-rule="evenodd" clip-rule="evenodd" d="M253.165 10.2746C255.976 17.9156 247.52 35.6287 242.599 35.298C237.679 34.9672 236.359 16.5618 239.143 11.98C236.488 13.2068 211.183 13.2473 211.362 10.5258C211.995 0.843042 229.184 -2.6767 248.012 2.14236C252.92 1.96372 254.748 3.3063 253.165 10.2746Z" fill="#002F9C"/>
</g>
<path fill-rule="evenodd" clip-rule="evenodd" d="M250.732 32.4404C249.13 35.1661 246.417 36.898 243.893 37.5093C240.095 38.4304 238.331 35 239.499 31.4858C240.551 28.322 243.795 24.0318 247.553 24.6752C251.255 25.3088 252.564 29.324 250.732 32.4404Z" fill="#FCB9A3"/>
<defs>
<filter id="filter0_d_0_2162" x="-0.000488281" y="124.359" width="320.896" height="246.914" filterUnits="userSpaceOnUse" color-interpolation-filters="sRGB">
<feFlood flood-opacity="0" result="BackgroundImageFix"/>
<feColorMatrix in="SourceAlpha" type="matrix" values="0 0 0 0 0 0 0 0 0 0 0 0 0 0 0 0 0 0 127 0" result="hardAlpha"/>
<feOffset dy="13"/>
<feGaussianBlur stdDeviation="16"/>
<feColorMatrix type="matrix" values="0 0 0 0 0.392805 0 0 0 0 0.392805 0 0 0 0 0.392805 0 0 0 0.115057 0"/>
<feBlend mode="normal" in2="BackgroundImageFix" result="effect1_dropShadow_0_2162"/>
<feBlend mode="normal" in="SourceGraphic" in2="effect1_dropShadow_0_2162" result="shape"/>
</filter>
</defs>
</svg>
