<svg width="240" height="156" viewBox="0 0 240 156" fill="none" xmlns="http://www.w3.org/2000/svg">
<path fill-rule="evenodd" clip-rule="evenodd" d="M125 111H154V149.834C154 151.583 152.564 153 150.792 153H128.208C126.436 153 125 151.583 125 149.834V111Z" fill="#EDF0F7"/>
<path fill-rule="evenodd" clip-rule="evenodd" d="M125 111H154V129L125 122.376V111Z" fill="#E0E5F1"/>
<path fill-rule="evenodd" clip-rule="evenodd" d="M113 59.6407C113 37.1955 94.6436 19 72 19C49.3564 19 31 37.1955 31 59.6407V111H113V59.6407Z" fill="#E9EDF5"/>
<g filter="url(#filter0_d_0_2033)">
<path fill-rule="evenodd" clip-rule="evenodd" d="M208 59.6336V105.933C208 108.732 205.737 111 202.944 111H112.546V59.6336C112.546 50.2267 109.366 41.5826 104.002 34.6964C96.5932 25.1377 85.0086 19 72 19H167.454C180.463 19 192.047 25.1377 199.457 34.6964C204.82 41.5826 208 50.2267 208 59.6336Z" fill="white"/>
</g>
<path fill-rule="evenodd" clip-rule="evenodd" d="M208 96H112V82H208V96Z" fill="#F7FAFF"/>
<path fill-rule="evenodd" clip-rule="evenodd" d="M208 77H112V63H208V77Z" fill="#F7FAFF"/>
<mask id="mask0_0_2033" style="mask-type:luminance" maskUnits="userSpaceOnUse" x="157" y="14" width="27" height="74">
<path fill-rule="evenodd" clip-rule="evenodd" d="M183.453 14.0341H157.415V87.5347H183.453V14.0341Z" fill="white"/>
</mask>
<g mask="url(#mask0_0_2033)">
<path fill-rule="evenodd" clip-rule="evenodd" d="M161.527 73.2698V15.6181C161.527 14.6404 162.403 13.8962 163.366 14.0556L183.453 17.3806V25.7284H168.1V73.1353C170.689 74.33 172.49 76.9449 172.49 79.9874C172.49 84.1556 169.115 87.5347 164.953 87.5347C160.79 87.5347 157.415 84.1556 157.415 79.9874C157.415 77.0552 159.088 74.5193 161.527 73.2698Z" fill="#EDF0F7"/>
</g>
<path fill-rule="evenodd" clip-rule="evenodd" d="M106.267 117H2.86632C1.28326 117 0 115.657 0 114C0 112.343 1.28326 111 2.86632 111H112C112 114.314 109.433 117 106.267 117Z" fill="#E1E6F2"/>
<path fill-rule="evenodd" clip-rule="evenodd" d="M107.25 117H64.8745C63.2869 117 62 115.657 62 114C62 112.343 63.2869 111 64.8745 111H113C113 114.314 110.425 117 107.25 117Z" fill="#D7DEEE"/>
<defs>
<filter id="filter0_d_0_2033" x="40" y="0" width="200" height="156" filterUnits="userSpaceOnUse" color-interpolation-filters="sRGB">
<feFlood flood-opacity="0" result="BackgroundImageFix"/>
<feColorMatrix in="SourceAlpha" type="matrix" values="0 0 0 0 0 0 0 0 0 0 0 0 0 0 0 0 0 0 127 0" result="hardAlpha"/>
<feOffset dy="13"/>
<feGaussianBlur stdDeviation="16"/>
<feColorMatrix type="matrix" values="0 0 0 0 0.884025 0 0 0 0 0.898978 0 0 0 0 0.951313 0 0 0 1 0"/>
<feBlend mode="normal" in2="BackgroundImageFix" result="effect1_dropShadow_0_2033"/>
<feBlend mode="normal" in="SourceGraphic" in2="effect1_dropShadow_0_2033" result="shape"/>
</filter>
</defs>
</svg>
