<svg width="19" height="23" viewBox="0 0 19 23" fill="none" xmlns="http://www.w3.org/2000/svg">
    <path fill-rule="evenodd" clip-rule="evenodd" d="M16.15 11.1987C16.15 13.0787 16.9736 14.8533 18.4099 16.0674C18.7883 16.3912 19 16.8511 19 17.3375C19 18.2543 18.2544 19 17.3375 19H1.6625C0.74575 19 0 18.2543 0 17.3375C0 16.8511 0.211731 16.3912 0.581459 16.0748C2.02641 14.8532 2.85 13.0787 2.85 11.1987V8.55C2.85 5.20683 5.33247 2.43966 8.55 1.97606V0.95C8.55 0.424591 8.9756 0 9.5 0C10.0245 0 10.45 0.424591 10.45 0.95V1.97606C13.6667 2.43966 16.15 5.20683 16.15 8.55V11.1987ZM13.5715 19.9047C13.2285 21.451 11.7364 22.619 9.95241 22.619C8.16847 22.619 6.67628 21.451 6.33336 19.9047H13.5715Z" fill="#F29F2F"/>
</svg>
