<svg xmlns="http://www.w3.org/2000/svg" width="16" height="16" viewBox="0 0 16 16">
    <g fill="none" fill-rule="evenodd">
        <g fill="#CA0010">
            <path d="M12.86 3.888l-.69-.683c-.188-.187-.497-.187-.692 0L8.033 6.651l-3.511-3.51c-.187-.188-.496-.188-.69 0l-.692.69c-.187.187-.187.496 0 .69l3.503 3.504-3.438 3.453c-.187.187-.187.496 0 .691l.691.69c.187.188.496.188.691 0l3.446-3.445 3.445 3.446c.187.187.496.187.691 0l.69-.69c.188-.188.188-.497 0-.692L9.407 8.033l3.446-3.446c.195-.195.195-.504.008-.7"/>
        </g>
    </g>
</svg>
