<svg width="24" height="24" viewBox="0 0 24 24" fill="none" xmlns="http://www.w3.org/2000/svg">
<path fill-rule="evenodd" clip-rule="evenodd" d="M18.9286 3.08332H16.6938C16.4097 3.08332 16.1371 2.96916 15.9362 2.76598L15.4924 2.31728C15.2915 2.11411 15.0189 2 14.7348 2H10.2652C9.98105 2 9.70854 2.11411 9.50759 2.31728L9.06382 2.76598C8.86288 2.96916 8.59036 3.08332 8.3062 3.08332H6.07141C5.47968 3.08332 5 3.56833 5 4.16663C5 4.76494 5.47968 5.25 6.07141 5.25H18.9286C19.5203 5.25 20 4.76494 20 4.16663C20 3.56833 19.5203 3.08332 18.9286 3.08332ZM6.07141 19.25C6.07141 21.0449 7.51051 22.5 9.28571 22.5H15.7143C17.4895 22.5 18.9286 21.0449 18.9286 19.25V8.41663C18.9286 7.81833 18.4489 7.33332 17.8572 7.33332H7.14283C6.5511 7.33332 6.07141 7.81833 6.07141 8.41663V19.25Z" fill="#CA0010"/>
</svg>
