<svg width="16" height="12" viewBox="0 0 16 12" fill="none" xmlns="http://www.w3.org/2000/svg">
<path fill-rule="evenodd" clip-rule="evenodd" d="M15.6565 8.65133C15.3489 8.80197 14.9728 8.68279 14.8169 8.38348C13.6587 6.15882 11.0764 4.54545 8.00001 4.54545C4.92592 4.54545 2.34236 6.15688 1.18305 8.38345C1.02752 8.68227 0.651485 8.80218 0.343454 8.6513C0.0353293 8.50042 -0.0883581 8.13594 0.0672043 7.83712C0.756516 6.51318 1.84889 5.39167 3.22695 4.59224L1.53517 2.9517C1.29111 2.715 1.29111 2.33127 1.53514 2.09461C1.7792 1.85791 2.17495 1.85791 2.41905 2.09461L4.40376 4.01924C5.3392 3.64382 6.34326 3.418 7.37498 3.353V0.606061C7.37498 0.271333 7.65479 0 7.99998 0C8.34517 0 8.62498 0.271333 8.62498 0.606061V3.35303C9.6567 3.41803 10.6608 3.64385 11.5962 4.01927L13.5809 2.09464C13.8251 1.85797 14.2207 1.85797 14.4648 2.09464C14.7089 2.33133 14.7089 2.71506 14.4648 2.95173L12.773 4.59227C14.1511 5.3917 15.2434 6.51321 15.9328 7.83715C16.0884 8.13594 15.9647 8.50045 15.6565 8.65133ZM8.00001 10.7879C7.13845 10.7879 6.43754 10.1082 6.43754 9.27273C6.43754 8.43727 7.13845 7.75758 8.00001 7.75758C8.8616 7.75758 9.56248 8.43727 9.56248 9.27273C9.56248 10.1082 8.8616 10.7879 8.00001 10.7879ZM8.00001 6.54545C6.44923 6.54545 5.18758 7.76891 5.18758 9.27273C5.18758 10.7765 6.44923 12 8.00001 12C9.55079 12 10.8124 10.7765 10.8124 9.27273C10.8124 7.76891 9.55079 6.54545 8.00001 6.54545Z" fill="#002E9D"/>
</svg>
