<svg width="184" height="184" viewBox="0 0 184 184" fill="none" xmlns="http://www.w3.org/2000/svg">
<path opacity="0.277832" fill-rule="evenodd" clip-rule="evenodd" d="M104.662 127.6C111.339 128.539 118.256 128.519 124.705 126.535C131.154 124.55 137.113 120.453 140.471 114.591C143.829 108.729 144.249 101.046 140.745 95.2793C139.288 92.8806 137.218 90.8495 136.113 88.2681C135.008 85.6869 135.259 82.1474 137.677 80.7196C139.275 79.7765 141.288 80.042 143.092 80.4646C151.964 82.5426 160.743 87.7262 169.592 85.5337C174.66 84.2785 178.992 80.5705 181.347 75.9031C183.702 71.2358 184.573 65.5734 182.9 60.6245C178.343 47.1462 142.661 33.9458 128.277 41.6143C122.894 44.4842 118.884 49.5989 117.122 55.4457C115.361 61.2924 115.473 67.5435 116.17 73.6073C116.781 78.9175 117.612 84.9896 114.072 88.9951C112.092 91.2351 109.047 92.3186 106.066 92.4527C103.084 92.5869 100.132 91.8658 97.2803 90.987" fill="#CDD3E3"/>
<path fill-rule="evenodd" clip-rule="evenodd" d="M77.9043 137.18H92.9043V136.93H77.9043V137.18Z" fill="#D1E3FF"/>
<path fill-rule="evenodd" clip-rule="evenodd" d="M138.268 71.3594C138.268 71.3594 138.411 77.9514 143.897 77.9514C149.383 77.9514 149.526 71.3594 149.526 71.3594H138.268Z" fill="#F3F8FF"/>
<path fill-rule="evenodd" clip-rule="evenodd" d="M100.211 72.8149C100.211 72.8149 100.399 77.9517 107.614 77.9517C114.828 77.9517 115.017 72.8149 115.017 72.8149H100.211Z" fill="#E3EEFF"/>
<path fill-rule="evenodd" clip-rule="evenodd" d="M116.954 74.0918C116.954 74.0918 117.095 77.951 122.516 77.951C127.937 77.951 128.078 74.0918 128.078 74.0918H116.954Z" fill="#E3EEFF"/>
<mask id="mask0" mask-type="alpha" maskUnits="userSpaceOnUse" x="25" y="44" width="137" height="104">
<path fill-rule="evenodd" clip-rule="evenodd" d="M25.9043 147.555H161.757V44.8291H25.9043V147.555Z" fill="white"/>
</mask>
<g mask="url(#mask0)">
<path fill-rule="evenodd" clip-rule="evenodd" d="M93.1484 129.591H105.289V81.1567H93.1484V129.591Z" fill="#E3EEFF"/>
<path fill-rule="evenodd" clip-rule="evenodd" d="M110.062 103.017H152.912V85.8403H110.062V103.017Z" fill="#E3EEFF"/>
<path fill-rule="evenodd" clip-rule="evenodd" d="M136.298 87.723H126.678C126.026 87.723 125.493 87.1929 125.493 86.5453C125.493 85.8973 126.026 85.3677 126.678 85.3677H136.298C136.95 85.3677 137.482 85.8973 137.482 86.5453C137.482 87.1929 136.95 87.723 136.298 87.723Z" fill="#F3F8FF"/>
<path fill-rule="evenodd" clip-rule="evenodd" d="M136.298 108.032H126.678C126.026 108.032 125.493 107.502 125.493 106.854C125.493 106.206 126.026 105.676 126.678 105.676H136.298C136.95 105.676 137.482 106.206 137.482 106.854C137.482 107.502 136.95 108.032 136.298 108.032Z" fill="#F3F8FF"/>
<path fill-rule="evenodd" clip-rule="evenodd" d="M91.4521 81.1561H105.29V77.9512H91.4521V81.1561Z" fill="#D1E3FF"/>
<path fill-rule="evenodd" clip-rule="evenodd" d="M86.6367 132.91H89.6914V104.848H86.6367V132.91Z" fill="#D1E3FF"/>
<path fill-rule="evenodd" clip-rule="evenodd" d="M88.1641 132.91H89.6916V104.848H88.1641V132.91Z" fill="#F3F8FF"/>
<path fill-rule="evenodd" clip-rule="evenodd" d="M76.3372 112.708H74.2394C74.6857 112.326 74.9741 111.766 74.9741 111.134H50.111C50.111 111.766 50.3994 112.326 50.8457 112.708H48.7479C47.2021 112.708 45.9492 113.954 45.9492 115.491V123.616C45.9492 125.153 47.2021 126.4 48.7479 126.4H76.3372C77.883 126.4 79.1359 125.153 79.1359 123.616V115.491C79.1359 113.954 77.883 112.708 76.3372 112.708Z" fill="#F3F8FF"/>
<path fill-rule="evenodd" clip-rule="evenodd" d="M57.1025 92.3145C57.1025 92.3145 57.3879 101.603 68.3239 101.603C79.2599 101.603 79.5452 92.3145 79.5452 92.3145H57.1025Z" fill="#E3EEFF"/>
<path fill-rule="evenodd" clip-rule="evenodd" d="M97.2168 132.91H100.271V104.848H97.2168V132.91Z" fill="#F3F8FF"/>
<path fill-rule="evenodd" clip-rule="evenodd" d="M97.2168 132.91H98.7444V104.848H97.2168V132.91Z" fill="#D1E3FF"/>
<path fill-rule="evenodd" clip-rule="evenodd" d="M39.9453 101.603H45.888V99.6885H39.9453V101.603Z" fill="#E3EEFF"/>
</g>
<mask id="mask1" mask-type="alpha" maskUnits="userSpaceOnUse" x="25" y="44" width="122" height="101">
<path fill-rule="evenodd" clip-rule="evenodd" d="M25.9043 44.8296H146.804V144.711H25.9043V44.8296Z" fill="white"/>
</mask>
<g mask="url(#mask1)">
<path fill-rule="evenodd" clip-rule="evenodd" d="M26.3319 91.8259L49.3719 141.949C50.4617 144.317 53.299 145.368 55.6763 144.283L59.3341 142.616L144.031 103.992C146.408 102.907 147.464 100.084 146.375 97.7168L126.018 53.4351L123.334 47.5893C122.245 45.2214 119.412 44.1744 117.035 45.255L28.675 85.5512C26.2981 86.6358 25.247 89.4575 26.3319 91.8259Z" fill="#DFE8F3"/>
</g>
<path fill-rule="evenodd" clip-rule="evenodd" d="M71.4289 116.152L132.728 88.1977L128.665 79.3589L67.3662 107.313L71.4289 116.152Z" fill="#DCE9FF"/>
<path fill-rule="evenodd" clip-rule="evenodd" d="M39.5058 92.4563L59.3338 142.616L144.031 103.992C146.409 102.906 147.464 100.084 146.375 97.7168L126.018 53.4351L42.189 86.3157C39.7561 87.2683 38.5494 90.0334 39.5058 92.4563Z" fill="#C5D3E4"/>
<mask id="mask2" mask-type="alpha" maskUnits="userSpaceOnUse" x="42" y="54" width="120" height="94">
<path fill-rule="evenodd" clip-rule="evenodd" d="M42.2256 54.1484H161.757V147.702H42.2256V54.1484Z" fill="white"/>
</mask>
<g mask="url(#mask2)">
<path fill-rule="evenodd" clip-rule="evenodd" d="M45.4033 86.4874L137.09 54.4147C139.557 53.5519 142.284 54.8561 143.15 57.3135L161.49 109.326C162.356 111.784 161.046 114.5 158.579 115.363L66.8926 147.436C64.4255 148.299 61.6984 146.994 60.8317 144.537L42.4931 92.5244C41.6264 90.067 42.9362 87.3502 45.4033 86.4874Z" fill="#002F9C"/>
</g>
<path opacity="0.0596633" fill-rule="evenodd" clip-rule="evenodd" d="M57.4891 135.055L158.146 99.8449L150.169 77.2192L49.5117 112.43L57.4891 135.055Z" fill="white"/>
<path opacity="0.127209" fill-rule="evenodd" clip-rule="evenodd" d="M134.001 102.537L146.565 98.1418C147.947 97.6579 148.674 96.1497 148.189 94.7729C147.703 93.3961 146.189 92.6719 144.806 93.1553L132.242 97.5499C130.86 98.0338 130.133 99.542 130.618 100.919C131.104 102.296 132.618 103.021 134.001 102.537Z" fill="#DCE9FF"/>
<path opacity="0.127209" fill-rule="evenodd" clip-rule="evenodd" d="M112.488 110.062L125.052 105.667C126.434 105.183 127.162 103.675 126.676 102.298C126.19 100.922 124.676 100.197 123.293 100.681L110.73 105.075C109.347 105.559 108.62 107.067 109.106 108.445C109.591 109.821 111.106 110.546 112.488 110.062Z" fill="#DCE9FF"/>
<path opacity="0.127209" fill-rule="evenodd" clip-rule="evenodd" d="M90.9751 117.587L103.54 113.192C104.922 112.708 105.649 111.2 105.164 109.823C104.678 108.447 103.164 107.722 101.781 108.206L89.2169 112.6C87.8347 113.084 87.1076 114.592 87.5929 115.97C88.0782 117.346 89.5929 118.071 90.9751 117.587Z" fill="#DCE9FF"/>
<path opacity="0.127209" fill-rule="evenodd" clip-rule="evenodd" d="M69.4626 125.113L82.0266 120.718C83.4089 120.234 84.1364 118.726 83.6506 117.349C83.1649 115.972 81.6506 115.247 80.268 115.731L67.7044 120.126C66.3218 120.61 65.5946 122.118 66.0804 123.495C66.5658 124.872 68.08 125.597 69.4626 125.113Z" fill="#DCE9FF"/>
<path fill-rule="evenodd" clip-rule="evenodd" d="M132.888 92.471L144.065 88.5611C145.016 88.2287 145.516 87.1914 145.182 86.2454L142.853 79.6395C142.519 78.6926 141.478 78.195 140.528 78.5275L129.35 82.4373C128.4 82.7698 127.9 83.8066 128.233 84.7531L130.563 91.3589C130.897 92.3059 131.937 92.8035 132.888 92.471Z" fill="#5C7BC3"/>
</svg>
