<svg width="162" height="146" viewBox="0 0 162 146" fill="none" xmlns="http://www.w3.org/2000/svg">
<g opacity="0.497373">
<path fill-rule="evenodd" clip-rule="evenodd" d="M30 107H137V11H30V107Z" fill="#DFE8F3"/>
<path opacity="0.277832" fill-rule="evenodd" clip-rule="evenodd" d="M26 107H134V11H26V107Z" fill="#CDD3E3"/>
<path fill-rule="evenodd" clip-rule="evenodd" d="M30 110H137V107H30V110Z" fill="#DFE8F3"/>
<path fill-rule="evenodd" clip-rule="evenodd" d="M20 110H128V107H20V110Z" fill="#DFE8F3"/>
<g filter="url(#filter0_d)">
<path fill-rule="evenodd" clip-rule="evenodd" d="M32 101H130V19H32V101Z" fill="white"/>
</g>
<path fill-rule="evenodd" clip-rule="evenodd" d="M109 101L72.4268 19H35L71.5726 101H109Z" fill="white"/>
<path fill-rule="evenodd" clip-rule="evenodd" d="M125.191 86.2003C125.438 86.2003 125.638 85.9999 125.638 85.7537V21.4889C125.638 21.2415 125.438 21.0417 125.191 21.0417C124.943 21.0417 124.743 21.2415 124.743 21.4889V85.7537C124.743 85.9999 124.943 86.2003 125.191 86.2003Z" fill="#F0F0F0"/>
<path fill-rule="evenodd" clip-rule="evenodd" d="M31.9395 100.001H32.7353V17.4148H31.9395V100.001Z" fill="#E7E7E7"/>
<path fill-rule="evenodd" clip-rule="evenodd" d="M24.1904 26.0148H130.491L131.067 19.8481H24.767L24.1904 26.0148Z" fill="#F0F2F7"/>
<path fill-rule="evenodd" clip-rule="evenodd" d="M24.1904 36.1972H130.491L131.067 30.0305H24.767L24.1904 36.1972Z" fill="#F0F2F7"/>
<path fill-rule="evenodd" clip-rule="evenodd" d="M24.1904 46.3796H130.491L131.067 40.2129H24.767L24.1904 46.3796Z" fill="#F0F2F7"/>
<path fill-rule="evenodd" clip-rule="evenodd" d="M24.1904 56.5619H130.491L131.067 50.3952H24.767L24.1904 56.5619Z" fill="#F0F2F7"/>
<path fill-rule="evenodd" clip-rule="evenodd" d="M24.1904 66.7443H130.491L131.067 60.5775H24.767L24.1904 66.7443Z" fill="#F0F2F7"/>
<path fill-rule="evenodd" clip-rule="evenodd" d="M24.1904 76.9259H130.491L131.067 70.7599H24.767L24.1904 76.9259Z" fill="#F0F2F7"/>
</g>
<circle cx="56" cy="62" r="30" fill="#F4F6FD"/>
<path fill-rule="evenodd" clip-rule="evenodd" d="M50.9938 49.7579C51.0274 48.3943 52.2884 46.5999 57.3583 46.2769C62.4288 45.9539 64.3126 46.1891 66.408 50.1526C68.6667 54.4256 71.2481 59.196 69.5631 63.5742C67.8781 67.9525 62.5714 70.5195 58.7716 72.8327C54.9718 75.1465 49.3063 82.9166 49.3063 82.9166C49.3063 82.9166 38.7341 53.5975 50.9938 49.7579Z" fill="#1A2E35"/>
<path fill-rule="evenodd" clip-rule="evenodd" d="M50.9743 82.5729C49.7591 83.9946 48.5129 85.3556 47.2687 86.7341C46.0174 88.1042 44.7389 89.4477 43.4566 90.7926C42.1762 92.1407 40.8759 93.4694 39.5322 94.7685C38.1938 96.0733 36.8418 97.3684 35.4259 98.6403L35.6389 98.4129C35.3104 98.796 34.947 99.0867 34.5934 99.3108C34.2481 99.5188 33.9003 99.6867 33.5873 99.7953C32.9471 100.03 32.3786 100.132 31.8423 100.193C30.7736 100.31 29.8223 100.275 28.8982 100.203C27.0577 100.052 25.3449 99.699 23.658 99.3018C21.9781 98.8832 20.337 98.4007 18.7139 97.8794C17.0941 97.3335 15.5085 96.7703 13.9164 96.0998C13.2265 95.8097 12.9019 95.0146 13.1923 94.3234C13.4479 93.7149 14.0958 93.39 14.7192 93.5211L14.7444 93.5269C16.3384 93.8609 17.9692 94.2032 19.5832 94.4907C21.1959 94.8008 22.8119 95.0688 24.4143 95.2671C26.0096 95.4809 27.6081 95.6276 29.1053 95.6366C29.8481 95.6392 30.5754 95.5946 31.1608 95.4771C31.4505 95.4189 31.7042 95.3427 31.8429 95.2742C31.9236 95.2419 31.9455 95.2109 31.9578 95.2051C31.9526 95.198 31.91 95.2174 31.8539 95.2826L32.0675 95.0553C33.3343 93.7982 34.5831 92.4792 35.8208 91.1466L39.5226 87.1113L46.8847 78.962C47.8947 77.8445 49.619 77.7573 50.7361 78.7682C51.8339 79.7617 51.9365 81.445 50.982 82.5645L50.9743 82.5729Z" fill="#FF8C7B"/>
<path fill-rule="evenodd" clip-rule="evenodd" d="M51.0278 76.0553C47.2338 75.4352 45.5508 78.0604 43.7412 80.0564C44.171 83.5826 50.3877 90.8192 50.3877 90.8192C50.3877 90.8192 57.9221 77.1819 51.0278 76.0553Z" fill="#F4A017"/>
<path fill-rule="evenodd" clip-rule="evenodd" d="M45.9809 80.3884C46.4629 84.2292 48.2957 95.0153 53.4295 111.163L75.8295 107.847C74.2833 99.7166 72.1452 92.0375 73.1333 75.8557C73.2481 73.9708 71.7477 72.3799 69.8614 72.387C68.3454 72.3928 66.4739 72.4548 64.5263 72.6479C60.8949 73.0071 57.9237 73.3294 54.7963 74.0884C52.7293 74.5903 50.5428 75.2614 48.8772 75.8053C46.9373 76.439 45.7266 78.3614 45.9809 80.3884Z" fill="#F4A017"/>
<path fill-rule="evenodd" clip-rule="evenodd" d="M54.796 74.0884L64.5259 72.6479C64.5259 72.6479 64.0832 76.3854 57.9524 81.3017C53.2916 76.9752 54.796 74.0884 54.796 74.0884Z" fill="white"/>
<path fill-rule="evenodd" clip-rule="evenodd" d="M61.9412 61.8242C61.7908 65.0481 62.027 70.8811 64.5265 72.6477C64.5265 72.6477 62.5795 76.214 58.2466 78.8967C54.8469 77.4136 54.7959 74.0882 54.7959 74.0882C58.164 72.7375 57.6909 70.1576 56.7229 67.8128L61.9412 61.8242Z" fill="#FBD7CE"/>
<path fill-rule="evenodd" clip-rule="evenodd" d="M59.8139 64.2673L56.7246 67.8097C56.9563 68.3645 57.1557 68.9323 57.2803 69.4943C58.5858 69.1035 60.2011 67.3672 60.1359 65.9487C60.1037 65.2407 59.9752 64.5754 59.8139 64.2673Z" fill="#EFC6BC"/>
<path fill-rule="evenodd" clip-rule="evenodd" d="M64.3932 55.5867C63.9188 60.8641 63.8304 63.1075 61.0858 65.7449C56.9581 69.7117 50.5859 67.9748 49.4759 62.6618C48.4763 57.8805 49.4204 50.0541 54.6497 48.0975C59.8015 46.17 64.8675 50.3099 64.3932 55.5867Z" fill="#FBD7CE"/>
<path fill-rule="evenodd" clip-rule="evenodd" d="M60.3491 51.4807C59.8831 54.6388 61.7475 58.5042 63.3609 58.5455C64.9743 58.5862 66.1933 52.4852 66.1933 52.4852L60.3491 51.4807Z" fill="#1A2E35"/>
<path fill-rule="evenodd" clip-rule="evenodd" d="M51.3857 49.8658C54.8274 52.3056 65.0458 55.9662 65.2607 52.8081C65.4756 49.6501 61.2092 47.1024 58.0541 47.1024C54.8997 47.1024 52.3538 48.3582 51.3857 49.8658Z" fill="#1A2E35"/>
<path fill-rule="evenodd" clip-rule="evenodd" d="M65.5347 58.3869C65.274 59.4533 64.5454 60.3008 63.7671 60.7562C62.5964 61.4416 61.6678 60.4765 61.7052 59.1911C61.7394 58.0335 62.3893 56.2817 63.7032 56.1209C64.9971 55.962 65.8328 57.1667 65.5347 58.3869Z" fill="#FBD7CE"/>
<path fill-rule="evenodd" clip-rule="evenodd" d="M64.7969 136.087L70.4056 126.859L69.4466 120.369L64.7969 136.087Z" fill="black"/>
<path fill-rule="evenodd" clip-rule="evenodd" d="M69.6167 72.3872C73.4546 72.1598 74.9589 74.1784 76.5542 76.3501C75.7656 79.8124 71.5709 85.7338 71.5709 85.7338C71.5709 85.7338 62.6437 72.7999 69.6167 72.3872Z" fill="#F4A018"/>
<path fill-rule="evenodd" clip-rule="evenodd" d="M79.1926 64.0794C77.9606 76.7994 66.5326 86.13 53.6661 84.9102C44.9553 84.0849 37.8244 78.6364 34.5051 71.2564C32.922 67.7368 32.2056 63.7737 32.6038 59.6643C33.8365 46.9392 45.2638 37.6143 58.1303 38.8334C60.2265 39.0326 62.2279 39.4954 64.106 40.1937C65.9582 40.8741 67.693 41.7843 69.2768 42.8809C74.3638 46.3909 77.9238 51.8273 78.9777 58.0194C79.3139 59.9751 79.3933 62.0119 79.1926 64.0794ZM93.7558 25.5096L25.7111 19.0615C22.235 18.7315 19.1184 21.2751 18.7854 24.713L9.02902 125.414C8.696 128.852 11.2679 131.934 14.7433 132.263L82.7887 138.712C86.2648 139.041 89.3814 136.497 89.7144 133.06L99.4708 32.3592C99.8038 28.9213 97.2319 25.839 93.7558 25.5096Z" fill="white"/>
<path fill-rule="evenodd" clip-rule="evenodd" d="M64.9516 40.4961C63.0742 39.7978 60.2266 39.0326 58.1304 38.8335C45.2645 37.6144 33.8373 46.9392 32.6046 59.6643C32.2064 63.7737 32.9221 67.7369 34.5052 71.2565L12.54 89.1818L18.7861 24.7131C19.1191 21.2752 22.2357 18.7316 25.7118 19.0616L50.0846 21.3821L62.8973 28.5032L64.9516 40.4961Z" fill="#0029A0"/>
<path fill-rule="evenodd" clip-rule="evenodd" d="M99.4706 32.359L95.111 77.3577L78.9776 58.0192C77.9243 51.8271 74.3637 46.3907 69.2773 42.8807L90.8966 25.2388L93.7563 25.51C97.2324 25.8388 99.8036 28.9211 99.4706 32.359Z" fill="#0029A0"/>
<path fill-rule="evenodd" clip-rule="evenodd" d="M92.5097 25.3965L69.6245 43.1345C68.0407 42.0379 65.958 40.8737 64.105 40.1939L55.4762 29.8516L48.2568 21.1982L92.5097 25.3965Z" fill="#0029A0"/>
<path fill-rule="evenodd" clip-rule="evenodd" d="M72.6496 99.3079L32.263 95.4807C31.5866 95.4162 31.091 94.8226 31.1561 94.1537L31.3588 92.0607C31.4233 91.3924 32.0242 90.9022 32.7006 90.9667L73.0871 94.7939C73.7635 94.8571 74.2592 95.4513 74.194 96.1203L73.9913 98.2126C73.9268 98.8816 73.3259 99.3718 72.6496 99.3079Z" fill="#E0E5F1"/>
<path fill-rule="evenodd" clip-rule="evenodd" d="M68.7028 107.129L34.6366 103.9C33.9602 103.837 33.4645 103.242 33.5291 102.573L33.7317 100.481C33.7969 99.8121 34.3978 99.3226 35.0735 99.3864L69.1398 102.615C69.8168 102.679 70.3118 103.273 70.2473 103.942L70.0446 106.034C69.9801 106.703 69.3792 107.193 68.7028 107.129Z" fill="#EDF0F7"/>
<path fill-rule="evenodd" clip-rule="evenodd" d="M29.4127 121.293L19.2891 120.334L19.4478 118.695L29.5714 119.654L29.4127 121.293Z" fill="#F7FAFF"/>
<path fill-rule="evenodd" clip-rule="evenodd" d="M39.8589 122.283L31.6953 121.509L31.8541 119.87L40.0176 120.644L39.8589 122.283Z" fill="#F7FAFF"/>
<path fill-rule="evenodd" clip-rule="evenodd" d="M42.4016 126.245L18.9326 124.022L19.0914 122.382L42.5603 124.606L42.4016 126.245Z" fill="#F7FAFF"/>
<path fill-rule="evenodd" clip-rule="evenodd" d="M47.1775 119.255L19.6465 116.646L19.8053 115.007L47.3363 117.616L47.1775 119.255Z" fill="#F7FAFF"/>
<path fill-rule="evenodd" clip-rule="evenodd" d="M81.6185 125.413C81.3771 127.902 79.1415 129.727 76.6245 129.489C74.1074 129.25 72.2623 127.038 72.5036 124.549C72.7444 122.06 74.9807 120.235 77.4977 120.474C80.0147 120.712 81.8599 122.924 81.6185 125.413Z" fill="#F8F8FE"/>
<path fill-rule="evenodd" clip-rule="evenodd" d="M69.5052 124.265C69.2638 126.754 67.0282 128.579 64.5112 128.341C61.9942 128.102 60.149 125.891 60.3904 123.401C60.6317 120.912 62.8674 119.087 65.3844 119.326C67.9014 119.565 69.7466 121.776 69.5052 124.265Z" fill="#F8F8FE"/>
<defs>
<filter id="filter0_d" x="0" y="0" width="162" height="146" filterUnits="userSpaceOnUse" color-interpolation-filters="sRGB">
<feFlood flood-opacity="0" result="BackgroundImageFix"/>
<feColorMatrix in="SourceAlpha" type="matrix" values="0 0 0 0 0 0 0 0 0 0 0 0 0 0 0 0 0 0 127 0"/>
<feOffset dy="13"/>
<feGaussianBlur stdDeviation="16"/>
<feColorMatrix type="matrix" values="0 0 0 0 0.884025 0 0 0 0 0.898978 0 0 0 0 0.951313 0 0 0 1 0"/>
<feBlend mode="normal" in2="BackgroundImageFix" result="effect1_dropShadow"/>
<feBlend mode="normal" in="SourceGraphic" in2="effect1_dropShadow" result="shape"/>
</filter>
</defs>
</svg>
