<svg width="24" height="23" viewBox="0 0 24 23" fill="none" xmlns="http://www.w3.org/2000/svg">
<path fill-rule="evenodd" clip-rule="evenodd" d="M23.9372 8.69054C23.7793 8.20451 23.3481 7.86033 22.8401 7.81449L15.9122 7.18535L13.1742 0.774972C12.972 0.303977 12.512 0 12 0C11.4882 0 11.0279 0.303977 10.8269 0.774972L8.08896 7.18535L1.15989 7.81449C0.651896 7.86127 0.22187 8.20545 0.0627941 8.69054C-0.0951546 9.17638 0.0506767 9.70951 0.434864 10.0464L5.67202 14.6388L4.1278 21.44C4.01494 21.9399 4.20887 22.4571 4.62386 22.7571C4.84695 22.9191 5.10893 23 5.37185 23C5.5979 23 5.82391 22.94 6.02591 22.8191L12 19.247L17.973 22.8191C18.4111 23.0809 18.9621 23.0571 19.3762 22.7571C19.7912 22.4571 19.9852 21.9399 19.8722 21.44L18.328 14.6388L23.5652 10.0464C23.9492 9.70951 24.0952 9.17746 23.9372 8.69054Z" fill="#E99523"/>
</svg>
