<svg width="160" height="185" viewBox="0 0 160 185" fill="none" xmlns="http://www.w3.org/2000/svg">
<mask id="mask0_0_3405" style="mask-type:luminance" maskUnits="userSpaceOnUse" x="101" y="53" width="53" height="73">
<path fill-rule="evenodd" clip-rule="evenodd" d="M126.297 54.1493C119.032 57.0916 116.51 65.4305 113.069 77.4289C107.628 96.4052 110.751 103.287 104.709 113.77C103.896 115.181 103.012 116.491 102.082 117.706C99.0841 121.62 102.788 127.09 107.545 125.775C111.238 124.755 114.417 123.656 117.046 122.644C124.847 119.641 142.645 112.543 150.751 97.3264C151.48 95.9585 155.988 87.4948 152.919 83.8028C151.405 81.9822 148.994 82.4582 147.472 80.1341C145.984 77.8601 147.066 75.5297 147.371 72.0165C147.746 67.7058 146.978 61.3344 143.772 57.609C141.177 54.5933 136.738 53.0254 132.378 53.0254C130.259 53.0254 128.159 53.3954 126.297 54.1493Z" fill="white"/>
</mask>
<g mask="url(#mask0_0_3405)">
<path opacity="0.277832" fill-rule="evenodd" clip-rule="evenodd" d="M126.297 54.1493C119.032 57.0916 116.51 65.4305 113.069 77.4289C107.628 96.4052 110.751 103.287 104.709 113.77C103.896 115.181 103.012 116.491 102.082 117.706C99.0841 121.62 102.788 127.09 107.545 125.775C111.238 124.755 114.417 123.656 117.046 122.644C124.847 119.641 142.645 112.543 150.751 97.3264C151.48 95.9585 155.988 87.4948 152.919 83.8028C151.405 81.9822 148.994 82.4582 147.472 80.1341C145.984 77.8601 147.066 75.5297 147.371 72.0165C147.746 67.7058 146.978 61.3344 143.772 57.609C141.177 54.5933 136.738 53.0254 132.378 53.0254C130.259 53.0254 128.159 53.3954 126.297 54.1493Z" fill="#CDD3E3"/>
</g>
<path fill-rule="evenodd" clip-rule="evenodd" d="M82.0797 129.956L82.0334 129.549C89.7009 128.704 96.5241 127.108 102.313 124.807C110.846 121.416 116.871 116.573 120.22 110.413C122.844 105.587 123.783 100.134 125.082 92.5857C126.12 86.5601 126.304 82.1968 126.466 78.347C126.678 73.3117 126.846 69.3346 128.843 64.0064C130.868 58.6002 134.167 53.5514 138.646 49L138.944 49.2852C134.506 53.7952 131.238 58.7959 129.232 64.1482C127.258 69.416 127.092 73.3647 126.881 78.364C126.719 82.2259 126.534 86.603 125.492 92.6543C124.235 99.9549 123.242 105.721 120.586 110.606C117.19 116.853 111.095 121.759 102.469 125.187C96.6447 127.502 89.7847 129.107 82.0797 129.956Z" fill="white"/>
<path fill-rule="evenodd" clip-rule="evenodd" d="M126.009 88.4264L125.824 88.284C125.788 88.2568 122.251 85.503 119.318 80.4491C116.611 75.7847 113.874 68.1468 116.206 58.2485L116.611 58.3411C114.31 68.1101 117.009 75.645 119.679 80.2458C122.193 84.5779 125.145 87.1874 125.898 87.814C131.957 77.9797 139.516 72.7626 144.807 70.1146C150.585 67.2225 154.992 66.6825 155.036 66.6774L155.084 67.0842C155.041 67.0891 150.693 67.6244 144.977 70.4885C139.704 73.1309 132.154 78.3534 126.13 88.2282L126.009 88.4264Z" fill="white"/>
<path fill-rule="evenodd" clip-rule="evenodd" d="M122.705 104.619L122.653 104.479C122.629 104.413 120.165 97.7619 116.371 91.5712C112.602 85.4205 101.228 80.7317 101.114 80.6851L101.273 80.3066C101.388 80.3538 112.887 85.0933 116.727 91.3595C120.236 97.0848 122.612 103.2 122.991 104.199C136.36 103.571 157.037 78.3546 157.245 78.0991L157.57 78.3552C157.517 78.4197 152.245 84.8725 145.376 91.2967C136.131 99.9436 128.554 104.424 122.855 104.614L122.705 104.619Z" fill="white"/>
<mask id="mask1_0_3405" style="mask-type:luminance" maskUnits="userSpaceOnUse" x="98" y="92" width="62" height="43">
<path fill-rule="evenodd" clip-rule="evenodd" d="M130.694 101.96C123.428 108.331 122.983 110.658 117.669 115.156C113.726 118.493 107.538 122.656 98.0007 125.677C104.721 129.57 113.843 133.58 124.23 134.593C126.88 134.852 143.254 136.45 145.132 129.726C145.793 127.358 144.097 125.958 144.925 122.776C145.907 119.006 148.916 118.559 152.707 115.326C154.97 113.396 161.591 107.749 159.59 101.391C158.394 97.5916 154.174 93.7102 149.972 92.453C148.987 92.1584 148.034 92.0172 147.094 92.0171C142.153 92.0169 137.581 95.9211 130.694 101.96Z" fill="white"/>
</mask>
<g mask="url(#mask1_0_3405)">
<path fill-rule="evenodd" clip-rule="evenodd" d="M101.455 125.767C97.2531 125.767 93.1353 125.183 89.1158 124.012C81.3224 121.743 74.1787 117.449 67.8828 111.249L68.1796 110.954C74.4252 117.105 81.5091 121.364 89.2345 123.613C99.5249 126.61 110.482 125.727 121.802 120.99C133.595 116.054 142.828 108.172 148.496 102.43C152.416 98.458 155.192 93.1675 156.747 86.7051L157.156 86.8014C155.583 93.3381 152.771 98.6938 148.797 102.72C143.102 108.49 133.824 116.41 121.966 121.373C114.971 124.3 108.109 125.767 101.455 125.767Z" fill="white"/>
</g>
<mask id="mask2_0_3405" style="mask-type:luminance" maskUnits="userSpaceOnUse" x="98" y="92" width="62" height="43">
<path fill-rule="evenodd" clip-rule="evenodd" d="M130.694 101.96C123.428 108.331 122.983 110.658 117.669 115.156C113.726 118.493 107.538 122.656 98.0007 125.677C104.721 129.57 113.843 133.58 124.23 134.593C126.88 134.852 143.254 136.45 145.132 129.726C145.793 127.358 144.097 125.958 144.925 122.776C145.907 119.006 148.916 118.559 152.707 115.326C154.97 113.396 161.591 107.749 159.59 101.391C158.394 97.5916 154.174 93.7102 149.972 92.453C148.987 92.1584 148.034 92.0172 147.094 92.0171C142.153 92.0169 137.581 95.9211 130.694 101.96Z" fill="white"/>
</mask>
<g mask="url(#mask2_0_3405)">
<path fill-rule="evenodd" clip-rule="evenodd" d="M136.081 113.336L136.051 113.151C136.029 113.015 133.971 99.4539 142.683 90.7622L142.982 91.055C134.972 99.0453 136.228 111.254 136.441 112.901C156.05 111.846 162.023 101.279 163.389 98.0564C163.428 97.9663 163.453 97.9105 163.464 97.8912L163.827 98.1027L163.646 97.997L163.829 98.0984C163.819 98.1167 163.803 98.157 163.777 98.2172C162.383 101.507 156.277 112.317 136.269 113.326L136.081 113.336Z" fill="white"/>
</g>
<path opacity="0.429385" fill-rule="evenodd" clip-rule="evenodd" d="M117.669 115.156C113.726 118.493 107.538 122.656 98.0007 125.677C104.721 129.57 113.843 133.58 124.23 134.593C126.88 134.852 143.254 136.45 145.132 129.726C145.793 127.358 144.097 125.958 144.925 122.776C145.907 119.006 148.916 118.559 152.707 115.326C154.97 113.396 161.591 107.749 159.59 101.391C158.394 97.5916 154.174 93.7102 149.972 92.453C148.987 92.1584 148.034 92.0172 147.094 92.0171C142.153 92.0169 137.581 95.9211 130.694 101.96C123.428 108.331 122.983 110.658 117.669 115.156Z" fill="white"/>
<mask id="mask3_0_3405" style="mask-type:luminance" maskUnits="userSpaceOnUse" x="98" y="92" width="62" height="43">
<path fill-rule="evenodd" clip-rule="evenodd" d="M117.669 115.156C113.726 118.493 107.538 122.656 98.0007 125.677C104.721 129.57 113.843 133.58 124.23 134.593C126.88 134.852 143.254 136.45 145.132 129.726C145.793 127.358 144.097 125.958 144.925 122.776C145.907 119.006 148.916 118.559 152.707 115.326C154.97 113.396 161.591 107.749 159.59 101.391C158.394 97.5916 154.174 93.7102 149.972 92.453C148.987 92.1584 148.034 92.0172 147.094 92.0171C142.153 92.0169 137.581 95.9211 130.694 101.96C123.428 108.331 122.983 110.658 117.669 115.156Z" fill="white"/>
</mask>
<g mask="url(#mask3_0_3405)">
<path fill-rule="evenodd" clip-rule="evenodd" d="M141.492 128.959C141.469 128.959 141.446 128.959 141.423 128.959C137.014 128.946 130.057 127.6 121.951 121.261L121.862 121.192L121.871 121.081C121.88 120.978 122.8 110.582 130.143 99.9259L137.54 89.1919L137.888 89.4261L130.491 100.16C123.617 110.134 122.42 119.868 122.301 121.005C126.727 124.448 133.61 128.52 141.424 128.543C141.446 128.543 141.469 128.543 141.491 128.543C146.14 128.543 148.938 127.087 148.966 127.072L149.165 127.438C149.047 127.501 146.244 128.959 141.492 128.959Z" fill="white"/>
</g>
<mask id="mask4_0_3405" style="mask-type:luminance" maskUnits="userSpaceOnUse" x="30" y="17" width="92" height="125">
<path fill-rule="evenodd" clip-rule="evenodd" d="M30 23.281V136.01C30 139.393 32.813 141.956 36.3734 141.962H36.3977C36.582 141.962 36.7674 141.955 36.9555 141.941L116.018 135.972C119.33 135.722 122 132.854 122 129.566V25.6149C122 22.3268 119.33 19.579 116.018 19.4769L36.9555 17.0393C36.8773 17.0369 36.799 17.0356 36.7215 17.0356C32.9976 17.0354 30 19.788 30 23.281Z" fill="white"/>
</mask>
<g mask="url(#mask4_0_3405)">
<path fill-rule="evenodd" clip-rule="evenodd" d="M30 23.281V136.01C30 139.393 32.813 141.956 36.3734 141.962H36.3977C36.582 141.962 36.7674 141.955 36.9555 141.941L116.018 135.972C119.33 135.722 122 132.854 122 129.566V25.6149C122 22.3268 119.33 19.579 116.018 19.4769L36.9555 17.0393C36.8773 17.0369 36.799 17.0356 36.7215 17.0356C32.9976 17.0354 30 19.788 30 23.281Z" fill="#DFE8F3"/>
</g>
<g filter="url(#filter0_d_0_3405)">
<path fill-rule="evenodd" clip-rule="evenodd" d="M32 136.565V22.6042C32 20.5503 33.8198 18.9376 36.057 19.0019L117.502 21.3429C119.437 21.3984 121 22.9843 121 24.8852V130.355C121 132.256 119.437 133.911 117.502 134.052L36.057 139.988C33.8198 140.151 32 138.619 32 136.565Z" fill="white"/>
</g>
<mask id="mask5_0_3405" style="mask-type:luminance" maskUnits="userSpaceOnUse" x="30" y="17" width="92" height="13">
<path fill-rule="evenodd" clip-rule="evenodd" d="M30 23.3213V27.9826L122 29.9685V25.6702C122 22.361 119.33 19.5954 116.018 19.4926L36.9555 17.0393C36.8774 17.0369 36.7991 17.0356 36.7216 17.0356C32.9977 17.0354 30 19.8058 30 23.3213Z" fill="white"/>
</mask>
<g mask="url(#mask5_0_3405)">
<path fill-rule="evenodd" clip-rule="evenodd" d="M30 23.3213V27.9826L122 29.9685V25.6702C122 22.361 119.33 19.5954 116.018 19.4926L36.9555 17.0393C36.8774 17.0369 36.7991 17.0356 36.7216 17.0356C32.9977 17.0354 30 19.8058 30 23.3213Z" fill="#DFE8F3"/>
</g>
<path fill-rule="evenodd" clip-rule="evenodd" d="M42.5222 23.3733C42.5222 24.6203 41.5251 25.605 40.2928 25.5727C39.0578 25.5402 38.0547 24.4992 38.0547 23.2475C38.0547 21.9957 39.0578 21.0112 40.2928 21.0484C41.5251 21.0855 42.5222 22.1264 42.5222 23.3733Z" fill="white"/>
<path fill-rule="evenodd" clip-rule="evenodd" d="M50.2853 23.5922C50.2853 24.8308 49.3015 25.8091 48.0856 25.7772C46.8671 25.7452 45.8774 24.7113 45.8774 23.468C45.8774 22.2246 46.8671 21.2465 48.0856 21.2832C49.3015 21.3199 50.2853 22.3536 50.2853 23.5922Z" fill="white"/>
<path fill-rule="evenodd" clip-rule="evenodd" d="M57.9453 23.8078C57.9453 25.0382 56.9746 26.0101 55.7747 25.9787C54.5724 25.9472 53.5959 24.9203 53.5959 23.6852C53.5959 22.4502 54.5724 21.4784 55.7747 21.5147C56.9746 21.5508 57.9453 22.5774 57.9453 23.8078Z" fill="white"/>
<path fill-rule="evenodd" clip-rule="evenodd" d="M78.0679 57.0398C65.897 57.7566 56 67.9753 56 79.8619C56 91.7483 65.897 100.742 78.0679 99.9517C90.1974 99.1643 100 88.9514 100 77.138C100 65.7644 90.915 56.9994 79.4139 57C78.9691 57 78.5195 57.0132 78.0679 57.0398Z" fill="#CA0010"/>
<path fill-rule="evenodd" clip-rule="evenodd" d="M87.5519 89.985C86.9177 90.0592 86.2805 89.8586 85.7923 89.364L68.8342 72.1843C67.7219 71.0573 67.7219 69.1476 68.8342 67.9357C69.9379 66.7333 71.7088 66.6864 72.7901 67.8143L89.2882 85.0268C90.2373 86.017 90.2373 87.7744 89.2882 88.9662C88.8111 89.5653 88.1829 89.9113 87.5519 89.985Z" fill="white"/>
<path fill-rule="evenodd" clip-rule="evenodd" d="M70.8262 91.9823C70.1086 92.0648 69.3872 91.8599 68.8342 91.3459C67.7219 90.3121 67.7219 88.4339 68.8342 87.1675L85.7923 67.8617C86.767 66.752 88.332 66.7112 89.2882 67.7562C90.2373 68.7935 90.2373 70.5218 89.2882 71.6306L72.7901 90.9033C72.2505 91.5336 71.5402 91.9002 70.8262 91.9823Z" fill="white"/>
<defs>
<filter id="filter0_d_0_3405" x="0" y="0" width="153" height="185" filterUnits="userSpaceOnUse" color-interpolation-filters="sRGB">
<feFlood flood-opacity="0" result="BackgroundImageFix"/>
<feColorMatrix in="SourceAlpha" type="matrix" values="0 0 0 0 0 0 0 0 0 0 0 0 0 0 0 0 0 0 127 0" result="hardAlpha"/>
<feOffset dy="13"/>
<feGaussianBlur stdDeviation="16"/>
<feColorMatrix type="matrix" values="0 0 0 0 0.884025 0 0 0 0 0.898978 0 0 0 0 0.951313 0 0 0 1 0"/>
<feBlend mode="normal" in2="BackgroundImageFix" result="effect1_dropShadow_0_3405"/>
<feBlend mode="normal" in="SourceGraphic" in2="effect1_dropShadow_0_3405" result="shape"/>
</filter>
</defs>
</svg>
