<svg width="470" height="226" viewBox="0 0 470 226" fill="none" xmlns="http://www.w3.org/2000/svg">
<path fill-rule="evenodd" clip-rule="evenodd" d="M938.727 -771.851C924.41 -618.091 672.097 -443.265 869.939 -378.162C1067.78 -313.058 824.15 -158.484 799.166 -5.22186C792.252 37.1886 792.918 80.2048 781.527 122.102C770.138 163.997 745.897 188.003 701.408 207.931C657.617 227.544 570.721 231.654 527.679 215.089C484.633 198.525 461.823 192.754 404.934 190.297C252.469 183.714 287.991 246.468 -70.6981 183.714C-174.988 165.468 -202.455 206.044 -358.025 215.371C-513.595 224.698 -740.274 228.551 -829.435 154.959C-918.595 81.3695 -814.578 76.798 -863.702 -22.0848C-914.591 -124.515 -962.996 -235.597 -937.798 -348.679C-917.963 -437.685 -852.937 -518.253 -770.522 -576.445C-688.105 -634.639 -589.245 -672.085 -488.667 -697.471C79.3524 -840.834 291.167 -673.411 854.375 -833.237L938.727 -771.851Z" fill="#F4F6FD"/>
</svg>
