<svg width="652" height="226" viewBox="0 0 652 226" fill="none" xmlns="http://www.w3.org/2000/svg">
<path fill-rule="evenodd" clip-rule="evenodd" d="M942.73 -771.852C928.351 -618.091 674.963 -443.265 873.649 -378.162C1072.33 -313.059 827.664 -158.484 802.574 -5.22199C795.63 37.1885 796.299 80.2046 784.859 122.102C773.422 163.997 749.077 188.003 704.399 207.931C660.421 227.544 573.154 231.653 529.928 215.089C486.699 198.525 463.792 192.753 406.66 190.297C253.545 183.714 289.219 246.468 -71 183.714C-175.735 165.468 -203.319 206.044 -359.553 215.371C-515.786 224.698 -743.431 228.551 -832.972 154.959C-922.513 81.3693 -818.052 76.7979 -867.386 -22.085C-918.491 -124.516 -967.103 -235.597 -941.797 -348.68C-921.878 -437.685 -856.575 -518.253 -773.809 -576.445C-691.04 -634.64 -591.758 -672.085 -490.752 -697.471C79.6905 -840.834 292.408 -673.412 858.018 -833.237L942.73 -771.852Z" fill="#F4F6FD"/>
</svg>
