<svg width="161" height="149" viewBox="0 0 161 149" fill="none" xmlns="http://www.w3.org/2000/svg">
<path opacity="0.277832" fill-rule="evenodd" clip-rule="evenodd" d="M127.848 42.3087C127.848 42.3087 123.517 36.2331 128.116 32.8596C128.116 32.8596 131.439 31.02 134.04 31.359C134.04 31.359 129.954 37.6788 131.112 38.4108C132.27 39.1428 135.186 31.0214 135.186 31.0214C135.186 31.0214 142.517 30.755 144.79 32.1024C144.79 32.1024 138.243 37.0847 139.536 37.4924C140.829 37.9002 147.87 33.0506 147.87 33.0506C147.87 33.0506 154.58 34.7198 153.96 39.0735C153.34 43.4272 150.923 44.6245 149.903 44.4402C148.883 44.256 143.018 41.4324 142.835 42.3141C142.651 43.1959 146.096 46.345 148.62 46.6483C148.62 46.6483 143.51 51.9118 140.427 50.0917C137.344 48.2715 137.224 45.701 135.299 44.6129C133.375 43.5248 131.684 43.4154 132.444 44.4458C133.204 45.4762 136.733 46.662 137.741 48.857C138.749 51.0521 139.681 52.5491 136.424 51.8085C133.167 51.0678 127.973 48.1694 127.911 45.2391L127.848 42.3087Z" fill="#CDD3E3"/>
<path fill-rule="evenodd" clip-rule="evenodd" d="M151 38.3176C151 38.3176 132.13 36.5666 127.615 41.2871C127.615 41.2871 126.519 43.771 123.518 45.9182L123 47C123 47 126.493 44.019 127.679 43.8945C127.679 43.8945 126.264 37.6449 151 38.3176Z" fill="white"/>
<path fill-rule="evenodd" clip-rule="evenodd" d="M123.898 46.4317C123.898 46.4317 119.621 49.3014 119 54.8831L119.738 55C119.738 55 121.392 49.2939 123.888 47.1823C126.384 45.0705 123.898 46.4317 123.898 46.4317Z" fill="#82B378"/>
<path opacity="0.277832" fill-rule="evenodd" clip-rule="evenodd" d="M107.383 27.4089C107.383 27.4089 97.6735 22.1305 102.205 14.9669C102.205 14.9669 105.83 10.5681 109.714 9.43706C109.714 9.43706 107.642 20.1197 109.714 20.371C111.785 20.6223 111.138 8.30588 111.138 8.30588C111.138 8.30588 121.366 3.53021 125.379 3.90724C125.379 3.90724 119.036 14.3384 121.107 14.0871C123.178 13.8357 130.299 3.27889 130.299 3.27889C130.299 3.27889 140.786 1.39366 142.469 7.42621C144.152 13.4588 141.433 16.475 139.88 16.852C138.326 17.2291 128.357 17.1033 128.616 18.3601C128.875 19.6169 135.607 21.6278 139.362 20.4966C139.362 20.4966 135.219 30.4252 129.781 29.9224C124.344 29.4198 122.661 26.1521 119.294 25.9008C115.928 25.6495 113.469 26.5292 115.152 27.4089C116.835 28.2887 122.531 27.6972 125.25 29.9409C127.969 32.1847 130.17 33.5671 125.12 34.5726C120.071 35.5779 111.009 34.9496 109.196 31.1792L107.383 27.4089Z" fill="#CDD3E3"/>
<path fill-rule="evenodd" clip-rule="evenodd" d="M137 10C137 10 109.717 18.7931 106.598 28.6207C106.598 28.6207 106.728 33.0172 104 38.0604V40C104 40 106.858 33.4051 108.417 32.5C108.417 32.5 102.311 23.9656 137 10Z" fill="white"/>
<path fill-rule="evenodd" clip-rule="evenodd" d="M103.646 38.1829C103.646 38.1829 99.2764 44.4145 101.768 52L102.892 51.7164C102.892 51.7164 101.801 43.3614 104.087 39.1593C106.373 34.9572 103.646 38.1829 103.646 38.1829Z" fill="#82B378"/>
<path opacity="0.277832" fill-rule="evenodd" clip-rule="evenodd" d="M53.9168 30.8223C53.9168 30.8223 65.1747 26.051 61.1185 17.4344C61.1185 17.4344 57.7078 12.0414 53.6078 10.2978C53.6078 10.2978 54.5408 22.5806 52.2479 22.6133C49.955 22.6459 52.1937 8.85154 52.1937 8.85154C52.1937 8.85154 41.6209 2.23565 37.192 2.17498C37.192 2.17498 42.8208 14.6914 40.5904 14.1578C38.3601 13.6242 31.8988 0.872322 31.8988 0.872322C31.8988 0.872322 20.6837 -2.51911 18.0958 4.07217C15.5079 10.6634 18.1011 14.3896 19.7504 15.0021C21.3997 15.6146 32.2995 16.6785 31.8605 18.0628C31.4214 19.447 23.821 20.8978 19.8625 19.1699C19.8625 19.1699 23.1509 30.8538 29.1502 30.9452C35.1494 31.0364 37.3935 27.5594 41.1 27.6833C44.8063 27.8072 47.3826 29.0956 45.4356 29.8831C43.4886 30.6704 37.3427 29.3154 34.0952 31.5139C30.8477 33.7124 28.2727 35.0034 33.6604 36.7464C39.0482 38.4895 49.021 38.8775 51.469 34.8499L53.9168 30.8223Z" fill="#CDD3E3"/>
<path fill-rule="evenodd" clip-rule="evenodd" d="M25 8C25 8 54.0513 20.6266 56.2888 31.5134C56.2888 31.5134 55.6058 36.2042 58 41.9237L57.7621 44C57.7621 44 55.4148 36.6041 53.8041 35.4516C53.8041 35.4516 61.5948 27.0357 25 8Z" fill="white"/>
<path fill-rule="evenodd" clip-rule="evenodd" d="M56.262 41.5459C56.262 41.5459 59.9943 49.3963 56.5201 58L55.4004 57.5299C55.4004 57.5299 57.5305 47.8519 55.6917 42.6387C53.8529 37.4255 56.262 41.5459 56.262 41.5459Z" fill="#82B378"/>
<path opacity="0.277832" fill-rule="evenodd" clip-rule="evenodd" d="M32.7042 59.4144C30.6554 56.4879 30.4271 53.7627 30.4271 53.7627C30.4271 53.7627 36.0959 49.7325 32.7541 45.4941C32.7541 45.4941 30.177 42.9502 27.6749 42.5012C27.6749 42.5012 29.7384 49.1475 28.4658 49.4512C27.1932 49.755 26.7057 41.8813 26.7057 41.8813C26.7057 41.8813 19.9869 39.5568 17.5131 40.0755C17.5131 40.0755 22.2207 46.2648 20.9118 46.2491C19.6028 46.2333 14.402 40.0181 14.402 40.0181C14.402 40.0181 7.73089 39.549 7.11847 43.5005C6.50605 47.452 8.41835 49.1801 9.41378 49.3119C10.4092 49.4435 16.6121 48.6705 16.5417 49.4874C16.4713 50.3042 12.4216 52.0505 10.0001 51.5925C10.0001 51.5925 13.2999 57.6154 16.6519 56.9178C20.004 56.2201 20.8164 54.0261 22.8958 53.6323C24.9752 53.2385 26.5716 53.6266 25.5865 54.3029C24.6013 54.979 21.0089 54.9992 19.4769 56.6144C17.945 58.2297 16.6735 59.2614 19.8926 59.5494C23.1117 59.8375 28.7135 58.808 29.5704 56.2853C29.6077 56.1755 29.6433 56.0705 29.6774 55.97C29.6318 56.1756 29.5704 56.2853 29.5704 56.2853C30.1889 56.5559 31.2413 58.0576 31.9849 59.2168C32.0947 59.416 32.2638 59.6896 32.5108 60.0593L32.5109 60.0594C32.6131 60.2276 32.6951 60.3653 32.752 60.4614C34.1737 63.0856 34.1261 67.8962 34.1261 67.8962L34.8187 68C35.764 63.0515 32.7042 59.4144 32.7042 59.4144Z" fill="#CDD3E3"/>
<path fill-rule="evenodd" clip-rule="evenodd" d="M22 43.9163L76.15 11.3471C79.1362 9.55098 82.8638 9.55098 85.85 11.3471L140 43.9163L140 97L22 91.056V43.9163Z" fill="#C8D3E0"/>
<g filter="url(#filter0_d_0_1)">
<path fill-rule="evenodd" clip-rule="evenodd" d="M32 104H129V20H32V104Z" fill="white"/>
</g>
<path fill-rule="evenodd" clip-rule="evenodd" d="M140 44V115H22V44L81 79.5005L140 44Z" fill="#E2EDF9"/>
<path fill-rule="evenodd" clip-rule="evenodd" d="M22 115L76.0471 77.5391C79.0078 75.487 82.992 75.487 85.9528 77.5391L140 115H22Z" fill="#DFE8F3"/>
<path fill-rule="evenodd" clip-rule="evenodd" d="M131.068 65.0398C118.897 65.7566 109 75.9753 109 87.8619C109 99.7483 118.897 108.742 131.068 107.952C143.197 107.164 153 96.9514 153 85.138C153 73.7644 143.915 64.9994 132.414 65C131.969 65 131.519 65.0132 131.068 65.0398Z" fill="#66C346"/>
<path fill-rule="evenodd" clip-rule="evenodd" d="M123.753 97.2068C121.114 94.5326 115.834 89.1843 115.834 89.1843C114.722 88.0573 114.722 86.1476 115.834 84.9357C116.938 83.7333 118.709 83.6864 119.79 84.8143C119.79 84.8143 125.361 90.6268 128.147 93.533C130.861 96.3643 126.766 100.259 123.753 97.2068Z" fill="white"/>
<path fill-rule="evenodd" clip-rule="evenodd" d="M126.826 98.9823C126.109 99.0648 125.387 98.8599 124.834 98.3459C123.722 97.3121 123.722 95.4339 124.834 94.1675L141.792 74.8617C142.767 73.752 144.332 73.7112 145.288 74.7562C146.237 75.7935 146.237 77.5218 145.288 78.6306L128.79 97.9033C128.251 98.5336 127.54 98.9002 126.826 98.9823Z" fill="white"/>
<defs>
<filter id="filter0_d_0_1" x="0" y="1" width="161" height="148" filterUnits="userSpaceOnUse" color-interpolation-filters="sRGB">
<feFlood flood-opacity="0" result="BackgroundImageFix"/>
<feColorMatrix in="SourceAlpha" type="matrix" values="0 0 0 0 0 0 0 0 0 0 0 0 0 0 0 0 0 0 127 0" result="hardAlpha"/>
<feOffset dy="13"/>
<feGaussianBlur stdDeviation="16"/>
<feColorMatrix type="matrix" values="0 0 0 0 0.884025 0 0 0 0 0.898978 0 0 0 0 0.951313 0 0 0 1 0"/>
<feBlend mode="normal" in2="BackgroundImageFix" result="effect1_dropShadow_0_1"/>
<feBlend mode="normal" in="SourceGraphic" in2="effect1_dropShadow_0_1" result="shape"/>
</filter>
</defs>
</svg>
