<svg width="184" height="187" viewBox="0 0 184 187" fill="none" xmlns="http://www.w3.org/2000/svg">
<path opacity="0.277832" fill-rule="evenodd" clip-rule="evenodd" d="M78.4954 149.698C85.1725 150.637 92.0889 150.617 98.5376 148.632C104.987 146.648 110.946 142.551 114.304 136.689C117.662 130.827 118.082 123.144 114.578 117.377C113.121 114.978 111.051 112.947 109.946 110.366C108.841 107.785 109.092 104.245 111.51 102.817C113.108 101.874 115.121 102.14 116.925 102.562C125.797 104.64 134.576 109.824 143.425 107.632C148.493 106.376 152.825 102.668 155.18 98.0009C157.535 93.3335 158.406 87.6712 156.733 82.7223C152.176 69.244 116.494 56.0436 102.11 63.7121C96.7267 66.5819 92.7168 71.6967 90.9554 77.5434C89.194 83.3902 89.3058 89.6413 90.0035 95.7051C90.6144 101.015 91.445 107.087 87.9047 111.093C85.925 113.333 82.8804 114.416 79.8986 114.551C76.917 114.685 73.9649 113.964 71.1133 113.085" fill="#CDD3E3"/>
<path fill-rule="evenodd" clip-rule="evenodd" d="M76.0666 66.3154L68.8244 70.3299C68.1676 70.6939 67.3095 70.4017 66.9079 69.6772C66.5063 68.9526 66.7132 68.0701 67.37 67.706L74.6122 63.6916C75.269 63.3275 76.1271 63.6197 76.5287 64.3443C76.9303 65.0688 76.7234 65.9514 76.0666 66.3154Z" fill="#007CFF"/>
<path fill-rule="evenodd" clip-rule="evenodd" d="M76.0666 66.3154L68.8244 70.3299C68.1676 70.6939 67.3095 70.4017 66.9079 69.6772C66.5063 68.9526 66.7132 68.0701 67.37 67.706L74.6122 63.6916C75.269 63.3275 76.1271 63.6197 76.5287 64.3443C76.9303 65.0688 76.7234 65.9514 76.0666 66.3154Z" fill="white"/>
<path fill-rule="evenodd" clip-rule="evenodd" d="M118.563 76.2346L118.96 145.619C118.965 146.512 118.243 147.244 117.346 147.255L52.9667 147.971C52.0698 147.98 51.3394 147.264 51.3341 146.37L50.8181 56.1223C50.8131 55.2293 51.5359 54.4962 52.4323 54.4868L95.8107 54.004L118.563 76.2346Z" fill="#DFE8F3"/>
<path fill-rule="evenodd" clip-rule="evenodd" d="M108.753 97.7261L61.0564 97.5028L61.1387 100.523L108.835 100.746L108.753 97.7261Z" fill="#007CFF"/>
<path fill-rule="evenodd" clip-rule="evenodd" d="M109.713 109.771L62.0164 109.548L62.0987 112.568L109.795 112.791L109.713 109.771Z" fill="#007CFF"/>
<path fill-rule="evenodd" clip-rule="evenodd" d="M108.923 122.785L61.2263 122.562L61.3086 125.582L109.005 125.805L108.923 122.785Z" fill="#007CFF"/>
<path fill-rule="evenodd" clip-rule="evenodd" d="M96.0946 54.0704L96.4852 75.1931C96.5021 76.0949 97.2371 76.8272 98.1276 76.8291L118.913 76.8657L96.0946 54.0704Z" fill="#007CFF"/>
<path fill-rule="evenodd" clip-rule="evenodd" d="M96.0946 54.0704L96.4852 75.1931C96.5021 76.0949 97.2371 76.8272 98.1276 76.8291L118.913 76.8657L96.0946 54.0704Z" fill="white"/>
<g filter="url(#filter0_d_0_3805)">
<path fill-rule="evenodd" clip-rule="evenodd" d="M125.466 70.1221L125.862 139.506C125.868 140.399 125.145 141.132 124.249 141.142L59.8695 141.858C58.9726 141.868 58.2417 141.152 58.2364 140.258L57.7207 50.0097C57.7154 49.1162 58.438 48.3839 59.3349 48.3742L102.713 47.8918L125.466 70.1221Z" fill="white"/>
</g>
<path fill-rule="evenodd" clip-rule="evenodd" d="M114.56 91.0358L69.1343 92.054C68.4268 92.0703 67.8538 92.6478 67.8541 93.3448L67.8538 93.7542C67.8542 94.4512 68.4275 95.0039 69.1345 94.9879L114.561 93.9694C115.268 93.9539 115.841 93.3756 115.841 92.6786L115.841 92.2692C115.841 91.5722 115.267 91.0198 114.56 91.0358Z" fill="#DAE7F4"/>
<path fill-rule="evenodd" clip-rule="evenodd" d="M113.771 104.05L68.3449 105.069C67.6376 105.085 67.0649 105.663 67.0647 106.36L67.0649 106.769C67.0652 107.466 67.6385 108.019 68.3455 108.003L113.772 106.984C114.479 106.968 115.053 106.391 115.052 105.693L115.052 105.284C115.052 104.587 114.478 104.034 113.771 104.05Z" fill="#DAE7F4"/>
<path fill-rule="evenodd" clip-rule="evenodd" d="M114.246 115.22L68.8194 116.239C68.1123 116.255 67.5393 116.833 67.5391 117.53L67.5394 117.939C67.54 118.636 68.113 119.189 68.82 119.173L114.247 118.154C114.954 118.138 115.527 117.56 115.527 116.863L115.527 116.454C115.527 115.757 114.953 115.204 114.246 115.22Z" fill="#DAE7F4"/>
<path opacity="0.486049" fill-rule="evenodd" clip-rule="evenodd" d="M102.996 47.958L103.387 69.0807C103.403 69.9825 104.138 70.7147 105.029 70.7161L125.815 70.7533L102.996 47.958Z" fill="#DFE7F3"/>
<mask id="mask0_0_3805" style="mask-type:luminance" maskUnits="userSpaceOnUse" x="65" y="8" width="73" height="66">
<path fill-rule="evenodd" clip-rule="evenodd" d="M65.5918 37.3473L117.172 8.75569L137.002 44.5295L85.4215 73.1211L65.5918 37.3473Z" fill="white"/>
</mask>
<g mask="url(#mask0_0_3805)">
<path fill-rule="evenodd" clip-rule="evenodd" d="M89.958 28.1736L93.5103 32.1804C94.5281 33.3292 94.5586 35.041 93.5907 36.2149C87.0482 44.1496 84.2772 56.7626 83.2364 67.8541C83.232 67.9011 83.2273 67.949 83.2231 67.9966C82.9079 71.4655 87.6913 72.7257 89.1057 69.555C91.9266 63.2325 95.6393 56.0864 99.6107 51.6225C101.047 50.0077 103.651 50.3295 104.656 52.2653L107.294 57.3418C108.684 60.0164 112.663 59.3612 113.067 56.3848C114.208 47.989 117.114 35.9912 124.455 25.4192C125.828 23.4419 124.47 20.6988 122.064 20.5642C114.874 20.1614 102.219 20.0631 91.3848 23.1432C89.2079 23.762 88.443 26.4649 89.958 28.1736Z" fill="#F29F2F"/>
</g>
<defs>
<filter id="filter0_d_0_3805" x="25.7207" y="28.8917" width="132.142" height="157.966" filterUnits="userSpaceOnUse" color-interpolation-filters="sRGB">
<feFlood flood-opacity="0" result="BackgroundImageFix"/>
<feColorMatrix in="SourceAlpha" type="matrix" values="0 0 0 0 0 0 0 0 0 0 0 0 0 0 0 0 0 0 127 0" result="hardAlpha"/>
<feOffset dy="13"/>
<feGaussianBlur stdDeviation="16"/>
<feColorMatrix type="matrix" values="0 0 0 0 0.884025 0 0 0 0 0.898978 0 0 0 0 0.951313 0 0 0 1 0"/>
<feBlend mode="normal" in2="BackgroundImageFix" result="effect1_dropShadow_0_3805"/>
<feBlend mode="normal" in="SourceGraphic" in2="effect1_dropShadow_0_3805" result="shape"/>
</filter>
</defs>
</svg>
