<svg width="160" height="185" viewBox="0 0 160 185" fill="none" xmlns="http://www.w3.org/2000/svg">
<mask id="mask0_282_2121" style="mask-type:luminance" maskUnits="userSpaceOnUse" x="101" y="53" width="53" height="73">
<path fill-rule="evenodd" clip-rule="evenodd" d="M126.297 54.1493C119.032 57.0916 116.51 65.4305 113.069 77.4289C107.628 96.4052 110.751 103.287 104.709 113.77C103.895 115.181 103.012 116.491 102.081 117.706C99.0839 121.62 102.788 127.09 107.545 125.775C111.238 124.755 114.417 123.656 117.045 122.644C124.846 119.641 142.645 112.543 150.751 97.3264C151.479 95.9585 155.988 87.4948 152.919 83.8028C151.405 81.9822 148.994 82.4582 147.472 80.1341C145.983 77.8601 147.065 75.5297 147.371 72.0165C147.746 67.7058 146.978 61.3344 143.771 57.609C141.176 54.5933 136.738 53.0254 132.377 53.0254C130.259 53.0254 128.159 53.3954 126.297 54.1493Z" fill="white"/>
</mask>
<g mask="url(#mask0_282_2121)">
<path opacity="0.277832" fill-rule="evenodd" clip-rule="evenodd" d="M126.297 54.1493C119.032 57.0916 116.51 65.4305 113.069 77.4289C107.628 96.4052 110.751 103.287 104.709 113.77C103.895 115.181 103.012 116.491 102.081 117.706C99.0839 121.62 102.788 127.09 107.545 125.775C111.238 124.755 114.417 123.656 117.045 122.644C124.846 119.641 142.645 112.543 150.751 97.3264C151.479 95.9585 155.988 87.4948 152.919 83.8028C151.405 81.9822 148.994 82.4582 147.472 80.1341C145.983 77.8601 147.065 75.5297 147.371 72.0165C147.746 67.7058 146.978 61.3344 143.771 57.609C141.176 54.5933 136.738 53.0254 132.377 53.0254C130.259 53.0254 128.159 53.3954 126.297 54.1493Z" fill="#CDD3E3"/>
</g>
<path fill-rule="evenodd" clip-rule="evenodd" d="M82.0795 129.956L82.0332 129.549C89.7007 128.704 96.5238 127.108 102.313 124.807C110.846 121.416 116.871 116.573 120.22 110.413C122.844 105.587 123.783 100.133 125.082 92.5854C126.12 86.5599 126.304 82.1965 126.466 78.3468C126.678 73.3115 126.846 69.3343 128.842 64.0062C130.868 58.5999 134.166 53.5511 138.646 48.9998L138.944 49.2849C134.505 53.795 131.238 58.7957 129.232 64.148C127.258 69.4157 127.092 73.3645 126.881 78.3638C126.718 82.2257 126.534 86.6028 125.492 92.654C124.235 99.9546 123.242 105.721 120.586 110.606C117.19 116.853 111.094 121.759 102.469 125.187C96.6444 127.502 89.7845 129.106 82.0795 129.956Z" fill="white"/>
<path fill-rule="evenodd" clip-rule="evenodd" d="M126.009 88.4264L125.824 88.284C125.788 88.2568 122.251 85.503 119.318 80.4491C116.611 75.7847 113.874 68.1468 116.206 58.2485L116.611 58.3411C114.31 68.1101 117.009 75.645 119.679 80.2458C122.193 84.5779 125.145 87.1874 125.898 87.814C131.957 77.9797 139.516 72.7626 144.807 70.1146C150.585 67.2225 154.992 66.6825 155.036 66.6774L155.084 67.0842C155.041 67.0891 150.693 67.6244 144.977 70.4885C139.704 73.1309 132.154 78.3534 126.13 88.2282L126.009 88.4264Z" fill="white"/>
<path fill-rule="evenodd" clip-rule="evenodd" d="M122.705 104.619L122.653 104.479C122.629 104.413 120.165 97.7616 116.371 91.5709C112.602 85.4202 101.228 80.7315 101.114 80.6849L101.273 80.3063C101.388 80.3535 112.887 85.0931 116.727 91.3592C120.236 97.0846 122.612 103.2 122.991 104.199C136.36 103.57 157.037 78.3544 157.245 78.0989L157.57 78.355C157.517 78.4195 152.245 84.8723 145.376 91.2965C136.131 99.9433 128.554 104.424 122.855 104.614L122.705 104.619Z" fill="white"/>
<mask id="mask1_282_2121" style="mask-type:luminance" maskUnits="userSpaceOnUse" x="98" y="92" width="62" height="43">
<path fill-rule="evenodd" clip-rule="evenodd" d="M130.694 101.96C123.428 108.331 122.983 110.658 117.67 115.156C113.726 118.493 107.539 122.656 98.001 125.677C104.721 129.57 113.843 133.58 124.23 134.593C126.88 134.852 143.255 136.45 145.132 129.726C145.793 127.358 144.097 125.958 144.926 122.776C145.907 119.006 148.916 118.559 152.708 115.326C154.97 113.396 161.591 107.749 159.59 101.391C158.395 97.5916 154.174 93.7102 149.972 92.453C148.987 92.1584 148.034 92.0172 147.094 92.0171C142.153 92.0169 137.581 95.9211 130.694 101.96Z" fill="white"/>
</mask>
<g mask="url(#mask1_282_2121)">
<path fill-rule="evenodd" clip-rule="evenodd" d="M101.455 125.767C97.2531 125.767 93.1353 125.183 89.1158 124.012C81.3224 121.743 74.1787 117.448 67.8828 111.248L68.1796 110.954C74.4252 117.104 81.5091 121.364 89.2345 123.613C99.5249 126.61 110.482 125.727 121.802 120.989C133.595 116.054 142.828 108.172 148.496 102.429C152.416 98.4578 155.192 93.1673 156.747 86.7048L157.156 86.8012C155.583 93.3379 152.771 98.6936 148.797 102.72C143.102 108.49 133.824 116.41 121.966 121.372C114.971 124.3 108.109 125.767 101.455 125.767Z" fill="white"/>
</g>
<mask id="mask2_282_2121" style="mask-type:luminance" maskUnits="userSpaceOnUse" x="98" y="92" width="62" height="43">
<path fill-rule="evenodd" clip-rule="evenodd" d="M130.694 101.96C123.428 108.331 122.983 110.658 117.67 115.156C113.726 118.493 107.539 122.656 98.001 125.677C104.721 129.57 113.843 133.58 124.23 134.593C126.88 134.852 143.255 136.45 145.132 129.726C145.793 127.358 144.097 125.958 144.926 122.776C145.907 119.006 148.916 118.559 152.708 115.326C154.97 113.396 161.591 107.749 159.59 101.391C158.395 97.5916 154.174 93.7102 149.972 92.453C148.987 92.1584 148.034 92.0172 147.094 92.0171C142.153 92.0169 137.581 95.9211 130.694 101.96Z" fill="white"/>
</mask>
<g mask="url(#mask2_282_2121)">
<path fill-rule="evenodd" clip-rule="evenodd" d="M136.081 113.336L136.051 113.151C136.029 113.015 133.971 99.4537 142.683 90.762L142.982 91.0548C134.973 99.0451 136.229 111.253 136.441 112.901C156.051 111.845 162.023 101.278 163.39 98.0562C163.428 97.9661 163.453 97.9102 163.465 97.891L163.827 98.1024L163.646 97.9967L163.829 98.0982C163.82 98.1165 163.803 98.1568 163.778 98.217C162.383 101.506 156.277 112.317 136.27 113.326L136.081 113.336Z" fill="white"/>
</g>
<path opacity="0.429385" fill-rule="evenodd" clip-rule="evenodd" d="M117.67 115.156C113.726 118.493 107.539 122.656 98.001 125.677C104.721 129.57 113.843 133.58 124.23 134.593C126.88 134.852 143.255 136.45 145.132 129.726C145.793 127.358 144.097 125.958 144.926 122.776C145.907 119.006 148.916 118.559 152.708 115.326C154.97 113.396 161.591 107.749 159.59 101.391C158.395 97.5916 154.174 93.7102 149.972 92.453C148.987 92.1584 148.034 92.0172 147.094 92.0171C142.153 92.0169 137.581 95.9211 130.694 101.96C123.428 108.331 122.983 110.658 117.67 115.156Z" fill="white"/>
<mask id="mask3_282_2121" style="mask-type:luminance" maskUnits="userSpaceOnUse" x="98" y="92" width="62" height="43">
<path fill-rule="evenodd" clip-rule="evenodd" d="M117.67 115.156C113.726 118.493 107.539 122.656 98.001 125.677C104.721 129.57 113.843 133.58 124.23 134.593C126.88 134.852 143.255 136.45 145.132 129.726C145.793 127.358 144.097 125.958 144.926 122.776C145.907 119.006 148.916 118.559 152.708 115.326C154.97 113.396 161.591 107.749 159.59 101.391C158.395 97.5916 154.174 93.7102 149.972 92.453C148.987 92.1584 148.034 92.0172 147.094 92.0171C142.153 92.0169 137.581 95.9211 130.694 101.96C123.428 108.331 122.983 110.658 117.67 115.156Z" fill="white"/>
</mask>
<g mask="url(#mask3_282_2121)">
<path fill-rule="evenodd" clip-rule="evenodd" d="M141.492 128.959C141.469 128.959 141.446 128.959 141.423 128.959C137.014 128.946 130.057 127.599 121.951 121.261L121.862 121.192L121.871 121.081C121.88 120.977 122.8 110.582 130.143 99.9257L137.54 89.1917L137.888 89.4258L130.491 100.16C123.617 110.134 122.42 119.868 122.301 121.005C126.727 124.448 133.61 128.52 141.424 128.543C141.446 128.543 141.469 128.543 141.491 128.543C146.14 128.543 148.938 127.086 148.966 127.072L149.165 127.438C149.047 127.5 146.244 128.959 141.492 128.959Z" fill="white"/>
</g>
<mask id="mask4_282_2121" style="mask-type:luminance" maskUnits="userSpaceOnUse" x="30" y="17" width="92" height="125">
<path fill-rule="evenodd" clip-rule="evenodd" d="M30 23.281V136.01C30 139.393 32.813 141.956 36.3734 141.962H36.3977C36.582 141.962 36.7674 141.955 36.9555 141.941L116.018 135.972C119.33 135.722 122 132.854 122 129.566V25.6149C122 22.3268 119.33 19.579 116.018 19.4769L36.9555 17.0393C36.8773 17.0369 36.799 17.0356 36.7215 17.0356C32.9976 17.0354 30 19.788 30 23.281Z" fill="white"/>
</mask>
<g mask="url(#mask4_282_2121)">
<path fill-rule="evenodd" clip-rule="evenodd" d="M30 23.281V136.01C30 139.393 32.813 141.956 36.3734 141.962H36.3977C36.582 141.962 36.7674 141.955 36.9555 141.941L116.018 135.972C119.33 135.722 122 132.854 122 129.566V25.6149C122 22.3268 119.33 19.579 116.018 19.4769L36.9555 17.0393C36.8773 17.0369 36.799 17.0356 36.7215 17.0356C32.9976 17.0354 30 19.788 30 23.281Z" fill="#DFE8F3"/>
</g>
<g filter="url(#filter0_d_282_2121)">
<path fill-rule="evenodd" clip-rule="evenodd" d="M32 136.565V22.6042C32 20.5503 33.8198 18.9376 36.057 19.0019L117.502 21.3429C119.437 21.3984 121 22.9843 121 24.8852V130.355C121 132.256 119.437 133.911 117.502 134.052L36.057 139.988C33.8198 140.151 32 138.619 32 136.565Z" fill="white"/>
</g>
<mask id="mask5_282_2121" style="mask-type:luminance" maskUnits="userSpaceOnUse" x="30" y="17" width="92" height="13">
<path fill-rule="evenodd" clip-rule="evenodd" d="M30 23.3216V27.9828L122 29.9687V25.6705C122 22.3612 119.33 19.5957 116.018 19.4929L36.9555 17.0396C36.8774 17.0371 36.7991 17.0359 36.7216 17.0359C32.9977 17.0356 30 19.8061 30 23.3216Z" fill="white"/>
</mask>
<g mask="url(#mask5_282_2121)">
<path fill-rule="evenodd" clip-rule="evenodd" d="M30 23.3216V27.9828L122 29.9687V25.6705C122 22.3612 119.33 19.5957 116.018 19.4929L36.9555 17.0396C36.8774 17.0371 36.7991 17.0359 36.7216 17.0359C32.9977 17.0356 30 19.8061 30 23.3216Z" fill="#DFE8F3"/>
</g>
<path fill-rule="evenodd" clip-rule="evenodd" d="M42.5222 23.3733C42.5222 24.6203 41.5251 25.605 40.2928 25.5727C39.0578 25.5402 38.0547 24.4992 38.0547 23.2475C38.0547 21.9957 39.0578 21.0112 40.2928 21.0484C41.5251 21.0855 42.5222 22.1264 42.5222 23.3733Z" fill="white"/>
<path fill-rule="evenodd" clip-rule="evenodd" d="M50.2853 23.5922C50.2853 24.8308 49.3015 25.8091 48.0856 25.7772C46.8671 25.7452 45.8774 24.7113 45.8774 23.468C45.8774 22.2246 46.8671 21.2465 48.0856 21.2832C49.3015 21.3199 50.2853 22.3536 50.2853 23.5922Z" fill="white"/>
<path fill-rule="evenodd" clip-rule="evenodd" d="M57.9451 23.8078C57.9451 25.0382 56.9743 26.0101 55.7745 25.9787C54.5722 25.9472 53.5957 24.9203 53.5957 23.6852C53.5957 22.4502 54.5722 21.4784 55.7745 21.5147C56.9743 21.5508 57.9451 22.5774 57.9451 23.8078Z" fill="white"/>
<path fill-rule="evenodd" clip-rule="evenodd" d="M78.0679 58.0398C65.897 58.7566 56 68.9753 56 80.8619C56 92.7483 65.897 101.742 78.0679 100.952C90.1974 100.164 100 89.9514 100 78.138C100 66.7644 90.915 57.9994 79.4139 58C78.9691 58 78.5195 58.0132 78.0679 58.0398Z" fill="#66C346"/>
<path fill-rule="evenodd" clip-rule="evenodd" d="M70.7533 90.2068C68.1136 87.5326 62.8342 82.1843 62.8342 82.1843C61.7219 81.0573 61.7219 79.1476 62.8342 77.9357C63.9379 76.7333 65.7088 76.6864 66.7901 77.8143C66.7901 77.8143 72.3613 83.6268 75.1469 86.533C77.8607 89.3643 73.7663 93.2592 70.7533 90.2068Z" fill="white"/>
<path fill-rule="evenodd" clip-rule="evenodd" d="M73.8262 91.9823C73.1086 92.0648 72.3872 91.8599 71.8342 91.3459C70.7219 90.3121 70.7219 88.4339 71.8342 87.1675L88.7923 67.8617C89.767 66.752 91.332 66.7112 92.2882 67.7562C93.2373 68.7935 93.2373 70.5218 92.2882 71.6306L75.7901 90.9033C75.2505 91.5336 74.5402 91.9002 73.8262 91.9823Z" fill="white"/>
<defs>
<filter id="filter0_d_282_2121" x="0" y="0" width="153" height="185" filterUnits="userSpaceOnUse" color-interpolation-filters="sRGB">
<feFlood flood-opacity="0" result="BackgroundImageFix"/>
<feColorMatrix in="SourceAlpha" type="matrix" values="0 0 0 0 0 0 0 0 0 0 0 0 0 0 0 0 0 0 127 0" result="hardAlpha"/>
<feOffset dy="13"/>
<feGaussianBlur stdDeviation="16"/>
<feColorMatrix type="matrix" values="0 0 0 0 0.884025 0 0 0 0 0.898978 0 0 0 0 0.951313 0 0 0 1 0"/>
<feBlend mode="normal" in2="BackgroundImageFix" result="effect1_dropShadow_282_2121"/>
<feBlend mode="normal" in="SourceGraphic" in2="effect1_dropShadow_282_2121" result="shape"/>
</filter>
</defs>
</svg>
