<svg width="160" height="186" viewBox="0 0 160 186" fill="none" xmlns="http://www.w3.org/2000/svg">
<mask id="mask0_685_8856" style="mask-type:luminance" maskUnits="userSpaceOnUse" x="101" y="53" width="53" height="74">
<path fill-rule="evenodd" clip-rule="evenodd" d="M126.297 55.1137C119.032 58.0559 116.51 66.3948 113.069 78.3933C107.628 97.3695 110.751 104.252 104.709 114.734C103.895 116.146 103.012 117.456 102.081 118.671C99.0839 122.584 102.788 128.054 107.545 126.74C111.238 125.719 114.417 124.62 117.045 123.608C124.846 120.605 142.645 113.507 150.751 98.2908C151.479 96.9228 155.988 88.4592 152.919 84.7672C151.405 82.9466 148.994 83.4225 147.472 81.0985C145.983 78.8244 147.065 76.4941 147.371 72.9808C147.746 68.6701 146.978 62.2988 143.771 58.5733C141.176 55.5577 136.738 53.9897 132.377 53.9897C130.259 53.9897 128.159 54.3598 126.297 55.1137Z" fill="white"/>
</mask>
<g mask="url(#mask0_685_8856)">
<path opacity="0.277832" fill-rule="evenodd" clip-rule="evenodd" d="M126.297 55.1137C119.032 58.0559 116.51 66.3948 113.069 78.3933C107.628 97.3695 110.751 104.252 104.709 114.734C103.895 116.146 103.012 117.456 102.081 118.671C99.0839 122.584 102.788 128.054 107.545 126.74C111.238 125.719 114.417 124.62 117.045 123.608C124.846 120.605 142.645 113.507 150.751 98.2908C151.479 96.9228 155.988 88.4592 152.919 84.7672C151.405 82.9466 148.994 83.4225 147.472 81.0985C145.983 78.8244 147.065 76.4941 147.371 72.9808C147.746 68.6701 146.978 62.2988 143.771 58.5733C141.176 55.5577 136.738 53.9897 132.377 53.9897C130.259 53.9897 128.159 54.3598 126.297 55.1137Z" fill="#CDD3E3"/>
</g>
<path fill-rule="evenodd" clip-rule="evenodd" d="M82.0795 130.92L82.0332 130.513C89.7007 129.668 96.5238 128.072 102.313 125.771C110.846 122.38 116.871 117.537 120.22 111.377C122.844 106.551 123.783 101.098 125.082 93.5498C126.12 87.5242 126.304 83.1609 126.466 79.3112C126.678 74.2758 126.846 70.2987 128.842 64.9705C130.868 59.5643 134.166 54.5155 138.646 49.9641L138.944 50.2493C134.505 54.7593 131.238 59.76 129.232 65.1123C127.258 70.3801 127.092 74.3288 126.881 79.3282C126.718 83.19 126.534 87.5671 125.492 93.6184C124.235 100.919 123.242 106.685 120.586 111.57C117.19 117.817 111.094 122.723 102.469 126.151C96.6444 128.466 89.7845 130.071 82.0795 130.92Z" fill="white"/>
<path fill-rule="evenodd" clip-rule="evenodd" d="M126.009 89.3908L125.824 89.2484C125.788 89.2212 122.251 86.4674 119.318 81.4134C116.611 76.7491 113.874 69.1112 116.206 59.2129L116.611 59.3055C114.31 69.0744 117.009 76.6094 119.679 81.2102C122.193 85.5423 125.145 88.1518 125.898 88.7784C131.957 78.944 139.516 73.727 144.807 71.0789C150.585 68.1869 154.992 67.6469 155.036 67.6418L155.084 68.0485C155.041 68.0535 150.693 68.5887 144.977 71.4529C139.704 74.0953 132.154 79.3178 126.13 89.1925L126.009 89.3908Z" fill="white"/>
<path fill-rule="evenodd" clip-rule="evenodd" d="M122.705 105.583L122.653 105.443C122.629 105.377 120.165 98.726 116.371 92.5353C112.602 86.3846 101.228 81.6958 101.114 81.6492L101.273 81.2707C101.388 81.3179 112.887 86.0574 116.727 92.3236C120.236 98.0489 122.612 104.164 122.991 105.163C136.36 104.535 157.037 79.3188 157.245 79.0632L157.57 79.3194C157.517 79.3838 152.245 85.8366 145.376 92.2608C136.131 100.908 128.554 105.388 122.855 105.578L122.705 105.583Z" fill="white"/>
<mask id="mask1_685_8856" style="mask-type:luminance" maskUnits="userSpaceOnUse" x="98" y="92" width="62" height="44">
<path fill-rule="evenodd" clip-rule="evenodd" d="M130.694 102.924C123.428 109.295 122.983 111.622 117.67 116.12C113.726 119.458 107.539 123.621 98.001 126.642C104.721 130.534 113.843 134.545 124.23 135.558C126.88 135.817 143.255 137.414 145.132 130.691C145.793 128.323 144.097 126.922 144.926 123.74C145.907 119.97 148.916 119.524 152.708 116.29C154.97 114.36 161.591 108.713 159.59 102.355C158.395 98.556 154.174 94.6745 149.972 93.4174C148.987 93.1227 148.034 92.9815 147.094 92.9814C142.153 92.9813 137.581 96.8854 130.694 102.924Z" fill="white"/>
</mask>
<g mask="url(#mask1_685_8856)">
<path fill-rule="evenodd" clip-rule="evenodd" d="M101.455 126.731C97.2531 126.731 93.1353 126.147 89.1158 124.977C81.3224 122.707 74.1787 118.413 67.8828 112.213L68.1796 111.918C74.4252 118.069 81.5091 122.328 89.2345 124.578C99.5249 127.574 110.482 126.691 121.802 121.954C133.595 117.018 142.828 109.137 148.496 103.394C152.416 99.4221 155.192 94.1317 156.747 87.6692L157.156 87.7655C155.583 94.3022 152.771 99.658 148.797 103.684C143.102 109.454 133.824 117.374 121.966 122.337C114.971 125.264 108.109 126.731 101.455 126.731Z" fill="white"/>
</g>
<mask id="mask2_685_8856" style="mask-type:luminance" maskUnits="userSpaceOnUse" x="98" y="92" width="62" height="44">
<path fill-rule="evenodd" clip-rule="evenodd" d="M130.694 102.924C123.428 109.295 122.983 111.622 117.67 116.12C113.726 119.458 107.539 123.621 98.001 126.642C104.721 130.534 113.843 134.545 124.23 135.558C126.88 135.817 143.255 137.414 145.132 130.691C145.793 128.323 144.097 126.922 144.926 123.74C145.907 119.97 148.916 119.524 152.708 116.29C154.97 114.36 161.591 108.713 159.59 102.355C158.395 98.556 154.174 94.6745 149.972 93.4174C148.987 93.1227 148.034 92.9815 147.094 92.9814C142.153 92.9813 137.581 96.8854 130.694 102.924Z" fill="white"/>
</mask>
<g mask="url(#mask2_685_8856)">
<path fill-rule="evenodd" clip-rule="evenodd" d="M136.081 114.3L136.051 114.116C136.029 113.98 133.971 100.418 142.683 91.7266L142.982 92.0194C134.973 100.01 136.229 112.218 136.441 113.865C156.051 112.81 162.023 102.243 163.39 99.0208C163.428 98.9307 163.453 98.8748 163.465 98.8556L163.827 99.067L163.646 98.9613L163.829 99.0628C163.82 99.0811 163.803 99.1214 163.778 99.1816C162.383 102.471 156.277 113.282 136.27 114.291L136.081 114.3Z" fill="white"/>
</g>
<path opacity="0.429385" fill-rule="evenodd" clip-rule="evenodd" d="M117.67 116.12C113.726 119.458 107.539 123.621 98.001 126.642C104.721 130.534 113.843 134.545 124.23 135.558C126.88 135.817 143.255 137.414 145.132 130.691C145.793 128.323 144.097 126.922 144.926 123.74C145.907 119.97 148.916 119.524 152.708 116.29C154.97 114.36 161.591 108.713 159.59 102.355C158.395 98.556 154.174 94.6745 149.972 93.4174C148.987 93.1227 148.034 92.9815 147.094 92.9814C142.153 92.9813 137.581 96.8854 130.694 102.924C123.428 109.295 122.983 111.622 117.67 116.12Z" fill="white"/>
<mask id="mask3_685_8856" style="mask-type:luminance" maskUnits="userSpaceOnUse" x="98" y="92" width="62" height="44">
<path fill-rule="evenodd" clip-rule="evenodd" d="M117.67 116.12C113.726 119.458 107.539 123.621 98.001 126.642C104.721 130.534 113.843 134.545 124.23 135.558C126.88 135.817 143.255 137.414 145.132 130.691C145.793 128.323 144.097 126.922 144.926 123.74C145.907 119.97 148.916 119.524 152.708 116.29C154.97 114.36 161.591 108.713 159.59 102.355C158.395 98.556 154.174 94.6745 149.972 93.4174C148.987 93.1227 148.034 92.9815 147.094 92.9814C142.153 92.9813 137.581 96.8854 130.694 102.924C123.428 109.295 122.983 111.622 117.67 116.12Z" fill="white"/>
</mask>
<g mask="url(#mask3_685_8856)">
<path fill-rule="evenodd" clip-rule="evenodd" d="M141.492 129.923C141.469 129.923 141.446 129.923 141.423 129.923C137.014 129.91 130.057 128.564 121.951 122.225L121.862 122.156L121.871 122.046C121.88 121.942 122.8 111.546 130.143 100.89L137.54 90.156L137.888 90.3902L130.491 101.124C123.617 111.098 122.42 120.832 122.301 121.969C126.727 125.412 133.61 129.484 141.424 129.507C141.446 129.507 141.469 129.507 141.491 129.507C146.14 129.507 148.938 128.051 148.966 128.036L149.165 128.402C149.047 128.465 146.244 129.923 141.492 129.923Z" fill="white"/>
</g>
<mask id="mask4_685_8856" style="mask-type:luminance" maskUnits="userSpaceOnUse" x="30" y="18" width="92" height="125">
<path fill-rule="evenodd" clip-rule="evenodd" d="M30 24.2454V136.974C30 140.357 32.813 142.92 36.3734 142.927H36.3977C36.582 142.927 36.7674 142.919 36.9555 142.905L116.018 136.936C119.33 136.686 122 133.819 122 130.531V26.5792C122 23.2912 119.33 20.5434 116.018 20.4412L36.9555 18.0037C36.8773 18.0012 36.799 18 36.7215 18C32.9976 17.9998 30 20.7524 30 24.2454Z" fill="white"/>
</mask>
<g mask="url(#mask4_685_8856)">
<path fill-rule="evenodd" clip-rule="evenodd" d="M30 24.2454V136.974C30 140.357 32.813 142.92 36.3734 142.927H36.3977C36.582 142.927 36.7674 142.919 36.9555 142.905L116.018 136.936C119.33 136.686 122 133.819 122 130.531V26.5792C122 23.2912 119.33 20.5434 116.018 20.4412L36.9555 18.0037C36.8773 18.0012 36.799 18 36.7215 18C32.9976 17.9998 30 20.7524 30 24.2454Z" fill="#DFE8F3"/>
</g>
<g filter="url(#filter0_d_685_8856)">
<path fill-rule="evenodd" clip-rule="evenodd" d="M32 137.529V23.5685C32 21.5146 33.8198 19.9019 36.057 19.9662L117.502 22.3072C119.437 22.3628 121 23.9487 121 25.8496V131.32C121 133.221 119.437 134.875 117.502 135.016L36.057 140.952C33.8198 141.116 32 139.583 32 137.529Z" fill="white"/>
</g>
<mask id="mask5_685_8856" style="mask-type:luminance" maskUnits="userSpaceOnUse" x="30" y="18" width="92" height="13">
<path fill-rule="evenodd" clip-rule="evenodd" d="M30 24.2859V28.9472L122 30.9331V26.6348C122 23.3256 119.33 20.56 116.018 20.4572L36.9555 18.0039C36.8774 18.0015 36.7991 18.0002 36.7216 18.0002C32.9977 18 30 20.7704 30 24.2859Z" fill="white"/>
</mask>
<g mask="url(#mask5_685_8856)">
<path fill-rule="evenodd" clip-rule="evenodd" d="M30 24.2859V28.9472L122 30.9331V26.6348C122 23.3256 119.33 20.56 116.018 20.4572L36.9555 18.0039C36.8774 18.0015 36.7991 18.0002 36.7216 18.0002C32.9977 18 30 20.7704 30 24.2859Z" fill="#DFE8F3"/>
</g>
<path fill-rule="evenodd" clip-rule="evenodd" d="M42.5222 24.3377C42.5222 25.5846 41.5251 26.5693 40.2928 26.537C39.0578 26.5046 38.0547 25.4635 38.0547 24.2118C38.0547 22.96 39.0578 21.9756 40.2928 22.0127C41.5251 22.0498 42.5222 23.0908 42.5222 24.3377Z" fill="white"/>
<path fill-rule="evenodd" clip-rule="evenodd" d="M50.2853 24.5565C50.2853 25.7951 49.3015 26.7734 48.0856 26.7415C46.8671 26.7096 45.8774 25.6757 45.8774 24.4323C45.8774 23.189 46.8671 22.2109 48.0856 22.2476C49.3015 22.2842 50.2853 23.3179 50.2853 24.5565Z" fill="white"/>
<path fill-rule="evenodd" clip-rule="evenodd" d="M57.9451 24.7722C57.9451 26.0026 56.9743 26.9745 55.7745 26.943C54.5722 26.9115 53.5957 25.8847 53.5957 24.6496C53.5957 23.4146 54.5722 22.4428 55.7745 22.479C56.9743 22.5151 57.9451 23.5418 57.9451 24.7722Z" fill="white"/>
<path fill-rule="evenodd" clip-rule="evenodd" d="M78.0679 59.0041C65.897 59.7209 56 69.9397 56 81.8262C56 93.7127 65.897 102.706 78.0679 101.916C90.1974 101.129 100 90.9157 100 79.1023C100 67.7288 90.915 58.9637 79.4139 58.9644C78.9691 58.9644 78.5195 58.9775 78.0679 59.0041Z" fill="#F4A018"/>
<path d="M87.5569 87.685L86.2018 85.753C85.3798 84.5982 84.9355 83.1992 84.9355 81.7779V77.4253C84.9355 73.8722 82.3363 70.9408 78.9151 70.4301V68.3648C78.9151 67.8318 78.493 67.4099 77.9599 67.4099C77.4267 67.4099 77.0046 67.8318 77.0046 68.3648V70.4079C73.4723 70.8298 70.7398 73.8056 70.7398 77.4475V81.9556C70.7398 83.5101 70.2289 84.9979 69.2736 86.2193L68.0962 87.7072L87.5569 87.685Z" fill="white"/>
<path d="M76.8046 90.8605C77.8487 91.3047 79.1372 91.0826 79.9814 90.3054C80.3591 89.9723 80.6256 89.5503 80.7811 89.084L75.1162 89.0396C75.405 89.839 76.0048 90.5274 76.8046 90.8605Z" fill="white"/>
<defs>
<filter id="filter0_d_685_8856" x="0" y="0.964355" width="153" height="185" filterUnits="userSpaceOnUse" color-interpolation-filters="sRGB">
<feFlood flood-opacity="0" result="BackgroundImageFix"/>
<feColorMatrix in="SourceAlpha" type="matrix" values="0 0 0 0 0 0 0 0 0 0 0 0 0 0 0 0 0 0 127 0" result="hardAlpha"/>
<feOffset dy="13"/>
<feGaussianBlur stdDeviation="16"/>
<feColorMatrix type="matrix" values="0 0 0 0 0.884025 0 0 0 0 0.898978 0 0 0 0 0.951313 0 0 0 1 0"/>
<feBlend mode="normal" in2="BackgroundImageFix" result="effect1_dropShadow_685_8856"/>
<feBlend mode="normal" in="SourceGraphic" in2="effect1_dropShadow_685_8856" result="shape"/>
</filter>
</defs>
</svg>
