<svg width="181" height="60" viewBox="0 0 181 60" fill="none" xmlns="http://www.w3.org/2000/svg">
<mask id="mask0" mask-type="alpha" maskUnits="userSpaceOnUse" x="31" y="38" width="22" height="22">
<path fill-rule="evenodd" clip-rule="evenodd" d="M31.6929 38.8715H52.8214V59.9999H31.6929V38.8715Z" fill="white"/>
</mask>
<g mask="url(#mask0)">
<path fill-rule="evenodd" clip-rule="evenodd" d="M52.8214 55.7981C52.8214 58.0794 50.9005 60 48.6199 60C47.419 60 46.3385 59.5195 45.4984 58.6793L32.0533 44.0333C31.5727 43.5535 31.5727 42.8331 32.0533 42.353L35.1744 39.2319C35.6541 38.7513 36.3745 38.7513 36.8551 39.2319L51.5007 52.7967C52.3409 53.5171 52.8214 54.7177 52.8214 55.7981Z" fill="#002E9D"/>
</g>
<path fill-rule="evenodd" clip-rule="evenodd" d="M28.8408 38.3971L31.2176 36.0204L34.7831 39.5855L32.406 41.9627L28.8408 38.3971Z" fill="#E8EBF4"/>
<path fill-rule="evenodd" clip-rule="evenodd" d="M33.0134 40.1918L33.6133 40.792L34.8143 39.5919L31.2126 35.9902L28.8115 38.3913L30.6123 40.1918C31.3328 39.4717 32.293 39.4717 33.0134 40.1918Z" fill="#E0E5F2"/>
<path fill-rule="evenodd" clip-rule="evenodd" d="M18.007 39.5918C10.0837 39.5918 3.60164 33.1089 3.60164 25.186C3.60164 17.2627 10.0837 10.7802 18.007 10.7802C25.9303 10.7802 32.4128 17.2627 32.4128 25.186C32.4128 33.1089 25.9303 39.5918 18.007 39.5918ZM18.007 7.17859C8.04304 7.17859 0 15.222 0 25.186C0 35.15 8.04304 43.1935 18.007 43.1935C27.9714 43.1935 36.0145 35.15 36.0145 25.186C36.0145 15.222 27.9714 7.17859 18.007 7.17859Z" fill="#E8EBF4"/>
<path fill-rule="evenodd" clip-rule="evenodd" d="M4.80211 26.3862C4.80211 18.4629 11.285 11.9808 19.2079 11.9808C22.9293 11.9808 26.1709 13.4212 28.8115 15.5817C26.1709 12.5807 22.3294 10.7803 18.0074 10.7803C10.0841 10.7803 3.60156 17.2628 3.60156 25.1857C3.60156 29.5077 5.52252 33.3492 8.40376 35.9902C6.24253 33.3492 4.80211 30.1076 4.80211 26.3862Z" fill="#E0E5F2"/>
<path fill-rule="evenodd" clip-rule="evenodd" d="M18.0068 43.1933C27.9712 43.1933 36.0143 35.1499 36.0143 25.1859C35.414 25.1859 34.8141 25.6661 34.8141 26.3861C34.5735 30.4682 32.7726 34.1892 30.0119 36.9507C27.2508 39.8316 23.4093 41.6324 19.2078 41.9924C18.4874 41.9924 18.0068 42.5931 18.0068 43.1933Z" fill="#E0E5F2"/>
<path fill-rule="evenodd" clip-rule="evenodd" d="M51.3804 52.677L50.6604 52.0771C51.2603 52.7971 51.6207 53.7574 51.6207 54.7177C51.6207 56.2786 49.7001 56.8785 48.6197 55.7981L36.0144 43.1935C35.2939 42.4731 34.2135 42.4731 33.4931 43.1935L32.293 44.3937L45.3781 58.4394C46.0985 59.1599 47.0588 59.7597 48.0191 59.8803C49.3397 60 50.6604 59.5199 51.5006 58.6793C52.3407 57.8388 52.8212 56.5185 52.7011 55.1982C52.7011 54.2379 52.1008 53.3974 51.3804 52.677Z" fill="#012881"/>
<mask id="mask1" mask-type="alpha" maskUnits="userSpaceOnUse" x="2" y="0" width="37" height="33">
<path fill-rule="evenodd" clip-rule="evenodd" d="M2.14355 0.123413H38.9508V32.9902H2.14355V0.123413Z" fill="white"/>
</mask>
<g mask="url(#mask1)">
<path fill-rule="evenodd" clip-rule="evenodd" d="M2.14355 19.0441C2.24196 18.959 3.26891 19.4828 3.37518 19.5286C4.41787 19.9809 5.42829 20.505 6.39659 21.0974C8.90432 22.6112 11.007 24.6964 12.5287 27.1776C13.7663 29.2112 14.7043 32.9898 17.6965 32.9898C19.1301 32.9898 20.7597 33.0357 21.8492 31.9568C23.1808 30.6368 23.2048 28.7103 23.6165 27.0068C25.6563 18.9695 29.5519 11.5061 34.9984 5.19841C35.3326 4.80397 35.673 4.4134 36.0171 4.02711C36.7161 3.2518 37.4585 2.51493 38.2394 1.8196C38.3461 1.72487 38.5295 1.53037 38.7488 1.3083C38.9495 1.10641 39.0066 0.804756 38.8932 0.545026C38.7802 0.284908 38.5189 0.118356 38.2319 0.123403C33.7305 0.263944 23.021 2.58792 16.9896 20.439C16.9896 20.439 7.79865 14.1632 2.14355 19.0441Z" fill="#66C346"/>
</g>
<path fill-rule="evenodd" clip-rule="evenodd" d="M24.5122 12.8976C24.3932 12.8976 24.2766 12.867 24.1728 12.8082C23.835 12.62 23.7129 12.1913 23.9006 11.8513C27.4671 5.39642 31.7284 3.20074 31.9055 3.11093C32.2515 2.93603 32.6728 3.07564 32.8472 3.42348C33.0208 3.77172 32.8819 4.19525 32.5359 4.37054C32.4828 4.3976 28.463 6.49956 25.127 12.5349C25.0033 12.7592 24.7673 12.8984 24.5122 12.8976Z" fill="#9BD786"/>
<path fill-rule="evenodd" clip-rule="evenodd" d="M22.4101 16.419C22.1671 16.419 21.942 16.2923 21.8149 16.0849C21.6869 15.8774 21.6752 15.6182 21.7841 15.3998L22.4843 13.9916C22.5966 13.7661 22.8194 13.6178 23.069 13.6029C23.3194 13.588 23.5582 13.7084 23.6959 13.9182C23.834 14.1284 23.8492 14.3966 23.738 14.6217L23.037 16.0304C22.9184 16.2688 22.6754 16.4194 22.4101 16.419Z" fill="#9BD786"/>
<path fill-rule="evenodd" clip-rule="evenodd" d="M63.5227 41.7124C62.45 41.7124 61.5587 41.3481 60.8487 40.6198C60.131 39.8775 59.7725 38.9492 59.7725 37.8351C59.7725 36.7214 60.131 35.7967 60.8487 35.0614C61.5587 34.3261 62.45 33.9583 63.5227 33.9583C64.3396 33.9583 65.0495 34.1547 65.6534 34.5473V35.083C65.007 34.6473 64.3002 34.4296 63.5333 34.4296C62.6099 34.4296 61.8356 34.7543 61.2107 35.4041C60.5858 36.0394 60.2733 36.85 60.2733 37.8351C60.2733 38.8135 60.5858 39.6277 61.2107 40.2771C61.8356 40.9198 62.6135 41.2414 63.5442 41.2414C64.4317 41.2414 65.1915 40.9806 65.8239 40.4594V41.0053C65.206 41.4767 64.4391 41.7124 63.5227 41.7124Z" fill="#809090"/>
<path fill-rule="evenodd" clip-rule="evenodd" d="M68.0612 40.6309C68.4941 41.052 69.02 41.2626 69.6375 41.2626C70.2628 41.2626 70.7843 41.052 71.2041 40.6309C71.63 40.2022 71.843 39.6705 71.843 39.0348C71.843 38.3995 71.63 37.8673 71.2041 37.4387C70.7843 37.0109 70.2628 36.7964 69.6375 36.7964C69.0126 36.7964 68.4871 37.0109 68.0612 37.4387C67.6418 37.8748 67.4323 38.4066 67.4323 39.0348C67.4323 39.663 67.6418 40.1952 68.0612 40.6309ZM71.577 40.9309C71.0792 41.452 70.4333 41.7124 69.6375 41.7124C68.8347 41.7124 68.1852 41.452 67.6882 40.9309C67.1909 40.4097 66.9424 39.7775 66.9424 39.0348C66.9424 38.2924 67.1909 37.6603 67.6882 37.1391C68.1922 36.6109 68.8421 36.3466 69.6375 36.3466C70.4259 36.3466 71.0726 36.6109 71.577 37.1391C72.081 37.6673 72.333 38.2995 72.333 39.0348C72.333 39.7705 72.081 40.4022 71.577 40.9309Z" fill="#809090"/>
<path fill-rule="evenodd" clip-rule="evenodd" d="M74.9752 41.7124C74.6483 41.7124 74.3839 41.6159 74.1818 41.4234C73.979 41.2304 73.8779 40.9308 73.8779 40.5238V34.0869H74.3573V40.4273C74.3573 40.9842 74.6097 41.263 75.1137 41.263C75.3056 41.263 75.4831 41.2128 75.6466 41.1128V41.5626C75.4617 41.6626 75.2382 41.7124 74.9752 41.7124Z" fill="#809090"/>
<path fill-rule="evenodd" clip-rule="evenodd" d="M77.9474 41.7124C77.6209 41.7124 77.356 41.6159 77.154 41.4234C76.9511 41.2304 76.8501 40.9308 76.8501 40.5238V34.0869H77.3295V40.4273C77.3295 40.9842 77.5819 41.263 78.0859 41.263C78.2778 41.263 78.4553 41.2128 78.6187 41.1128V41.5626C78.4338 41.6626 78.2103 41.7124 77.9474 41.7124Z" fill="#809090"/>
<path fill-rule="evenodd" clip-rule="evenodd" d="M79.94 38.6812H83.8393C83.8393 38.4816 83.8035 38.2781 83.7329 38.0706C83.6615 37.8639 83.5569 37.662 83.4184 37.4655C83.28 37.2694 83.083 37.1086 82.8271 36.9839C82.5716 36.8592 82.2841 36.7961 81.9638 36.7961C81.3678 36.7961 80.8883 36.9894 80.526 37.3749C80.1636 37.76 79.9681 38.1961 79.94 38.6812ZM82.2201 41.7122C81.4173 41.7122 80.7569 41.4628 80.2385 40.9624C79.7126 40.4557 79.4497 39.8133 79.4497 39.0345C79.4497 38.2639 79.6845 37.6247 80.153 37.1177C80.6219 36.6035 81.2293 36.3467 81.9751 36.3467C82.3937 36.3467 82.7631 36.4306 83.083 36.5981C83.4025 36.7659 83.6474 36.9926 83.8179 37.2784C84.1518 37.8137 84.3188 38.3671 84.3188 38.9384V39.0988H79.9295C79.9436 39.749 80.1671 40.2702 80.6005 40.6628C81.0409 41.0628 81.6022 41.2628 82.2841 41.2628C82.8946 41.2628 83.4415 41.102 83.9248 40.7808V41.2518C83.5265 41.5592 82.9585 41.7122 82.2201 41.7122Z" fill="#809090"/>
<path fill-rule="evenodd" clip-rule="evenodd" d="M88.1643 41.7124C87.3829 41.7124 86.7436 41.452 86.2466 40.9309C85.7422 40.4022 85.4902 39.7669 85.4902 39.0242C85.4902 38.2889 85.7422 37.6568 86.2466 37.1285C86.7436 36.6073 87.3864 36.3466 88.1748 36.3466C88.7428 36.3466 89.2546 36.4787 89.709 36.743V37.214C89.2331 36.9356 88.7397 36.7964 88.2282 36.7964C87.5889 36.7964 87.0525 37.0109 86.6195 37.4391C86.1932 37.8673 85.9802 38.3995 85.9802 39.0348C85.9802 39.6705 86.1932 40.2022 86.6195 40.6309C87.0599 41.052 87.5959 41.263 88.2282 41.263C88.8247 41.263 89.3505 41.1019 89.805 40.7807V41.263C89.3575 41.5626 88.8103 41.7124 88.1643 41.7124Z" fill="#809090"/>
<path fill-rule="evenodd" clip-rule="evenodd" d="M93.4057 41.7124C92.9727 41.7124 92.6442 41.5841 92.4207 41.3269C92.1964 41.0696 92.0844 40.7092 92.0844 40.2453V36.9143H90.7847V36.4751H92.0844V34.8253H92.5642V36.4751H94.4605V36.9143H92.5642V40.1167C92.5642 40.5237 92.6387 40.8167 92.7878 40.9947C92.9372 41.1736 93.1821 41.263 93.5231 41.263C93.8281 41.263 94.116 41.1841 94.3859 41.0269V41.4767C94.1655 41.6339 93.8387 41.7124 93.4057 41.7124Z" fill="#809090"/>
<path fill-rule="evenodd" clip-rule="evenodd" d="M95.6435 43.2121H95.228L96.0375 40.6521H96.6339L95.6435 43.2121Z" fill="#809090"/>
<path fill-rule="evenodd" clip-rule="evenodd" d="M103.442 41.7124C102.909 41.7124 102.394 41.6359 101.897 41.4822C101.4 41.3284 101.005 41.1379 100.714 40.9092V40.3414C100.991 40.5771 101.371 40.7881 101.854 40.9732C102.323 41.152 102.838 41.2414 103.399 41.2414C104.038 41.2414 104.567 41.0951 104.987 40.8022C105.406 40.5096 105.615 40.1167 105.615 39.6241C105.615 39.2312 105.473 38.899 105.189 38.6281C105.061 38.5139 104.891 38.41 104.678 38.3175C104.486 38.2245 104.287 38.1457 104.081 38.0814C103.981 38.0457 103.747 37.9783 103.378 37.8783L102.579 37.6426C102.323 37.5426 102.106 37.4496 101.929 37.3641C101.595 37.1928 101.353 36.9912 101.204 36.7586C101.055 36.5269 100.97 36.2112 100.948 35.8108C100.948 35.2826 101.165 34.8433 101.599 34.4935C102.039 34.1367 102.646 33.9583 103.42 33.9583C104.28 33.9583 105.033 34.1688 105.679 34.59V35.1151C105.004 34.6579 104.258 34.4296 103.442 34.4296C102.802 34.4296 102.309 34.5598 101.961 34.8202C101.613 35.081 101.439 35.4143 101.439 35.8218C101.403 36.1932 101.602 36.543 102.036 36.8712C102.121 36.9288 102.259 36.9963 102.451 37.0747C102.65 37.1535 102.802 37.2073 102.909 37.2355L103.42 37.3853L103.644 37.4496L104.369 37.6747C104.525 37.7175 104.742 37.8104 105.019 37.9532C105.267 38.0673 105.462 38.1959 105.604 38.3386C105.945 38.6814 106.115 39.1096 106.115 39.6241C106.115 40.281 105.856 40.7951 105.338 41.1661C104.813 41.5304 104.181 41.7124 103.442 41.7124Z" fill="#809090"/>
<path fill-rule="evenodd" clip-rule="evenodd" d="M109.567 41.7124C109.134 41.7124 108.806 41.5841 108.582 41.3269C108.358 41.0696 108.246 40.7092 108.246 40.2453V36.9143H106.946V36.4751H108.246V34.8253H108.726V36.4751H110.622V36.9143H108.726V40.1167C108.726 40.5237 108.8 40.8167 108.949 40.9947C109.099 41.1736 109.344 41.263 109.685 41.263C109.99 41.263 110.278 41.1841 110.548 41.0269V41.4767C110.327 41.6339 110 41.7124 109.567 41.7124Z" fill="#809090"/>
<path fill-rule="evenodd" clip-rule="evenodd" d="M112.742 40.6309C113.175 41.052 113.701 41.2626 114.319 41.2626C114.944 41.2626 115.466 41.052 115.885 40.6309C116.311 40.2022 116.524 39.6705 116.524 39.0348C116.524 38.3995 116.311 37.8673 115.885 37.4387C115.466 37.0109 114.944 36.7964 114.319 36.7964C113.694 36.7964 113.169 37.0109 112.742 37.4387C112.323 37.8748 112.114 38.4066 112.114 39.0348C112.114 39.663 112.323 40.1952 112.742 40.6309ZM116.258 40.9309C115.761 41.452 115.114 41.7124 114.319 41.7124C113.516 41.7124 112.866 41.452 112.369 40.9309C111.872 40.4097 111.624 39.7775 111.624 39.0348C111.624 38.2924 111.872 37.6603 112.369 37.1391C112.873 36.6109 113.523 36.3466 114.319 36.3466C115.107 36.3466 115.754 36.6109 116.258 37.1391C116.762 37.6673 117.015 38.2995 117.015 39.0348C117.015 39.7705 116.762 40.4022 116.258 40.9309Z" fill="#809090"/>
<path fill-rule="evenodd" clip-rule="evenodd" d="M119.038 41.5841H118.559V36.475H119.038V37.546C119.23 37.2033 119.513 36.9194 119.886 36.6946C120.258 36.4695 120.662 36.3539 121.095 36.3468V36.839C120.612 36.839 120.189 36.9786 119.827 37.257C119.465 37.5284 119.202 37.8425 119.038 38.1994V41.5841Z" fill="#809090"/>
<path fill-rule="evenodd" clip-rule="evenodd" d="M122.352 38.6812H126.251C126.251 38.4816 126.216 38.2781 126.145 38.0706C126.074 37.8639 125.969 37.662 125.831 37.4655C125.692 37.2694 125.495 37.1086 125.239 36.9839C124.983 36.8592 124.696 36.7961 124.376 36.7961C123.779 36.7961 123.3 36.9894 122.938 37.3749C122.576 37.76 122.38 38.1961 122.352 38.6812ZM124.632 41.7122C123.829 41.7122 123.169 41.4628 122.65 40.9624C122.124 40.4557 121.862 39.8133 121.862 39.0345C121.862 38.2639 122.096 37.6247 122.565 37.1177C123.034 36.6035 123.641 36.3467 124.387 36.3467C124.806 36.3467 125.175 36.4306 125.495 36.5981C125.815 36.7659 126.06 36.9926 126.23 37.2784C126.564 37.8137 126.731 38.3671 126.731 38.9384V39.0988H122.341C122.356 39.749 122.579 40.2702 123.012 40.6628C123.453 41.0628 124.014 41.2628 124.696 41.2628C125.306 41.2628 125.854 41.102 126.336 40.7808V41.2518C125.939 41.5592 125.37 41.7122 124.632 41.7122Z" fill="#809090"/>
<path fill-rule="evenodd" clip-rule="evenodd" d="M132.793 41.2628C133.197 41.2628 133.577 41.1663 133.933 40.9733C134.288 40.7808 134.575 40.5377 134.796 40.2451V39.3988C134.185 38.9992 133.563 38.7992 132.931 38.7992C132.399 38.7992 131.976 38.9118 131.663 39.1365C131.351 39.3612 131.194 39.6596 131.194 40.0306C131.194 40.431 131.344 40.7361 131.642 40.9463C131.94 41.1573 132.324 41.2628 132.793 41.2628ZM132.654 41.7122C132.129 41.7122 131.667 41.5659 131.269 41.273C130.885 40.9733 130.694 40.5632 130.694 40.0416C130.694 39.5349 130.893 39.131 131.29 38.8314C131.688 38.5247 132.193 38.371 132.803 38.371C133.528 38.371 134.192 38.5569 134.796 38.9279V38.253C134.796 37.282 134.192 36.7961 132.984 36.7961C132.374 36.7961 131.798 36.9784 131.258 37.3428V36.8498C131.777 36.5145 132.381 36.3467 133.07 36.3467C133.752 36.3467 134.29 36.5055 134.684 36.8232C135.078 37.1408 135.275 37.6032 135.275 38.2102V40.4808C135.275 40.702 135.325 40.8788 135.424 41.0106C135.524 41.1431 135.659 41.209 135.829 41.209C135.942 41.209 136.042 41.1879 136.127 41.1447V41.5412C136.028 41.5981 135.889 41.6267 135.712 41.6267C135.47 41.6267 135.27 41.5498 135.11 41.3965C134.95 41.2428 134.86 41.0235 134.838 40.7377C134.284 41.3875 133.556 41.7122 132.654 41.7122Z" fill="#809090"/>
<path fill-rule="evenodd" clip-rule="evenodd" d="M137.885 37.9854V41.5842H137.405V36.4748H137.885V37.3642C138.126 37.0713 138.439 36.8285 138.822 36.636C139.206 36.4426 139.614 36.3466 140.048 36.3466C140.687 36.3466 141.175 36.5305 141.512 36.8983C141.85 37.2658 142.019 37.7924 142.019 38.4779V41.5842H141.539V38.5744C141.539 37.8391 141.347 37.3501 140.964 37.1069C140.651 36.8999 140.299 36.7964 139.909 36.7964C139.511 36.7964 139.124 36.9175 138.748 37.1603C138.364 37.396 138.077 37.6709 137.885 37.9854Z" fill="#809090"/>
<path fill-rule="evenodd" clip-rule="evenodd" d="M146.141 41.2627C146.582 41.2627 146.987 41.1447 147.356 40.9094C147.726 40.6733 147.992 40.3702 148.155 39.9984V38.0706C147.985 37.6996 147.713 37.3945 147.34 37.1549C146.967 36.9161 146.568 36.7961 146.141 36.7961C145.516 36.7961 144.995 37.0106 144.575 37.4388C144.164 37.8604 143.957 38.3922 143.957 39.0345C143.957 39.6773 144.164 40.2094 144.575 40.631C144.995 41.0522 145.516 41.2627 146.141 41.2627ZM146.056 41.7122C145.282 41.7122 144.657 41.4518 144.182 40.9306C143.705 40.4094 143.468 39.7777 143.468 39.0345C143.468 38.2926 143.705 37.66 144.182 37.1388C144.664 36.611 145.289 36.3467 146.056 36.3467C146.959 36.3467 147.658 36.6929 148.155 37.3851V34.0867H148.635V41.5839H148.155V40.6839C147.651 41.3694 146.951 41.7122 146.056 41.7122Z" fill="#809090"/>
<path fill-rule="evenodd" clip-rule="evenodd" d="M155.698 41.7124C155.165 41.7124 154.65 41.6359 154.153 41.4822C153.656 41.3284 153.262 41.1379 152.971 40.9092V40.3414C153.248 40.5771 153.627 40.7881 154.111 40.9732C154.579 41.152 155.094 41.2414 155.655 41.2414C156.294 41.2414 156.824 41.0951 157.243 40.8022C157.662 40.5096 157.871 40.1167 157.871 39.6241C157.871 39.2312 157.729 38.899 157.445 38.6281C157.317 38.5139 157.147 38.41 156.934 38.3175C156.742 38.2245 156.543 38.1457 156.337 38.0814C156.238 38.0457 156.003 37.9783 155.634 37.8783L154.835 37.6426C154.579 37.5426 154.363 37.4496 154.185 37.3641C153.852 37.1928 153.61 36.9912 153.461 36.7586C153.312 36.5269 153.226 36.2112 153.205 35.8108C153.205 35.2826 153.422 34.8433 153.855 34.4935C154.295 34.1367 154.902 33.9583 155.677 33.9583C156.536 33.9583 157.289 34.1688 157.935 34.59V35.1151C157.26 34.6579 156.515 34.4296 155.698 34.4296C155.059 34.4296 154.565 34.5598 154.217 34.8202C153.869 35.081 153.695 35.4143 153.695 35.8218C153.659 36.1932 153.859 36.543 154.292 36.8712C154.377 36.9288 154.515 36.9963 154.707 37.0747C154.906 37.1535 155.059 37.2073 155.165 37.2355L155.677 37.3853L155.901 37.4496L156.625 37.6747C156.781 37.7175 156.998 37.8104 157.275 37.9532C157.523 38.0673 157.718 38.1959 157.861 38.3386C158.202 38.6814 158.372 39.1096 158.372 39.6241C158.372 40.281 158.112 40.7951 157.594 41.1661C157.069 41.5304 156.437 41.7124 155.698 41.7124Z" fill="#809090"/>
<path fill-rule="evenodd" clip-rule="evenodd" d="M160.535 37.9853V41.5842H160.055V34.0869H160.535V37.3642C160.776 37.0712 161.089 36.8285 161.472 36.6359C161.856 36.4426 162.264 36.3465 162.697 36.3465C163.337 36.3465 163.825 36.5304 164.162 36.8983C164.499 37.2657 164.668 37.7924 164.668 38.4779V41.5842H164.189V38.5744C164.189 37.8391 163.997 37.3501 163.614 37.1069C163.301 36.8999 162.949 36.7963 162.559 36.7963C162.161 36.7963 161.774 36.9175 161.397 37.1602C161.014 37.3959 160.726 37.6708 160.535 37.9853Z" fill="#809090"/>
<path fill-rule="evenodd" clip-rule="evenodd" d="M168.152 41.2628C168.557 41.2628 168.937 41.1663 169.292 40.9733C169.647 40.7808 169.935 40.5377 170.155 40.2451V39.3988C169.544 38.9992 168.923 38.7992 168.29 38.7992C167.758 38.7992 167.335 38.9118 167.023 39.1365C166.71 39.3612 166.554 39.6596 166.554 40.0306C166.554 40.431 166.703 40.7361 167.002 40.9463C167.3 41.1573 167.683 41.2628 168.152 41.2628ZM168.013 41.7122C167.488 41.7122 167.026 41.5659 166.629 41.273C166.245 40.9733 166.053 40.5632 166.053 40.0416C166.053 39.5349 166.252 39.131 166.65 38.8314C167.048 38.5247 167.552 38.371 168.162 38.371C168.887 38.371 169.551 38.5569 170.155 38.9279V38.253C170.155 37.282 169.551 36.7961 168.344 36.7961C167.733 36.7961 167.158 36.9784 166.618 37.3428V36.8498C167.136 36.5145 167.74 36.3467 168.429 36.3467C169.111 36.3467 169.649 36.5055 170.043 36.8232C170.437 37.1408 170.634 37.6032 170.634 38.2102V40.4808C170.634 40.702 170.684 40.8788 170.783 41.0106C170.883 41.1431 171.018 41.209 171.188 41.209C171.302 41.209 171.401 41.1879 171.487 41.1447V41.5412C171.387 41.5981 171.248 41.6267 171.071 41.6267C170.829 41.6267 170.629 41.5498 170.469 41.3965C170.309 41.2428 170.219 41.0235 170.197 40.7377C169.643 41.3875 168.915 41.7122 168.013 41.7122Z" fill="#809090"/>
<path fill-rule="evenodd" clip-rule="evenodd" d="M173.244 41.5841H172.765V36.475H173.244V37.546C173.436 37.2033 173.718 36.9194 174.091 36.6946C174.464 36.4695 174.867 36.3539 175.3 36.3468V36.839C174.817 36.839 174.394 36.9786 174.032 37.257C173.67 37.5284 173.408 37.8425 173.244 38.1994V41.5841Z" fill="#809090"/>
<mask id="mask2" mask-type="alpha" maskUnits="userSpaceOnUse" x="176" y="36" width="5" height="6">
<path fill-rule="evenodd" clip-rule="evenodd" d="M176.067 36.3467H180.936V41.7122H176.067V36.3467Z" fill="white"/>
</mask>
<g mask="url(#mask2)">
<path fill-rule="evenodd" clip-rule="evenodd" d="M176.557 38.6812H180.457C180.457 38.4816 180.421 38.2781 180.351 38.0706C180.279 37.8639 180.174 37.662 180.036 37.4655C179.898 37.2694 179.701 37.1086 179.444 36.9839C179.189 36.8592 178.901 36.7961 178.581 36.7961C177.985 36.7961 177.506 36.9894 177.143 37.3749C176.781 37.76 176.586 38.1961 176.557 38.6812ZM178.837 41.7122C178.035 41.7122 177.374 41.4628 176.856 40.9624C176.33 40.4557 176.067 39.8133 176.067 39.0345C176.067 38.2639 176.302 37.6247 176.771 37.1177C177.239 36.6035 177.847 36.3467 178.592 36.3467C179.011 36.3467 179.38 36.4306 179.701 36.5981C180.02 36.7659 180.265 36.9926 180.435 37.2784C180.769 37.8137 180.936 38.3671 180.936 38.9384V39.0988H176.547C176.561 39.749 176.785 40.2702 177.218 40.6628C177.658 41.0628 178.219 41.2628 178.901 41.2628C179.512 41.2628 180.059 41.102 180.542 40.7808V41.2518C180.144 41.5592 179.576 41.7122 178.837 41.7122Z" fill="#809090"/>
</g>
<path fill-rule="evenodd" clip-rule="evenodd" d="M63.5227 41.7124C62.45 41.7124 61.5587 41.3481 60.8487 40.6198C60.131 39.8775 59.7725 38.9492 59.7725 37.8351C59.7725 36.7214 60.131 35.7967 60.8487 35.0614C61.5587 34.3261 62.45 33.9583 63.5227 33.9583C64.3396 33.9583 65.0495 34.1547 65.6534 34.5473V35.083C65.007 34.6473 64.3002 34.4296 63.5333 34.4296C62.6099 34.4296 61.8356 34.7543 61.2107 35.4041C60.5858 36.0394 60.2733 36.85 60.2733 37.8351C60.2733 38.8135 60.5858 39.6277 61.2107 40.2771C61.8356 40.9198 62.6135 41.2414 63.5442 41.2414C64.4317 41.2414 65.1915 40.9806 65.8239 40.4594V41.0053C65.206 41.4767 64.4391 41.7124 63.5227 41.7124Z" fill="#809090"/>
<path fill-rule="evenodd" clip-rule="evenodd" d="M68.0612 40.6309C68.4941 41.052 69.02 41.2626 69.6375 41.2626C70.2628 41.2626 70.7843 41.052 71.2041 40.6309C71.63 40.2022 71.843 39.6705 71.843 39.0348C71.843 38.3995 71.63 37.8673 71.2041 37.4387C70.7843 37.0109 70.2628 36.7964 69.6375 36.7964C69.0126 36.7964 68.4871 37.0109 68.0612 37.4387C67.6418 37.8748 67.4323 38.4066 67.4323 39.0348C67.4323 39.663 67.6418 40.1952 68.0612 40.6309ZM71.577 40.9309C71.0792 41.452 70.4333 41.7124 69.6375 41.7124C68.8347 41.7124 68.1852 41.452 67.6882 40.9309C67.1909 40.4097 66.9424 39.7775 66.9424 39.0348C66.9424 38.2924 67.1909 37.6603 67.6882 37.1391C68.1922 36.6109 68.8421 36.3466 69.6375 36.3466C70.4259 36.3466 71.0726 36.6109 71.577 37.1391C72.081 37.6673 72.333 38.2995 72.333 39.0348C72.333 39.7705 72.081 40.4022 71.577 40.9309Z" fill="#809090"/>
<path fill-rule="evenodd" clip-rule="evenodd" d="M74.9752 41.7124C74.6483 41.7124 74.3839 41.6159 74.1818 41.4234C73.979 41.2304 73.8779 40.9308 73.8779 40.5238V34.0869H74.3573V40.4273C74.3573 40.9842 74.6097 41.263 75.1137 41.263C75.3056 41.263 75.4831 41.2128 75.6466 41.1128V41.5626C75.4617 41.6626 75.2382 41.7124 74.9752 41.7124Z" fill="#809090"/>
<path fill-rule="evenodd" clip-rule="evenodd" d="M77.9474 41.7124C77.6209 41.7124 77.356 41.6159 77.154 41.4234C76.9511 41.2304 76.8501 40.9308 76.8501 40.5238V34.0869H77.3295V40.4273C77.3295 40.9842 77.5819 41.263 78.0859 41.263C78.2778 41.263 78.4553 41.2128 78.6187 41.1128V41.5626C78.4338 41.6626 78.2103 41.7124 77.9474 41.7124Z" fill="#809090"/>
<path fill-rule="evenodd" clip-rule="evenodd" d="M79.94 38.6812H83.8393C83.8393 38.4816 83.8035 38.2781 83.7329 38.0706C83.6615 37.8639 83.5569 37.662 83.4184 37.4655C83.28 37.2694 83.083 37.1086 82.8271 36.9839C82.5716 36.8592 82.2841 36.7961 81.9638 36.7961C81.3678 36.7961 80.8883 36.9894 80.526 37.3749C80.1636 37.76 79.9681 38.1961 79.94 38.6812ZM82.2201 41.7122C81.4173 41.7122 80.7569 41.4628 80.2385 40.9624C79.7126 40.4557 79.4497 39.8133 79.4497 39.0345C79.4497 38.2639 79.6845 37.6247 80.153 37.1177C80.6219 36.6035 81.2293 36.3467 81.9751 36.3467C82.3937 36.3467 82.7631 36.4306 83.083 36.5981C83.4025 36.7659 83.6474 36.9926 83.8179 37.2784C84.1518 37.8137 84.3188 38.3671 84.3188 38.9384V39.0988H79.9295C79.9436 39.749 80.1671 40.2702 80.6005 40.6628C81.0409 41.0628 81.6022 41.2628 82.2841 41.2628C82.8946 41.2628 83.4415 41.102 83.9248 40.7808V41.2518C83.5265 41.5592 82.9585 41.7122 82.2201 41.7122Z" fill="#809090"/>
<path fill-rule="evenodd" clip-rule="evenodd" d="M88.1643 41.7124C87.3829 41.7124 86.7436 41.452 86.2466 40.9309C85.7422 40.4022 85.4902 39.7669 85.4902 39.0242C85.4902 38.2889 85.7422 37.6568 86.2466 37.1285C86.7436 36.6073 87.3864 36.3466 88.1748 36.3466C88.7428 36.3466 89.2546 36.4787 89.709 36.743V37.214C89.2331 36.9356 88.7397 36.7964 88.2282 36.7964C87.5889 36.7964 87.0525 37.0109 86.6195 37.4391C86.1932 37.8673 85.9802 38.3995 85.9802 39.0348C85.9802 39.6705 86.1932 40.2022 86.6195 40.6309C87.0599 41.052 87.5959 41.263 88.2282 41.263C88.8247 41.263 89.3505 41.1019 89.805 40.7807V41.263C89.3575 41.5626 88.8103 41.7124 88.1643 41.7124Z" fill="#809090"/>
<path fill-rule="evenodd" clip-rule="evenodd" d="M93.4057 41.7124C92.9727 41.7124 92.6442 41.5841 92.4207 41.3269C92.1964 41.0696 92.0844 40.7092 92.0844 40.2453V36.9143H90.7847V36.4751H92.0844V34.8253H92.5642V36.4751H94.4605V36.9143H92.5642V40.1167C92.5642 40.5237 92.6387 40.8167 92.7878 40.9947C92.9372 41.1736 93.1821 41.263 93.5231 41.263C93.8281 41.263 94.116 41.1841 94.3859 41.0269V41.4767C94.1655 41.6339 93.8387 41.7124 93.4057 41.7124Z" fill="#809090"/>
<path fill-rule="evenodd" clip-rule="evenodd" d="M95.6435 43.2121H95.228L96.0375 40.6521H96.6339L95.6435 43.2121Z" fill="#809090"/>
<path fill-rule="evenodd" clip-rule="evenodd" d="M103.442 41.7124C102.909 41.7124 102.394 41.6359 101.897 41.4822C101.4 41.3284 101.005 41.1379 100.714 40.9092V40.3414C100.991 40.5771 101.371 40.7881 101.854 40.9732C102.323 41.152 102.838 41.2414 103.399 41.2414C104.038 41.2414 104.567 41.0951 104.987 40.8022C105.406 40.5096 105.615 40.1167 105.615 39.6241C105.615 39.2312 105.473 38.899 105.189 38.6281C105.061 38.5139 104.891 38.41 104.678 38.3175C104.486 38.2245 104.287 38.1457 104.081 38.0814C103.981 38.0457 103.747 37.9783 103.378 37.8783L102.579 37.6426C102.323 37.5426 102.106 37.4496 101.929 37.3641C101.595 37.1928 101.353 36.9912 101.204 36.7586C101.055 36.5269 100.97 36.2112 100.948 35.8108C100.948 35.2826 101.165 34.8433 101.599 34.4935C102.039 34.1367 102.646 33.9583 103.42 33.9583C104.28 33.9583 105.033 34.1688 105.679 34.59V35.1151C105.004 34.6579 104.258 34.4296 103.442 34.4296C102.802 34.4296 102.309 34.5598 101.961 34.8202C101.613 35.081 101.439 35.4143 101.439 35.8218C101.403 36.1932 101.602 36.543 102.036 36.8712C102.121 36.9288 102.259 36.9963 102.451 37.0747C102.65 37.1535 102.802 37.2073 102.909 37.2355L103.42 37.3853L103.644 37.4496L104.369 37.6747C104.525 37.7175 104.742 37.8104 105.019 37.9532C105.267 38.0673 105.462 38.1959 105.604 38.3386C105.945 38.6814 106.115 39.1096 106.115 39.6241C106.115 40.281 105.856 40.7951 105.338 41.1661C104.813 41.5304 104.181 41.7124 103.442 41.7124Z" fill="#809090"/>
<path fill-rule="evenodd" clip-rule="evenodd" d="M109.567 41.7124C109.134 41.7124 108.806 41.5841 108.582 41.3269C108.358 41.0696 108.246 40.7092 108.246 40.2453V36.9143H106.946V36.4751H108.246V34.8253H108.726V36.4751H110.622V36.9143H108.726V40.1167C108.726 40.5237 108.8 40.8167 108.949 40.9947C109.099 41.1736 109.344 41.263 109.685 41.263C109.99 41.263 110.278 41.1841 110.548 41.0269V41.4767C110.327 41.6339 110 41.7124 109.567 41.7124Z" fill="#809090"/>
<path fill-rule="evenodd" clip-rule="evenodd" d="M112.742 40.6309C113.175 41.052 113.701 41.2626 114.319 41.2626C114.944 41.2626 115.466 41.052 115.885 40.6309C116.311 40.2022 116.524 39.6705 116.524 39.0348C116.524 38.3995 116.311 37.8673 115.885 37.4387C115.466 37.0109 114.944 36.7964 114.319 36.7964C113.694 36.7964 113.169 37.0109 112.742 37.4387C112.323 37.8748 112.114 38.4066 112.114 39.0348C112.114 39.663 112.323 40.1952 112.742 40.6309ZM116.258 40.9309C115.761 41.452 115.114 41.7124 114.319 41.7124C113.516 41.7124 112.866 41.452 112.369 40.9309C111.872 40.4097 111.624 39.7775 111.624 39.0348C111.624 38.2924 111.872 37.6603 112.369 37.1391C112.873 36.6109 113.523 36.3466 114.319 36.3466C115.107 36.3466 115.754 36.6109 116.258 37.1391C116.762 37.6673 117.015 38.2995 117.015 39.0348C117.015 39.7705 116.762 40.4022 116.258 40.9309Z" fill="#809090"/>
<path fill-rule="evenodd" clip-rule="evenodd" d="M119.038 41.5841H118.559V36.475H119.038V37.546C119.23 37.2033 119.513 36.9194 119.886 36.6946C120.258 36.4695 120.662 36.3539 121.095 36.3468V36.839C120.612 36.839 120.189 36.9786 119.827 37.257C119.465 37.5284 119.202 37.8425 119.038 38.1994V41.5841Z" fill="#809090"/>
<path fill-rule="evenodd" clip-rule="evenodd" d="M122.352 38.6812H126.251C126.251 38.4816 126.216 38.2781 126.145 38.0706C126.074 37.8639 125.969 37.662 125.831 37.4655C125.692 37.2694 125.495 37.1086 125.239 36.9839C124.983 36.8592 124.696 36.7961 124.376 36.7961C123.779 36.7961 123.3 36.9894 122.938 37.3749C122.576 37.76 122.38 38.1961 122.352 38.6812ZM124.632 41.7122C123.829 41.7122 123.169 41.4628 122.65 40.9624C122.124 40.4557 121.862 39.8133 121.862 39.0345C121.862 38.2639 122.096 37.6247 122.565 37.1177C123.034 36.6035 123.641 36.3467 124.387 36.3467C124.806 36.3467 125.175 36.4306 125.495 36.5981C125.815 36.7659 126.06 36.9926 126.23 37.2784C126.564 37.8137 126.731 38.3671 126.731 38.9384V39.0988H122.341C122.356 39.749 122.579 40.2702 123.012 40.6628C123.453 41.0628 124.014 41.2628 124.696 41.2628C125.306 41.2628 125.854 41.102 126.336 40.7808V41.2518C125.939 41.5592 125.37 41.7122 124.632 41.7122Z" fill="#809090"/>
<path fill-rule="evenodd" clip-rule="evenodd" d="M132.793 41.2628C133.197 41.2628 133.577 41.1663 133.933 40.9733C134.288 40.7808 134.575 40.5377 134.796 40.2451V39.3988C134.185 38.9992 133.563 38.7992 132.931 38.7992C132.399 38.7992 131.976 38.9118 131.663 39.1365C131.351 39.3612 131.194 39.6596 131.194 40.0306C131.194 40.431 131.344 40.7361 131.642 40.9463C131.94 41.1573 132.324 41.2628 132.793 41.2628ZM132.654 41.7122C132.129 41.7122 131.667 41.5659 131.269 41.273C130.885 40.9733 130.694 40.5632 130.694 40.0416C130.694 39.5349 130.893 39.131 131.29 38.8314C131.688 38.5247 132.193 38.371 132.803 38.371C133.528 38.371 134.192 38.5569 134.796 38.9279V38.253C134.796 37.282 134.192 36.7961 132.984 36.7961C132.374 36.7961 131.798 36.9784 131.258 37.3428V36.8498C131.777 36.5145 132.381 36.3467 133.07 36.3467C133.752 36.3467 134.29 36.5055 134.684 36.8232C135.078 37.1408 135.275 37.6032 135.275 38.2102V40.4808C135.275 40.702 135.325 40.8788 135.424 41.0106C135.524 41.1431 135.659 41.209 135.829 41.209C135.942 41.209 136.042 41.1879 136.127 41.1447V41.5412C136.028 41.5981 135.889 41.6267 135.712 41.6267C135.47 41.6267 135.27 41.5498 135.11 41.3965C134.95 41.2428 134.86 41.0235 134.838 40.7377C134.284 41.3875 133.556 41.7122 132.654 41.7122Z" fill="#809090"/>
<path fill-rule="evenodd" clip-rule="evenodd" d="M137.885 37.9854V41.5842H137.405V36.4748H137.885V37.3642C138.126 37.0713 138.439 36.8285 138.822 36.636C139.206 36.4426 139.614 36.3466 140.048 36.3466C140.687 36.3466 141.175 36.5305 141.512 36.8983C141.85 37.2658 142.019 37.7924 142.019 38.4779V41.5842H141.539V38.5744C141.539 37.8391 141.347 37.3501 140.964 37.1069C140.651 36.8999 140.299 36.7964 139.909 36.7964C139.511 36.7964 139.124 36.9175 138.748 37.1603C138.364 37.396 138.077 37.6709 137.885 37.9854Z" fill="#809090"/>
<path fill-rule="evenodd" clip-rule="evenodd" d="M146.141 41.2627C146.582 41.2627 146.987 41.1447 147.356 40.9094C147.726 40.6733 147.992 40.3702 148.155 39.9984V38.0706C147.985 37.6996 147.713 37.3945 147.34 37.1549C146.967 36.9161 146.568 36.7961 146.141 36.7961C145.516 36.7961 144.995 37.0106 144.575 37.4388C144.164 37.8604 143.957 38.3922 143.957 39.0345C143.957 39.6773 144.164 40.2094 144.575 40.631C144.995 41.0522 145.516 41.2627 146.141 41.2627ZM146.056 41.7122C145.282 41.7122 144.657 41.4518 144.182 40.9306C143.705 40.4094 143.468 39.7777 143.468 39.0345C143.468 38.2926 143.705 37.66 144.182 37.1388C144.664 36.611 145.289 36.3467 146.056 36.3467C146.959 36.3467 147.658 36.6929 148.155 37.3851V34.0867H148.635V41.5839H148.155V40.6839C147.651 41.3694 146.951 41.7122 146.056 41.7122Z" fill="#809090"/>
<path fill-rule="evenodd" clip-rule="evenodd" d="M155.698 41.7124C155.165 41.7124 154.65 41.6359 154.153 41.4822C153.656 41.3284 153.262 41.1379 152.971 40.9092V40.3414C153.248 40.5771 153.627 40.7881 154.111 40.9732C154.579 41.152 155.094 41.2414 155.655 41.2414C156.294 41.2414 156.824 41.0951 157.243 40.8022C157.662 40.5096 157.871 40.1167 157.871 39.6241C157.871 39.2312 157.729 38.899 157.445 38.6281C157.317 38.5139 157.147 38.41 156.934 38.3175C156.742 38.2245 156.543 38.1457 156.337 38.0814C156.238 38.0457 156.003 37.9783 155.634 37.8783L154.835 37.6426C154.579 37.5426 154.363 37.4496 154.185 37.3641C153.852 37.1928 153.61 36.9912 153.461 36.7586C153.312 36.5269 153.226 36.2112 153.205 35.8108C153.205 35.2826 153.422 34.8433 153.855 34.4935C154.295 34.1367 154.902 33.9583 155.677 33.9583C156.536 33.9583 157.289 34.1688 157.935 34.59V35.1151C157.26 34.6579 156.515 34.4296 155.698 34.4296C155.059 34.4296 154.565 34.5598 154.217 34.8202C153.869 35.081 153.695 35.4143 153.695 35.8218C153.659 36.1932 153.859 36.543 154.292 36.8712C154.377 36.9288 154.515 36.9963 154.707 37.0747C154.906 37.1535 155.059 37.2073 155.165 37.2355L155.677 37.3853L155.901 37.4496L156.625 37.6747C156.781 37.7175 156.998 37.8104 157.275 37.9532C157.523 38.0673 157.718 38.1959 157.861 38.3386C158.202 38.6814 158.372 39.1096 158.372 39.6241C158.372 40.281 158.112 40.7951 157.594 41.1661C157.069 41.5304 156.437 41.7124 155.698 41.7124Z" fill="#809090"/>
<path fill-rule="evenodd" clip-rule="evenodd" d="M160.535 37.9853V41.5842H160.055V34.0869H160.535V37.3642C160.776 37.0712 161.089 36.8285 161.472 36.6359C161.856 36.4426 162.264 36.3465 162.697 36.3465C163.337 36.3465 163.825 36.5304 164.162 36.8983C164.499 37.2657 164.668 37.7924 164.668 38.4779V41.5842H164.189V38.5744C164.189 37.8391 163.997 37.3501 163.614 37.1069C163.301 36.8999 162.949 36.7963 162.559 36.7963C162.161 36.7963 161.774 36.9175 161.397 37.1602C161.014 37.3959 160.726 37.6708 160.535 37.9853Z" fill="#809090"/>
<path fill-rule="evenodd" clip-rule="evenodd" d="M168.152 41.2628C168.557 41.2628 168.937 41.1663 169.292 40.9733C169.647 40.7808 169.935 40.5377 170.155 40.2451V39.3988C169.544 38.9992 168.923 38.7992 168.29 38.7992C167.758 38.7992 167.335 38.9118 167.023 39.1365C166.71 39.3612 166.554 39.6596 166.554 40.0306C166.554 40.431 166.703 40.7361 167.002 40.9463C167.3 41.1573 167.683 41.2628 168.152 41.2628ZM168.013 41.7122C167.488 41.7122 167.026 41.5659 166.629 41.273C166.245 40.9733 166.053 40.5632 166.053 40.0416C166.053 39.5349 166.252 39.131 166.65 38.8314C167.048 38.5247 167.552 38.371 168.162 38.371C168.887 38.371 169.551 38.5569 170.155 38.9279V38.253C170.155 37.282 169.551 36.7961 168.344 36.7961C167.733 36.7961 167.158 36.9784 166.618 37.3428V36.8498C167.136 36.5145 167.74 36.3467 168.429 36.3467C169.111 36.3467 169.649 36.5055 170.043 36.8232C170.437 37.1408 170.634 37.6032 170.634 38.2102V40.4808C170.634 40.702 170.684 40.8788 170.783 41.0106C170.883 41.1431 171.018 41.209 171.188 41.209C171.302 41.209 171.401 41.1879 171.487 41.1447V41.5412C171.387 41.5981 171.248 41.6267 171.071 41.6267C170.829 41.6267 170.629 41.5498 170.469 41.3965C170.309 41.2428 170.219 41.0235 170.197 40.7377C169.643 41.3875 168.915 41.7122 168.013 41.7122Z" fill="#809090"/>
<path fill-rule="evenodd" clip-rule="evenodd" d="M173.244 41.5841H172.765V36.475H173.244V37.546C173.436 37.2033 173.718 36.9194 174.091 36.6946C174.464 36.4695 174.867 36.3539 175.3 36.3468V36.839C174.817 36.839 174.394 36.9786 174.032 37.257C173.67 37.5284 173.408 37.8425 173.244 38.1994V41.5841Z" fill="#809090"/>
<mask id="mask3" mask-type="alpha" maskUnits="userSpaceOnUse" x="176" y="36" width="5" height="6">
<path fill-rule="evenodd" clip-rule="evenodd" d="M176.067 36.3467H180.936V41.7122H176.067V36.3467Z" fill="white"/>
</mask>
<g mask="url(#mask3)">
<path fill-rule="evenodd" clip-rule="evenodd" d="M176.557 38.6812H180.457C180.457 38.4816 180.421 38.2781 180.351 38.0706C180.279 37.8639 180.174 37.662 180.036 37.4655C179.898 37.2694 179.701 37.1086 179.444 36.9839C179.189 36.8592 178.901 36.7961 178.581 36.7961C177.985 36.7961 177.506 36.9894 177.143 37.3749C176.781 37.76 176.586 38.1961 176.557 38.6812ZM178.837 41.7122C178.035 41.7122 177.374 41.4628 176.856 40.9624C176.33 40.4557 176.067 39.8133 176.067 39.0345C176.067 38.2639 176.302 37.6247 176.771 37.1177C177.239 36.6035 177.847 36.3467 178.592 36.3467C179.011 36.3467 179.38 36.4306 179.701 36.5981C180.02 36.7659 180.265 36.9926 180.435 37.2784C180.769 37.8137 180.936 38.3671 180.936 38.9384V39.0988H176.547C176.561 39.749 176.785 40.2702 177.218 40.6628C177.658 41.0628 178.219 41.2628 178.901 41.2628C179.512 41.2628 180.059 41.102 180.542 40.7808V41.2518C180.144 41.5592 179.576 41.7122 178.837 41.7122Z" fill="#809090"/>
</g>
<path fill-rule="evenodd" clip-rule="evenodd" d="M60.6806 14.5145H55.9426V26.8051H53.4808V14.5145H48.7627V12.1843H60.6806V14.5145Z" fill="black"/>
<path fill-rule="evenodd" clip-rule="evenodd" d="M63.9626 25.238C64.701 25.238 65.299 25.0348 65.7574 24.6293C66.2153 24.2242 66.4443 23.5607 66.4443 22.6395V22.1858L63.8393 22.5776C62.9503 22.7293 62.506 23.1827 62.506 23.9387C62.506 24.2964 62.6359 24.6023 62.8961 24.856C63.1555 25.1109 63.5112 25.238 63.9626 25.238ZM60.1265 24.0831C60.1265 23.2309 60.4034 22.547 60.9573 22.0309C61.5113 21.5156 62.2392 21.1893 63.1418 21.0517L65.7063 20.6599C66.1982 20.5909 66.4443 20.3505 66.4443 19.938C66.4443 19.4842 66.2871 19.1168 65.9727 18.8348C65.6579 18.5532 65.1863 18.4121 64.5571 18.4121C63.9552 18.4121 63.4769 18.5803 63.1215 18.9172C62.7658 19.254 62.5602 19.6905 62.506 20.227L60.3317 19.7317C60.4272 18.8246 60.8579 18.0513 61.624 17.4121C62.3897 16.7725 63.3603 16.4532 64.5368 16.4532C65.9859 16.4532 67.0563 16.8034 67.7468 17.5046C68.4376 18.2058 68.7829 19.1062 68.7829 20.2062V25.1968C68.7829 25.8564 68.8238 26.3925 68.9061 26.805H66.6904C66.6218 26.5991 66.5879 26.1729 66.5879 25.5262C65.9317 26.5854 64.9062 27.1144 63.5112 27.1144C62.499 27.1144 61.6817 26.8152 61.0599 26.2172C60.4374 25.6195 60.1265 24.9078 60.1265 24.0831Z" fill="black"/>
<path fill-rule="evenodd" clip-rule="evenodd" d="M71.6548 26.805H74.0343V11.8752H71.6548V26.805Z" fill="black"/>
<path fill-rule="evenodd" clip-rule="evenodd" d="M78.7727 20.6803H83.6753C83.6476 20.0485 83.4257 19.5187 83.0086 19.0925C82.5913 18.6666 81.9933 18.4532 81.2139 18.4532C80.5027 18.4532 79.9281 18.6772 79.4909 19.1234C79.0532 19.5705 78.8137 20.0893 78.7727 20.6803ZM83.9421 23.2995L85.9522 23.9387C85.6651 24.8599 85.1284 25.6195 84.342 26.2172C83.5555 26.8156 82.5881 27.1144 81.4393 27.1144C80.0167 27.1144 78.8105 26.6266 77.8189 25.6505C76.8273 24.6744 76.3315 23.3681 76.3315 21.7325C76.3315 20.1929 76.8141 18.9274 77.778 17.938C78.7419 16.9478 79.8805 16.4532 81.1932 16.4532C82.7247 16.4532 83.9215 16.9242 84.7828 17.8654C85.6445 18.8074 86.0755 20.0756 86.0755 21.6701C86.0755 22.0964 86.0548 22.3509 86.0135 22.4332H78.7115C78.7384 23.1893 79.0153 23.8148 79.542 24.3097C80.0682 24.805 80.7009 25.0521 81.4393 25.0521C82.7247 25.0521 83.5591 24.4681 83.9421 23.2995Z" fill="black"/>
<path fill-rule="evenodd" clip-rule="evenodd" d="M90.7316 21.0104V26.8049H88.3521V16.7621H90.6699V18.1025C90.9844 17.5531 91.4053 17.1441 91.9315 16.8759C92.4577 16.6076 93.0218 16.4735 93.6237 16.4735C94.7998 16.4735 95.6958 16.8449 96.311 17.5872C96.9265 18.3296 97.2339 19.2853 97.2339 20.4535V26.8049H94.8544V20.8661C94.8544 20.1927 94.6902 19.6527 94.3625 19.2472C94.034 18.8421 93.5145 18.6386 92.8033 18.6386C92.1468 18.6386 91.6374 18.8621 91.2754 19.3092C90.9126 19.7559 90.7316 20.3229 90.7316 21.0104Z" fill="black"/>
<path fill-rule="evenodd" clip-rule="evenodd" d="M103.142 13.6897V16.7622H105.214V18.8866H103.142V23.547C103.142 23.987 103.244 24.3066 103.449 24.5058C103.654 24.7054 103.976 24.805 104.414 24.805C104.687 24.805 104.96 24.7771 105.234 24.7222V26.7022C104.878 26.8528 104.393 26.9289 103.777 26.9289C102.848 26.9289 102.116 26.6642 101.583 26.1348C101.05 25.6058 100.783 24.874 100.783 23.9387V18.8866H98.9365V16.7622H99.4495C99.955 16.7622 100.338 16.6179 100.598 16.3293C100.858 16.0407 100.988 15.6626 100.988 15.1952V13.6897H103.142Z" fill="black"/>
<path fill-rule="evenodd" clip-rule="evenodd" d="M119.367 27.1145C117.329 27.1145 115.595 26.4199 114.167 25.0313C112.738 23.6431 112.023 21.8011 112.023 19.505C112.023 17.2231 112.748 15.3807 114.197 13.9784C115.647 12.576 117.363 11.8752 119.346 11.8752C121.097 11.8752 122.536 12.3219 123.664 13.2156C124.793 14.1094 125.534 15.2435 125.89 16.6176L123.572 17.4015C123.339 16.4529 122.867 15.6835 122.156 15.0921C121.445 14.5011 120.509 14.205 119.346 14.205C118.047 14.205 116.922 14.6694 115.972 15.5972C115.021 16.525 114.547 17.8278 114.547 19.505C114.547 21.1411 115.018 22.4227 115.962 23.3509C116.905 24.2792 118.041 24.7427 119.367 24.7427C120.502 24.7427 121.439 24.4337 122.177 23.8149C122.916 23.1964 123.421 22.4329 123.695 21.5258L125.951 22.2686C125.596 23.6294 124.847 24.7772 123.705 25.7121C122.563 26.6474 121.117 27.1145 119.367 27.1145Z" fill="black"/>
<path fill-rule="evenodd" clip-rule="evenodd" d="M130.423 20.9074V26.805H128.043V11.8752H130.423V17.7313C131.065 16.8933 132.016 16.4733 133.275 16.4733C134.45 16.4733 135.353 16.845 135.982 17.587C136.611 18.3298 136.925 19.285 136.925 20.4537V26.805H134.546V20.8662C134.546 20.1929 134.382 19.6529 134.054 19.2474C133.725 18.8419 133.206 18.6388 132.495 18.6388C131.866 18.6388 131.37 18.8521 131.007 19.2784C130.645 19.7047 130.45 20.2474 130.423 20.9074Z" fill="black"/>
<path fill-rule="evenodd" clip-rule="evenodd" d="M141.479 20.6803H146.381C146.354 20.0485 146.132 19.5187 145.715 19.0925C145.297 18.6666 144.699 18.4532 143.92 18.4532C143.209 18.4532 142.634 18.6772 142.197 19.1234C141.759 19.5705 141.52 20.0893 141.479 20.6803ZM146.648 23.2995L148.658 23.9387C148.371 24.8599 147.834 25.6195 147.048 26.2172C146.262 26.8156 145.294 27.1144 144.145 27.1144C142.723 27.1144 141.517 26.6266 140.525 25.6505C139.533 24.6744 139.038 23.3681 139.038 21.7325C139.038 20.1929 139.52 18.9274 140.484 17.938C141.448 16.9478 142.587 16.4532 143.899 16.4532C145.431 16.4532 146.628 16.9242 147.489 17.8654C148.351 18.8074 148.782 20.0756 148.782 21.6701C148.782 22.0964 148.761 22.3509 148.72 22.4332H141.418C141.444 23.1893 141.721 23.8148 142.248 24.3097C142.774 24.805 143.407 25.0521 144.145 25.0521C145.431 25.0521 146.265 24.4681 146.648 23.2995Z" fill="black"/>
<path fill-rule="evenodd" clip-rule="evenodd" d="M155.407 18.6594C154.641 18.6594 153.992 18.9378 153.458 19.4947C152.925 20.0516 152.658 20.8112 152.658 21.7731C152.658 22.75 152.928 23.5198 153.469 24.0829C154.008 24.6472 154.668 24.9284 155.448 24.9284C156.146 24.9284 156.702 24.7398 157.12 24.3614C157.537 23.9833 157.814 23.5539 157.951 23.0727L160.043 23.8355C159.769 24.7296 159.239 25.499 158.453 26.1453C157.667 26.7916 156.665 27.1147 155.448 27.1147C153.985 27.1147 152.757 26.6061 151.766 25.5884C150.774 24.5712 150.279 23.2994 150.279 21.7731C150.279 20.2339 150.767 18.9618 151.745 17.9586C152.723 16.9547 153.937 16.4531 155.386 16.4531C156.631 16.4531 157.646 16.7763 158.433 17.4221C159.219 18.0684 159.728 18.8453 159.961 19.7523L157.827 20.5359C157.69 20.0139 157.428 19.5704 157.038 19.2061C156.648 18.8421 156.104 18.6594 155.407 18.6594Z" fill="black"/>
<path fill-rule="evenodd" clip-rule="evenodd" d="M171.51 16.7622L167.407 21.0104L171.592 26.8049H168.679L165.746 22.7014L164.515 24.0006V26.8049H162.156V11.8751H164.515V20.8245L168.35 16.7622H171.51Z" fill="black"/>
<path fill-rule="evenodd" clip-rule="evenodd" d="M172.432 24.0829L174.504 23.5053C174.545 23.9869 174.743 24.3923 175.099 24.7221C175.454 25.0523 175.933 25.2174 176.535 25.2174C177 25.2174 177.365 25.1072 177.632 24.8872C177.899 24.6672 178.032 24.3923 178.032 24.0621C178.032 23.4853 177.642 23.1135 176.863 22.9488L175.386 22.619C174.525 22.4265 173.861 22.0692 173.396 21.5465C172.931 21.0241 172.699 20.4057 172.699 19.6908C172.699 18.8112 173.054 18.0512 173.765 17.4119C174.476 16.7723 175.345 16.4531 176.371 16.4531C177.027 16.4531 177.608 16.5492 178.114 16.7418C178.62 16.9343 179.013 17.1849 179.294 17.4943C179.574 17.8037 179.789 18.1025 179.94 18.3912C180.09 18.6802 180.186 18.9688 180.227 19.2574L178.217 19.8351C178.162 19.4504 177.987 19.1029 177.694 18.7935C177.399 18.4845 176.959 18.3296 176.371 18.3296C175.96 18.3296 175.618 18.4429 175.345 18.6696C175.071 18.8967 174.935 19.1684 174.935 19.4841C174.935 20.0484 175.27 20.3986 175.94 20.5359L177.458 20.8453C178.388 21.0519 179.099 21.4229 179.591 21.959C180.083 22.4951 180.329 23.1418 180.329 23.8974C180.329 24.7363 179.998 25.4818 179.335 26.1347C178.671 26.7876 177.745 27.1143 176.555 27.1143C175.871 27.1143 175.259 27.0112 174.719 26.8049C174.179 26.599 173.755 26.3343 173.448 26.0112C173.14 25.6884 172.9 25.3653 172.73 25.0418C172.559 24.719 172.459 24.3994 172.432 24.0829Z" fill="black"/>
</svg>
