<svg width="25" height="25" viewBox="0 0 25 25" fill="none" xmlns="http://www.w3.org/2000/svg">
<g clip-path="url(#clip0_757_2382)">
<path d="M12.4993 3.07741C9.4026 3.07741 6.88471 5.5953 6.88471 8.69196V14.7958C6.88471 17.5583 8.88948 19.8614 11.5207 20.3268V22.3137C10.4647 22.4151 9.41454 22.6836 8.36442 23.1192C7.86322 23.328 7.63053 23.8948 7.83339 24.396C8.03626 24.8972 8.60905 25.1299 9.11024 24.927C11.3895 23.9843 13.6031 23.9843 15.8823 24.927C16.3656 25.1299 16.9503 24.9032 17.1592 24.396C17.368 23.8948 17.1293 23.328 16.6281 23.1192C15.578 22.6836 14.5279 22.4151 13.4718 22.3137V20.3208C16.1031 19.8554 18.1079 17.5523 18.1079 14.7898V8.69196C18.1138 5.5953 15.5959 3.07741 12.4993 3.07741ZM16.1627 14.7958C15.9599 19.6526 9.03864 19.6526 8.83578 14.7958V8.69196C9.03864 3.83516 15.9599 3.83516 16.1627 8.69196V14.7958ZM22.0219 8.7039C21.9682 9.99865 20.1186 9.99865 20.0709 8.7039C20.0709 5.7922 18.3704 3.10724 15.7391 1.86022C15.2499 1.62752 15.041 1.04877 15.2737 0.559506C15.5064 0.0702458 16.0852 -0.138585 16.5744 0.0941121C19.8501 1.60963 22.0577 5.08218 22.0219 8.7039ZM4.93363 8.7039C4.8859 9.99865 3.03029 9.99865 2.98256 8.7039C2.94079 5.08218 5.14843 1.60963 8.43005 0.0941121C8.91931 -0.138585 9.49807 0.0702458 9.73077 0.559506C9.96346 1.04877 9.75463 1.62752 9.26537 1.86022C6.63411 3.10724 4.93363 5.7922 4.93363 8.7039ZM13.7224 14.4497H11.2761C9.98136 14.396 9.98136 12.5464 11.2761 12.4986H13.7224C15.0172 12.5523 15.0172 14.402 13.7224 14.4497ZM1.87874 4.34829C2.28447 3.35187 2.83339 2.42108 3.50165 1.57979C3.83578 1.15616 3.76418 0.541606 3.34055 0.207477C2.91692 -0.126652 2.30237 -0.0550526 1.96824 0.368575C1.18661 1.35306 0.54819 2.44495 0.0708629 3.60843C-0.132001 4.10963 0.106662 4.67645 0.601889 4.88528C0.721221 4.93301 0.846519 4.95688 0.971818 4.95688C1.35965 4.95688 1.72361 4.73015 1.87874 4.34829ZM24.3907 4.88528C24.8919 4.68242 25.1305 4.10963 24.9217 3.60843C24.4444 2.44495 23.8059 1.35306 23.0243 0.368575C22.6902 -0.0550526 22.0756 -0.126652 21.652 0.207477C21.2284 0.541606 21.1568 1.15616 21.4909 1.57979C22.1592 2.42108 22.7021 3.35187 23.1138 4.34829C23.269 4.72418 23.6329 4.95688 24.0148 4.95688C24.146 4.95688 24.2713 4.93301 24.3907 4.88528Z" fill="#69C14E"/>
</g>
<defs>
<clipPath id="clip0_757_2382">
<rect width="25" height="25" fill="white"/>
</clipPath>
</defs>
</svg>
