<svg width="27" height="27" viewBox="0 0 27 27" fill="none" xmlns="http://www.w3.org/2000/svg">
<g clip-path="url(#clip0_757_2392)">
<path d="M18.652 11.4803H21.816C22.2537 11.4803 22.607 11.127 22.607 10.6893V5.00977C22.607 4.57207 22.2537 4.21875 21.816 4.21875H5.18359C4.7459 4.21875 4.39258 4.57207 4.39258 5.00977V10.6893C4.39258 11.127 4.7459 11.4803 5.18359 11.4803H8.34766C8.78535 11.4803 9.13867 11.127 9.13867 10.6893V8.96484H11.1268V20.1445H9.87168C9.43398 20.1445 9.08066 20.4979 9.08066 20.9355V24.0996C9.08066 24.5373 9.43398 24.8906 9.87168 24.8906H17.1332C17.5709 24.8906 17.9242 24.5373 17.9242 24.0996V20.9355C17.9242 20.4979 17.5709 20.1445 17.1332 20.1445H15.8729V8.96484H17.8609V10.6893C17.8609 11.127 18.2143 11.4803 18.652 11.4803ZM15.0818 7.38281C14.6441 7.38281 14.2908 7.73613 14.2908 8.17383V20.9355C14.2908 21.3732 14.6441 21.7266 15.0818 21.7266H16.3369V23.3086H10.6627V21.7266H11.9178C12.3555 21.7266 12.7088 21.3732 12.7088 20.9355V8.17383C12.7088 7.73613 12.3555 7.38281 11.9178 7.38281H8.34766C7.90996 7.38281 7.55664 7.73613 7.55664 8.17383V9.89824H5.97461V5.80078H21.025V9.89824H19.443V8.17383C19.443 7.73613 19.0897 7.38281 18.652 7.38281H15.0818Z" fill="#F09E3D"/>
<path d="M0.791016 6.02227C1.22871 6.02227 1.58203 5.66895 1.58203 5.23125V1.58203H5.23125C5.66895 1.58203 6.02227 1.22871 6.02227 0.791016C6.02227 0.35332 5.66895 0 5.23125 0H0.791016C0.35332 0 0 0.35332 0 0.791016V5.23125C0 5.66895 0.35332 6.02227 0.791016 6.02227Z" fill="#F09E3D"/>
<path d="M26.2088 0H21.7686C21.3309 0 20.9775 0.35332 20.9775 0.791016C20.9775 1.22871 21.3309 1.58203 21.7686 1.58203H25.4178V5.23125C25.4178 5.66895 25.7711 6.02227 26.2088 6.02227C26.6465 6.02227 26.9998 5.66895 26.9998 5.23125V0.791016C26.9998 0.35332 26.6465 0 26.2088 0Z" fill="#F09E3D"/>
<path d="M26.2088 20.9777C25.7711 20.9777 25.4178 21.331 25.4178 21.7687V25.4179H21.7686C21.3309 25.4179 20.9775 25.7712 20.9775 26.2089C20.9775 26.6466 21.3309 26.9999 21.7686 26.9999H26.2088C26.6465 26.9999 26.9998 26.6466 26.9998 26.2089V21.7687C26.9998 21.331 26.6465 20.9777 26.2088 20.9777Z" fill="#F09E3D"/>
<path d="M0.791016 26.9999H5.23125C5.66895 26.9999 6.02227 26.6466 6.02227 26.2089C6.02227 25.7712 5.66895 25.4179 5.23125 25.4179H1.58203V21.7687C1.58203 21.331 1.22871 20.9777 0.791016 20.9777C0.35332 20.9777 0 21.331 0 21.7687V26.2089C0 26.6466 0.35332 26.9999 0.791016 26.9999Z" fill="#F09E3D"/>
</g>
<defs>
<clipPath id="clip0_757_2392">
<rect width="27" height="27" fill="white"/>
</clipPath>
</defs>
</svg>
