<svg width="25" height="16" viewBox="0 0 25 16" fill="none" xmlns="http://www.w3.org/2000/svg">
<g clip-path="url(#clip0_757_2404)">
<path d="M24.5763 1.91146C24.3147 1.75 23.9851 1.73438 23.7079 1.86979L17.8542 4.78646V2.66667C17.8542 1.19271 16.6562 0 15.1758 0H2.67838C1.19795 0 0 1.19271 0 2.66667V13.3333C0 14.8073 1.19795 16 2.67838 16H15.1758C16.6562 16 17.8542 14.8073 17.8542 13.3333V11.2135L23.7027 14.1302C24.1421 14.349 24.6809 14.1719 24.9006 13.7344C24.9634 13.6094 24.9948 13.474 24.9948 13.3333V2.66667C25 2.35938 24.8378 2.07292 24.5763 1.91146ZM16.0703 13.3333C16.0703 13.8229 15.6727 14.224 15.1758 14.224H2.67838C2.18665 14.224 1.78385 13.8281 1.78385 13.3333V2.66667C1.78385 2.17708 2.18142 1.77604 2.67838 1.77604H15.1758C15.6675 1.77604 16.0703 2.17188 16.0703 2.66667V13.3333ZM23.2109 11.8958L17.8542 9.22917V6.77083L23.2109 4.10417V11.8958Z" fill="#4566B7"/>
<path d="M8.92937 4.44275C6.9572 4.44275 5.35645 6.0365 5.35645 8.00004C5.35645 9.96358 6.9572 11.5573 8.92937 11.5573C10.9015 11.5573 12.5023 9.96358 12.5023 8.00004C12.5023 6.0365 10.9015 4.44275 8.92937 4.44275ZM8.92937 9.77608C7.94067 9.77608 7.14552 8.97921 7.14552 8.00004C7.14552 7.02087 7.9459 6.224 8.92937 6.224C9.91284 6.224 10.7132 7.02087 10.7132 8.00004C10.7132 8.97921 9.91284 9.77608 8.92937 9.77608Z" fill="#4566B7"/>
</g>
<defs>
<clipPath id="clip0_757_2404">
<rect width="25" height="16" fill="white"/>
</clipPath>
</defs>
</svg>
