<svg width="351" height="409" viewBox="0 0 351 409" fill="none" xmlns="http://www.w3.org/2000/svg">
<path fill-rule="evenodd" clip-rule="evenodd" d="M-0.00012207 -458.756C19.1038 -319.032 143.124 -202.811 62.8389 -106.811C-17.446 -10.8109 101.113 88.2358 124.798 225.571C131.352 263.574 134.672 303.507 143.124 340.227C151.574 376.944 164.095 394.783 185.048 405.189C205.673 415.429 243.679 403.533 260.944 380.426C278.211 357.318 278.702 340.139 294.689 314.109C350.591 223.082 433.874 192.915 504.408 238.142C550.907 267.958 576.631 240.139 644.839 220.664C713.046 201.189 811.614 163.801 844.084 79.5797C876.553 -4.63879 831.088 9.92328 844.084 -90.4716C857.546 -194.469 869.207 -306.024 848.799 -406.133C832.737 -484.927 797.795 -547.747 757.194 -586.715C716.592 -625.686 670.604 -642.482 624.883 -647.806C366.673 -677.868 288.916 -484.643 31.4092 -530.811L-0.00012207 -458.756Z" fill="#FAFBFE"/>
</svg>
