<svg width="866" height="1010" viewBox="0 0 866 1010" fill="none" xmlns="http://www.w3.org/2000/svg">
<g id="Group 69">
<g id="Group 3">
<mask id="mask0_0_473" style="mask-type:luminance" maskUnits="userSpaceOnUse" x="0" y="94" width="728" height="846">
<path id="Clip 2" fill-rule="evenodd" clip-rule="evenodd" d="M487.231 94.5771C448.92 94.5938 410.605 112.44 392.403 141.194C362.58 188.308 407.859 231.352 380.189 325.391C376.513 337.883 360.371 389.266 341.753 388.517C325.894 387.878 314.976 349.685 309.67 331.125C292.187 269.963 309.258 247.431 291.178 221.125C271.121 191.944 221.663 178.272 189.133 193.021C141.015 214.838 133.456 297.25 142.984 351.547C164.245 472.71 283.424 526.99 261.105 572.957C252.536 590.606 226.64 599.752 209.106 595.873C192.072 592.104 184.91 576.481 154.25 523.429C116.895 458.791 109.605 450.973 99.0269 448.897C74.2757 444.042 39.8198 472.261 28.7832 505.083C9.57751 562.197 59.111 639.715 113.961 681.789C168.061 723.289 220.628 725.166 230.029 767.126C233.245 781.476 231.493 800.885 220.394 808.825C198.064 824.794 146.951 787.884 137.065 780.746C83.5702 742.117 76.6859 702.826 47.9027 703.09C28.4185 703.269 7.87027 721.489 1.93124 741.155C0.640973 745.428 0.0196757 749.842 0 754.359V754.778C0.200541 805.879 77.0409 870.35 135.46 901.403C194.383 932.722 253.504 940.105 299.155 939.643C505.568 919.568 605.667 831.636 647.384 786.253C681.893 748.713 745.627 665.039 722.666 632.741C706.401 609.864 646.871 613.09 605.676 636.101C548.499 668.041 541.701 729.689 504.272 728.804C487.573 728.41 471.251 715.722 466.603 701.691C455.924 669.468 505.092 624.956 536.973 603.248C608.837 554.314 652.75 580.472 689.429 537.615C717.542 504.767 728.835 446.067 700.68 407.877C677.701 376.709 630.45 361.923 594.65 374.79C524.707 399.931 520.73 522.621 490.023 519.915C476.11 518.688 466.121 492.549 463.674 473.549C458.653 434.574 482.787 405.621 512.589 363.298C575.432 274.047 606.854 229.421 600.95 187.94C595.148 147.17 559.81 110.486 518.71 98.8366C508.53 95.9507 497.927 94.5802 487.318 94.5771H487.231Z" fill="white"/>
</mask>
<g mask="url(#mask0_0_473)">
<path id="Fill 1" fill-rule="evenodd" clip-rule="evenodd" d="M487.231 94.5771C448.92 94.5938 410.605 112.44 392.403 141.194C362.58 188.308 407.859 231.352 380.189 325.391C376.513 337.883 360.371 389.266 341.753 388.517C325.894 387.878 314.976 349.685 309.67 331.125C292.187 269.963 309.258 247.431 291.178 221.125C271.121 191.944 221.663 178.272 189.133 193.021C141.015 214.838 133.456 297.25 142.984 351.547C164.245 472.71 283.424 526.99 261.105 572.957C252.536 590.606 226.64 599.752 209.106 595.873C192.072 592.104 184.91 576.481 154.25 523.429C116.895 458.791 109.605 450.973 99.0269 448.897C74.2757 444.042 39.8198 472.261 28.7832 505.083C9.57751 562.197 59.111 639.715 113.961 681.789C168.061 723.289 220.628 725.166 230.029 767.126C233.245 781.476 231.493 800.885 220.394 808.825C198.064 824.794 146.951 787.884 137.065 780.746C83.5702 742.117 76.6859 702.826 47.9027 703.09C28.4185 703.269 7.87027 721.489 1.93124 741.155C0.640973 745.428 0.0196757 749.842 0 754.359V754.778C0.200541 805.879 77.0409 870.35 135.46 901.403C194.383 932.722 253.504 940.105 299.155 939.643C505.568 919.568 605.667 831.636 647.384 786.253C681.893 748.713 745.627 665.039 722.666 632.741C706.401 609.864 646.871 613.09 605.676 636.101C548.499 668.041 541.701 729.689 504.272 728.804C487.573 728.41 471.251 715.722 466.603 701.691C455.924 669.468 505.092 624.956 536.973 603.248C608.837 554.314 652.75 580.472 689.429 537.615C717.542 504.767 728.835 446.067 700.68 407.877C677.701 376.709 630.45 361.923 594.65 374.79C524.707 399.931 520.73 522.621 490.023 519.915C476.11 518.688 466.121 492.549 463.674 473.549C458.653 434.574 482.787 405.621 512.589 363.298C575.432 274.047 606.854 229.421 600.95 187.94C595.148 147.17 559.81 110.486 518.71 98.8366C508.53 95.9507 497.927 94.5802 487.318 94.5771H487.231Z" fill="#E8ECF6"/>
</g>
</g>
<path id="Fill 4" fill-rule="evenodd" clip-rule="evenodd" d="M312.82 920C297.689 818.899 346.495 606.044 386.741 503.926C425.957 404.419 458.152 249.553 458.473 248L466 249.548C465.68 251.107 433.355 406.609 393.893 506.732C353.955 608.073 305.477 819.005 320.422 918.867L312.82 920Z" fill="#D7DEEE"/>
<g id="Group 8">
<mask id="mask1_0_473" style="mask-type:luminance" maskUnits="userSpaceOnUse" x="104" y="426" width="420" height="568">
<path id="Clip 7" fill-rule="evenodd" clip-rule="evenodd" d="M138.994 521.171C89.9621 605.695 105.378 697.182 113.27 744.023C132.425 857.701 189.945 938.782 228.184 983.148C329.3 1002.63 402.778 990.513 446.112 978.791C508.02 962.045 519.134 943.194 522.34 931.381C528.107 910.125 516.425 881.614 498.07 874.513C479.942 867.499 468.174 886.349 420.36 897.954C400.714 902.722 371.125 909.903 361.616 897.068C354.953 888.072 360.051 871.802 366.285 861.553C383.274 833.63 413.676 842.234 451.532 819.51C481.101 801.758 517.058 763.788 508.305 732.368C502.056 709.936 473.265 691.739 451.949 696.396C432.84 700.572 433.489 720.112 405.77 741.023C384.776 756.862 351.06 770.808 338.157 759.349C326.835 749.293 332.758 720.748 342.936 701.288C365.875 657.423 407.726 664.876 427.129 624.893C439.248 599.925 438.883 564.135 421.424 550.372C401.313 534.52 359.231 548.441 335.356 572.151C301.779 605.494 316 646.49 283.679 663.171C268.032 671.245 246.198 671.187 237.331 660.867C226.715 648.509 236.915 624.027 245.894 603.144C270.159 546.712 296.583 541.374 301.092 509C305.567 476.893 285.87 436.972 259.111 428.418C255.306 427.201 251.402 426.631 247.421 426.632C207.881 426.637 161.197 482.898 138.994 521.171Z" fill="white"/>
</mask>
<g mask="url(#mask1_0_473)">
<path id="Fill 6" fill-rule="evenodd" clip-rule="evenodd" d="M138.994 521.171C89.9621 605.695 105.378 697.182 113.27 744.023C132.425 857.701 189.945 938.782 228.184 983.148C329.3 1002.63 402.778 990.513 446.112 978.791C508.02 962.045 519.134 943.194 522.34 931.381C528.107 910.125 516.425 881.614 498.07 874.513C479.942 867.499 468.174 886.349 420.36 897.954C400.714 902.722 371.125 909.903 361.616 897.068C354.953 888.072 360.051 871.802 366.285 861.553C383.274 833.63 413.676 842.234 451.532 819.51C481.101 801.758 517.058 763.788 508.305 732.368C502.056 709.936 473.265 691.739 451.949 696.396C432.84 700.572 433.489 720.112 405.77 741.023C384.776 756.862 351.06 770.808 338.157 759.349C326.835 749.293 332.758 720.748 342.936 701.288C365.875 657.423 407.726 664.876 427.129 624.893C439.248 599.925 438.883 564.135 421.424 550.372C401.313 534.52 359.231 548.441 335.356 572.151C301.779 605.494 316 646.49 283.679 663.171C268.032 671.245 246.198 671.187 237.331 660.867C226.715 648.509 236.915 624.027 245.894 603.144C270.159 546.712 296.583 541.374 301.092 509C305.567 476.893 285.87 436.972 259.111 428.418C255.306 427.201 251.402 426.631 247.421 426.632C207.881 426.637 161.197 482.898 138.994 521.171Z" fill="white"/>
</g>
</g>
<g id="Group 11">
<mask id="mask2_0_473" style="mask-type:luminance" maskUnits="userSpaceOnUse" x="468" y="114" width="104" height="198">
<path id="Clip 10" fill-rule="evenodd" clip-rule="evenodd" d="M552.908 117.725C552.908 117.725 455.94 240.49 469.792 287.213C483.645 333.938 552.908 298.208 552.908 298.208L571.378 114.062L552.908 117.725Z" fill="white"/>
</mask>
<g mask="url(#mask2_0_473)">
<path id="Fill 9" fill-rule="evenodd" clip-rule="evenodd" d="M552.908 117.725C552.908 117.725 455.94 240.49 469.792 287.213C483.645 333.938 552.908 298.208 552.908 298.208L571.378 114.062L552.908 117.725Z" fill="#E69324"/>
</g>
</g>
<g id="Group 14">
<mask id="mask3_0_473" style="mask-type:luminance" maskUnits="userSpaceOnUse" x="640" y="982" width="58" height="28">
<path id="Clip 13" fill-rule="evenodd" clip-rule="evenodd" d="M675.277 985.834C673.045 986.45 665.672 988.484 654.759 992.2C648.862 994.208 645.811 995.386 643.326 998.625C642.863 999.227 638.758 1004.69 640.455 1008.03C642.265 1011.59 649.148 1009.7 672.277 1007.26C686.914 1005.71 696.248 1005.19 697.771 1000.21C697.98 999.529 697.896 998.562 697.725 996.63C697.347 992.303 696.767 985.686 693.616 983.035C692.911 982.442 692.175 982.132 690.961 982.132C688.611 982.132 684.467 983.296 675.277 985.834Z" fill="white"/>
</mask>
<g mask="url(#mask3_0_473)">
<path id="Fill 12" fill-rule="evenodd" clip-rule="evenodd" d="M675.277 985.834C673.045 986.45 665.672 988.484 654.759 992.2C648.862 994.208 645.811 995.386 643.326 998.625C642.863 999.227 638.758 1004.69 640.455 1008.03C642.265 1011.59 649.148 1009.7 672.277 1007.26C686.914 1005.71 696.248 1005.19 697.771 1000.21C697.98 999.529 697.896 998.562 697.725 996.63C697.347 992.303 696.767 985.686 693.616 983.035C692.911 982.442 692.175 982.132 690.961 982.132C688.611 982.132 684.467 983.296 675.277 985.834Z" fill="#CA0010"/>
</g>
</g>
<g id="Group 17">
<mask id="mask4_0_473" style="mask-type:luminance" maskUnits="userSpaceOnUse" x="674" y="964" width="20" height="30">
<path id="Clip 16" fill-rule="evenodd" clip-rule="evenodd" d="M674.393 990.291C675 991.524 682.236 995.227 687.984 992.052L693.477 966.925L676.531 964.728L674.393 990.291Z" fill="white"/>
</mask>
<g mask="url(#mask4_0_473)">
<path id="Fill 15" fill-rule="evenodd" clip-rule="evenodd" d="M674.393 990.291C675 991.524 682.236 995.227 687.984 992.052L693.477 966.925L676.531 964.728L674.393 990.291Z" fill="#E0E3F0"/>
</g>
</g>
<g id="Group 20">
<mask id="mask5_0_473" style="mask-type:luminance" maskUnits="userSpaceOnUse" x="448" y="960" width="62" height="22">
<path id="Clip 19" fill-rule="evenodd" clip-rule="evenodd" d="M483.769 961.449C480.269 962.026 480.343 962.325 463.87 967.807C452.263 971.67 448.789 972.666 448.697 974.593C448.569 977.336 455.393 979.91 459.258 980.972C468.824 983.594 472.499 980.291 486.575 979.873C490.906 979.745 494.314 979.946 497.046 980.148C502.602 980.557 505.365 980.967 507.432 978.6C510.566 975.013 509.745 967.729 506.139 963.774C503.598 960.986 499.898 960.1 495.665 960.1C491.968 960.1 487.864 960.775 483.769 961.449Z" fill="white"/>
</mask>
<g mask="url(#mask5_0_473)">
<path id="Fill 18" fill-rule="evenodd" clip-rule="evenodd" d="M483.769 961.449C480.269 962.026 480.343 962.325 463.87 967.807C452.263 971.67 448.789 972.666 448.697 974.593C448.569 977.336 455.393 979.91 459.258 980.972C468.824 983.594 472.499 980.291 486.575 979.873C490.906 979.745 494.314 979.946 497.046 980.148C502.602 980.557 505.365 980.967 507.432 978.6C510.566 975.013 509.745 967.729 506.139 963.774C503.598 960.986 499.898 960.1 495.665 960.1C491.968 960.1 487.864 960.775 483.769 961.449Z" fill="#CA0010"/>
</g>
</g>
<g id="Group 23">
<mask id="mask6_0_473" style="mask-type:luminance" maskUnits="userSpaceOnUse" x="490" y="938" width="26" height="30">
<path id="Clip 22" fill-rule="evenodd" clip-rule="evenodd" d="M490.754 963.831C491.306 965.216 498.743 969.831 505.124 966.907L515.987 941.868L498.068 938.033L490.754 963.831Z" fill="white"/>
</mask>
<g mask="url(#mask6_0_473)">
<path id="Fill 21" fill-rule="evenodd" clip-rule="evenodd" d="M490.754 963.831C491.306 965.216 498.743 969.831 505.124 966.907L515.987 941.868L498.068 938.033L490.754 963.831Z" fill="#E0E3F0"/>
</g>
</g>
<g id="Group 26">
<mask id="mask7_0_473" style="mask-type:luminance" maskUnits="userSpaceOnUse" x="490" y="412" width="200" height="542">
<path id="Clip 25" fill-rule="evenodd" clip-rule="evenodd" d="M541.595 682.599C528.537 780.192 510.233 868.372 490.269 945.914C499.479 948.397 508.69 950.879 517.9 953.36C541.268 931.537 570.746 897.182 584.971 848.633C593.799 818.501 590.857 803.016 596.456 765.953C605.372 706.943 623.432 676.025 642.1 628.44C658.873 585.678 678.7 522.923 689.331 439.036C646.671 430.07 604.011 421.101 561.351 412.134C560.317 492.967 554.81 583.855 541.595 682.599Z" fill="white"/>
</mask>
<g mask="url(#mask7_0_473)">
<path id="Fill 24" fill-rule="evenodd" clip-rule="evenodd" d="M541.595 682.599C528.537 780.192 510.233 868.372 490.269 945.914C499.479 948.397 508.69 950.879 517.9 953.36C541.268 931.537 570.746 897.182 584.971 848.633C593.799 818.501 590.857 803.016 596.456 765.953C605.372 706.943 623.432 676.025 642.1 628.44C658.873 585.678 678.7 522.923 689.331 439.036C646.671 430.07 604.011 421.101 561.351 412.134C560.317 492.967 554.81 583.855 541.595 682.599Z" fill="#1A1820"/>
</g>
</g>
<g id="Group 29">
<mask id="mask8_0_473" style="mask-type:luminance" maskUnits="userSpaceOnUse" x="516" y="412" width="176" height="542">
<path id="Clip 28" fill-rule="evenodd" clip-rule="evenodd" d="M562.685 412.134C605.566 421.101 648.447 430.07 691.328 439.037C680.642 522.923 660.712 585.679 643.851 628.439C625.088 676.026 606.934 706.943 597.973 765.954C592.344 803.016 595.301 818.5 586.427 848.633C572.13 897.181 542.499 931.536 519.011 953.36C518.135 953.126 517.261 952.891 516.387 952.657C540.064 921.906 547.416 895.787 548.459 875.143C549.537 853.803 544.18 832.24 555.788 800.286C565.08 774.709 576.391 766.832 581.441 740.033C585.844 716.66 579.798 709.068 579.609 685.26C579.398 658.692 586.72 642.074 594.589 625.729L595.434 623.979L596.281 622.227C601.932 610.545 607.606 598.65 610.758 583.015C615.028 561.826 587.099 508.323 561.477 462.099" fill="white"/>
</mask>
<g mask="url(#mask8_0_473)">
<path id="Fill 27" opacity="0.461054" fill-rule="evenodd" clip-rule="evenodd" d="M555.788 800.286C565.08 774.709 576.391 766.832 581.441 740.033C585.844 716.66 579.798 709.068 579.609 685.26C579.232 637.817 602.879 622.102 610.758 583.015C615.028 561.826 587.099 508.323 561.477 462.099C562.076 445.056 562.477 428.382 562.685 412.134C605.566 421.101 648.447 430.07 691.328 439.037C680.642 522.923 660.712 585.679 643.851 628.439C625.088 676.026 606.934 706.943 597.973 765.954C592.344 803.016 595.301 818.5 586.427 848.633C572.13 897.181 542.499 931.536 519.011 953.36C518.135 953.126 517.261 952.891 516.387 952.657C540.064 921.906 547.416 895.787 548.459 875.143C549.537 853.803 544.18 832.24 555.788 800.286Z" fill="black"/>
</g>
</g>
<g id="Group 32">
<mask id="mask9_0_473" style="mask-type:luminance" maskUnits="userSpaceOnUse" x="650" y="422" width="142" height="556">
<path id="Clip 31" fill-rule="evenodd" clip-rule="evenodd" d="M650.047 422.562C655.719 525.442 660.385 630.235 663.92 736.885C666.573 816.916 668.521 895.931 669.816 973.906C679.282 975.07 688.749 976.235 698.215 977.399C707.362 960.434 719.512 934.497 727.834 901.251C737.942 860.875 735.602 836.897 740.035 795.051C745.009 748.116 752.232 737.89 765.032 678.682C791.007 558.524 803.996 498.443 775.019 461.071C766.195 449.687 739.692 422.192 665.358 422.192C660.465 422.192 655.364 422.311 650.047 422.562Z" fill="white"/>
</mask>
<g mask="url(#mask9_0_473)">
<path id="Fill 30" fill-rule="evenodd" clip-rule="evenodd" d="M650.047 422.562C655.719 525.442 660.385 630.235 663.92 736.885C666.573 816.916 668.521 895.931 669.816 973.906C679.282 975.07 688.749 976.235 698.215 977.399C707.362 960.434 719.512 934.497 727.834 901.251C737.942 860.875 735.602 836.897 740.035 795.051C745.009 748.116 752.232 737.89 765.032 678.682C791.007 558.524 803.996 498.443 775.019 461.071C766.195 449.687 739.692 422.192 665.358 422.192C660.465 422.192 655.364 422.311 650.047 422.562Z" fill="#1F1F1F"/>
</g>
</g>
<g id="Group 35">
<mask id="mask10_0_473" style="mask-type:luminance" maskUnits="userSpaceOnUse" x="508" y="98" width="312" height="468">
<path id="Clip 34" fill-rule="evenodd" clip-rule="evenodd" d="M559.686 110.047C500.851 155.972 556.608 320.123 535.643 406.376C518.002 478.95 517.352 480.214 517.352 480.214C513.183 488.327 506.425 499.601 509.122 513.031C511.243 523.593 519.26 535.731 530.155 539.467C552.796 547.231 565.774 511.148 603.318 500.269C642.564 488.896 686.472 511.489 741.993 540.057C777.326 558.238 789.392 569.834 801.773 564.079C825.614 553 819.066 492.254 816.406 467.452C805.832 368.894 793.931 253.501 779.641 117.809C755.221 110.965 719.433 102.961 675.605 100.492C650.96 99.103 631.007 98.0093 614.706 98.0093C588.263 98.0085 571.422 100.885 559.686 110.047Z" fill="white"/>
</mask>
<g mask="url(#mask10_0_473)">
<path id="Fill 33" fill-rule="evenodd" clip-rule="evenodd" d="M559.686 110.047C500.851 155.972 556.608 320.123 535.643 406.376C518.002 478.95 517.352 480.214 517.352 480.214C513.183 488.327 506.425 499.601 509.122 513.031C511.243 523.593 519.26 535.731 530.155 539.467C552.796 547.231 565.774 511.148 603.318 500.269C642.564 488.896 686.472 511.489 741.993 540.057C777.326 558.238 789.392 569.834 801.773 564.079C825.614 553 819.066 492.254 816.406 467.452C805.832 368.894 793.931 253.501 779.641 117.809C755.221 110.965 719.433 102.961 675.605 100.492C650.96 99.103 631.007 98.0093 614.706 98.0093C588.263 98.0085 571.422 100.885 559.686 110.047Z" fill="#F29F2F"/>
</g>
</g>
<g id="Group 38">
<mask id="mask11_0_473" style="mask-type:luminance" maskUnits="userSpaceOnUse" x="550" y="264" width="72" height="38">
<path id="Clip 37" fill-rule="evenodd" clip-rule="evenodd" d="M553.809 292.054L550.34 301.098C550.34 301.098 566.984 302.391 577.304 298.945C587.627 295.499 605.68 286.355 619.441 283.307C621.134 282.932 624.148 271.75 616.724 268.46C610.165 265.554 603.893 264.344 598.025 264.343C573.917 264.341 556.598 284.779 553.809 292.054Z" fill="white"/>
</mask>
<g mask="url(#mask11_0_473)">
<path id="Fill 36" fill-rule="evenodd" clip-rule="evenodd" d="M553.809 292.054L550.34 301.098C550.34 301.098 566.984 302.391 577.304 298.945C587.627 295.499 605.68 286.355 619.441 283.307C621.134 282.932 624.148 271.75 616.724 268.46C610.165 265.554 603.893 264.344 598.025 264.343C573.917 264.341 556.598 284.779 553.809 292.054Z" fill="#FCB9A3"/>
</g>
</g>
<g id="Group 44">
<mask id="mask12_0_473" style="mask-type:luminance" maskUnits="userSpaceOnUse" x="500" y="230" width="90" height="98">
<path id="Clip 43" fill-rule="evenodd" clip-rule="evenodd" d="M559.39 230.732L502.767 234.098C500.915 234.208 499.668 235.999 500.169 237.808L523.661 322.344C524.049 323.738 525.447 324.826 526.944 324.898L586.229 327.693C588.501 327.801 590.067 326.167 589.512 324.251L563.029 233.119C562.614 231.694 561.216 230.725 559.623 230.725C559.545 230.725 559.468 230.727 559.39 230.732Z" fill="white"/>
</mask>
<g mask="url(#mask12_0_473)">
<path id="Fill 42" fill-rule="evenodd" clip-rule="evenodd" d="M559.39 230.732L502.767 234.098C500.915 234.208 499.668 235.999 500.169 237.808L523.661 322.344C524.049 323.738 525.447 324.826 526.944 324.898L586.229 327.693C588.501 327.801 590.067 326.167 589.512 324.251L563.029 233.119C562.614 231.694 561.216 230.725 559.623 230.725C559.545 230.725 559.468 230.727 559.39 230.732Z" fill="white"/>
</g>
</g>
<g id="Group 47">
<mask id="mask13_0_473" style="mask-type:luminance" maskUnits="userSpaceOnUse" x="522" y="230" width="70" height="98">
<path id="Clip 46" fill-rule="evenodd" clip-rule="evenodd" d="M560.605 230.732C562.336 230.632 563.892 231.625 564.338 233.119L591.499 324.251C592.069 326.166 590.462 327.8 588.132 327.693L527.328 324.897C525.792 324.826 524.357 323.738 523.96 322.344L522.237 316.297C528.936 318.015 532.66 317.16 534.864 315.737C538.248 313.551 538.388 309.918 538.392 305.364L538.392 304.128C538.397 299.205 538.556 293.328 542.412 287.093C548.618 277.062 556.224 278.846 558.025 270.559C560.134 260.851 550.478 255.729 550.202 241.988C550.123 237.984 550.856 234.369 551.881 231.238" fill="white"/>
</mask>
<g mask="url(#mask13_0_473)">
<path id="Fill 45" fill-rule="evenodd" clip-rule="evenodd" d="M558.025 270.559C556.224 278.846 548.618 277.062 542.412 287.093C534.535 299.827 542.084 311.072 534.864 315.737C532.66 317.16 528.936 318.015 522.237 316.297L523.96 322.344C524.357 323.738 525.792 324.826 527.328 324.897L588.132 327.693C590.462 327.8 592.069 326.166 591.499 324.251L564.338 233.119C563.892 231.625 562.336 230.632 560.605 230.732L551.881 231.238C550.856 234.369 550.123 237.984 550.202 241.988C550.478 255.729 560.134 260.851 558.025 270.559Z" fill="#EEF0F7"/>
</g>
</g>
<g id="Group 56">
<mask id="mask14_0_473" style="mask-type:luminance" maskUnits="userSpaceOnUse" x="606" y="52" width="118" height="86">
<path id="Clip 55" fill-rule="evenodd" clip-rule="evenodd" d="M649.559 56.2805C642.891 55.2268 636.22 54.1724 632.892 60.2994C639.765 71.2767 639.457 85.0359 634.269 94.3726C626.812 107.794 607.916 103.309 606.507 110.728C605.108 118.1 627.898 132.137 652.947 135.61C693.873 141.285 696.463 133.647 711.434 125.007C723.746 117.901 729.734 109.51 715.206 105.973C708.94 104.447 699.252 108.032 682.535 96.1419C665.969 84.3577 666.185 57.1144 666.227 52.2617C662.899 58.3887 656.229 57.335 649.559 56.2805Z" fill="white"/>
</mask>
<g mask="url(#mask14_0_473)">
<path id="Fill 54" fill-rule="evenodd" clip-rule="evenodd" d="M649.559 56.2805C642.891 55.2268 636.22 54.1724 632.892 60.2994C639.765 71.2767 639.457 85.0359 634.269 94.3726C626.812 107.794 607.916 103.309 606.507 110.728C605.108 118.1 627.898 132.137 652.947 135.61C693.873 141.285 696.463 133.647 711.434 125.007C723.746 117.901 729.734 109.51 715.206 105.973C708.94 104.447 699.252 108.032 682.535 96.1419C665.969 84.3577 666.185 57.1144 666.227 52.2617C662.899 58.3887 656.229 57.335 649.559 56.2805Z" fill="#FCB9A3"/>
</g>
</g>
<g id="Group 59">
<mask id="mask15_0_473" style="mask-type:luminance" maskUnits="userSpaceOnUse" x="616" y="0" width="70" height="78">
<path id="Clip 58" fill-rule="evenodd" clip-rule="evenodd" d="M624.112 6.59831C616.203 14.0683 614.589 27.4836 619.243 35.9841C623.655 44.0406 630.687 42.1813 637.382 53.2888C640.725 58.8306 642.537 65.1883 642.982 66.8143C644.137 71.0361 644.693 74.8573 644.978 77.9188C655.73 69.2571 662.296 64.0978 666.481 60.8623C669.501 58.5291 672.513 57.7108 674.605 54.3456C676.452 51.3696 687.866 34.9836 685.049 25.8793C680.297 10.5171 661.507 1.11431 645.588 0.622309C644.627 0.593059 643.554 0.560059 642.401 0.560059C636.958 0.560059 629.727 1.29356 624.112 6.59831Z" fill="white"/>
</mask>
<g mask="url(#mask15_0_473)">
<path id="Fill 57" fill-rule="evenodd" clip-rule="evenodd" d="M624.112 6.59831C616.203 14.0683 614.589 27.4836 619.243 35.9841C623.655 44.0406 630.687 42.1813 637.382 53.2888C640.725 58.8306 642.537 65.1883 642.982 66.8143C644.137 71.0361 644.693 74.8573 644.978 77.9188C655.73 69.2571 662.296 64.0978 666.481 60.8623C669.501 58.5291 672.513 57.7108 674.605 54.3456C676.452 51.3696 687.866 34.9836 685.049 25.8793C680.297 10.5171 661.507 1.11431 645.588 0.622309C644.627 0.593059 643.554 0.560059 642.401 0.560059C636.958 0.560059 629.727 1.29356 624.112 6.59831Z" fill="#002F9C"/>
</g>
</g>
<g id="Group 62">
<mask id="mask16_0_473" style="mask-type:luminance" maskUnits="userSpaceOnUse" x="616" y="28" width="60" height="56">
<path id="Clip 61" fill-rule="evenodd" clip-rule="evenodd" d="M626.796 30.4453C613.842 37.4907 610.495 79.2485 628.599 83.1594C648.819 87.5267 661.545 72.0737 661.545 72.0737C671.795 70.0168 676.95 64.6181 675.083 59.5153C674.566 58.1047 673.437 57.0581 672.997 56.7615C670.236 54.909 665.852 55.6551 661.845 58.7011C667.185 47.1401 666.266 42.4459 664.388 40.3066C662.885 38.5978 661.19 38.9959 655.729 36.6666C649.809 34.1435 648.768 32.3864 645.177 30.7707C642.057 29.3677 638.437 28.7002 635.068 28.7002C631.872 28.7002 628.899 29.3018 626.796 30.4453Z" fill="white"/>
</mask>
<g mask="url(#mask16_0_473)">
<path id="Fill 60" fill-rule="evenodd" clip-rule="evenodd" d="M626.796 30.4453C613.842 37.4907 610.495 79.2485 628.599 83.1594C648.819 87.5267 661.545 72.0737 661.545 72.0737C671.795 70.0168 676.95 64.6181 675.083 59.5153C674.566 58.1047 673.437 57.0581 672.997 56.7615C670.236 54.909 665.852 55.6551 661.845 58.7011C667.185 47.1401 666.266 42.4459 664.388 40.3066C662.885 38.5978 661.19 38.9959 655.729 36.6666C649.809 34.1435 648.768 32.3864 645.177 30.7707C642.057 29.3677 638.437 28.7002 635.068 28.7002C631.872 28.7002 628.899 29.3018 626.796 30.4453Z" fill="#FCB9A3"/>
</g>
</g>
<g id="Group 65">
<mask id="mask17_0_473" style="mask-type:luminance" maskUnits="userSpaceOnUse" x="612" y="38" width="64" height="50">
<path id="Clip 64" fill-rule="evenodd" clip-rule="evenodd" d="M664.78 38.1163C663.799 38.6409 666.018 42.3081 665.533 46.9685C664.593 56.0163 653.81 65.4708 644.308 65.0223C638.69 64.7551 637.66 61.2252 628.647 58.9335C623.067 57.5148 618.243 57.5417 615.18 57.7521C610.841 67.1939 612.09 77.4193 618.063 82.9491C624.494 88.9021 634.081 87.2551 638.089 86.5655C640.771 86.1058 649.359 84.6461 654.748 77.82C660.362 70.7073 656.677 65.3894 662.575 60.8857C665.551 58.6126 669.113 57.9596 673.176 53.314C674.279 52.0521 675.06 50.9066 675.55 50.1312C671.751 44.7499 666.732 38.0603 665.021 38.0596C664.931 38.0596 664.85 38.0782 664.78 38.1163Z" fill="white"/>
</mask>
<g mask="url(#mask17_0_473)">
<path id="Fill 63" fill-rule="evenodd" clip-rule="evenodd" d="M664.78 38.1163C663.799 38.6409 666.018 42.3081 665.533 46.9685C664.593 56.0163 653.81 65.4708 644.308 65.0223C638.69 64.7551 637.66 61.2252 628.647 58.9335C623.067 57.5148 618.243 57.5417 615.18 57.7521C610.841 67.1939 612.09 77.4193 618.063 82.9491C624.494 88.9021 634.081 87.2551 638.089 86.5655C640.771 86.1058 649.359 84.6461 654.748 77.82C660.362 70.7073 656.677 65.3894 662.575 60.8857C665.551 58.6126 669.113 57.9596 673.176 53.314C674.279 52.0521 675.06 50.9066 675.55 50.1312C671.751 44.7499 666.732 38.0603 665.021 38.0596C664.931 38.0596 664.85 38.0782 664.78 38.1163Z" fill="#002F9C"/>
</g>
</g>
<g id="Group 68">
<mask id="mask18_0_473" style="mask-type:luminance" maskUnits="userSpaceOnUse" x="616" y="116" width="250" height="234">
<path id="Clip 67" fill-rule="evenodd" clip-rule="evenodd" d="M730.446 144.977C711.955 173.19 723.993 208.275 725.885 213.791C739.614 253.803 775.623 269.133 770.579 279.851C767.246 286.934 749.336 284.881 731.357 282.603C702.532 278.952 663.505 273.452 616.43 265.17V289.943C712.097 364.482 816.915 362.391 850.847 319.303C895.296 262.86 830.468 120.353 777.877 116.534C777.127 116.48 776.376 116.454 775.622 116.454C758.258 116.454 739.878 130.588 730.446 144.977Z" fill="white"/>
</mask>
<g mask="url(#mask18_0_473)">
<path id="Fill 66" fill-rule="evenodd" clip-rule="evenodd" d="M730.446 144.977C711.955 173.19 723.993 208.275 725.885 213.791C739.614 253.803 775.623 269.133 770.579 279.851C767.246 286.934 749.336 284.881 731.357 282.603C702.532 278.952 663.505 273.452 616.43 265.17V289.943C712.097 364.482 816.915 362.391 850.847 319.303C895.296 262.86 830.468 120.353 777.877 116.534C777.127 116.48 776.376 116.454 775.622 116.454C758.258 116.454 739.878 130.588 730.446 144.977Z" fill="#FAAC43"/>
</g>
</g>
</g>
</svg>
