<svg width="1622" height="1648" viewBox="0 0 1622 1648" fill="none" xmlns="http://www.w3.org/2000/svg">
<path id="Mask" fill-rule="evenodd" clip-rule="evenodd" d="M1622 1647.38C1386.41 1577.05 1200.69 1406.92 1032 1548C840 1708.57 641.907 1471.45 367.236 1424.08C291.23 1410.97 211.364 1404.33 137.924 1387.43C64.4901 1370.53 28.8118 1345.49 8.00037 1303.58C-12.4802 1262.33 11.3114 1186.32 57.5267 1151.79C103.742 1117.26 138.1 1116.27 190.161 1084.3C372.215 972.496 432.549 805.93 342.093 664.862C282.461 571.864 338.1 520.415 377.05 384C413.494 256.361 489.448 75.9299 636 0C696 0 1622 0 1622 0C1622 0 1622 1490 1622 1647.38Z" fill="#F4F6FD"/>
</svg>
